<?xml version="1.0" encoding="utf-8"?>
<!-- Generator: Adobe Illustrator 19.2.1, SVG Export Plug-In . SVG Version: 6.00 Build 0)  -->
<!DOCTYPE svg PUBLIC "-//W3C//DTD SVG 1.1//EN" "http://www.w3.org/Graphics/SVG/1.1/DTD/svg11.dtd">
<svg version="1.1"
	 id="svg2" inkscape:version="0.91 r13725" sodipodi:docname="ground.svg" xmlns:cc="http://creativecommons.org/ns#" xmlns:dc="http://purl.org/dc/elements/1.1/" xmlns:inkscape="http://www.inkscape.org/namespaces/inkscape" xmlns:rdf="http://www.w3.org/1999/02/22-rdf-syntax-ns#" xmlns:sodipodi="http://sodipodi.sourceforge.net/DTD/sodipodi-0.dtd" xmlns:svg="http://www.w3.org/2000/svg"
	 xmlns="http://www.w3.org/2000/svg" xmlns:xlink="http://www.w3.org/1999/xlink" x="0px" y="0px" width="100px" height="100px"
	 viewBox="0 0 100 100" style="enable-background:new 0 0 100 100;" xml:space="preserve">
<sodipodi:namedview  bordercolor="#666666" borderopacity="1.0" id="base" inkscape:current-layer="layer1" inkscape:cx="-42.570889" inkscape:cy="43.793972" inkscape:document-units="px" inkscape:pageopacity="0.0" inkscape:pageshadow="2" inkscape:window-height="1391" inkscape:window-maximized="1" inkscape:window-width="2560" inkscape:window-x="0" inkscape:window-y="0" inkscape:zoom="2" pagecolor="#ffffff" showgrid="true" units="px">
	<inkscape:grid  id="grid4133" type="xygrid"></inkscape:grid>
</sodipodi:namedview>
<g id="layer1" transform="translate(0,-952.36216)" inkscape:groupmode="layer" inkscape:label="Layer 1">
	<path id="path6429" inkscape:connector-curvature="0" d="M7.5,1051.6l-1.1-0.7l1.2-0.5c0.8-0.3,1.4-0.4,1.7-0.1
		c0.7,0.6,3.3,0.8,3.7,0.3c0.9-1-0.2-2.3-1.3-1.4c-0.3,0.3-0.8,0.3-1.1,0.1c-0.3-0.2-0.7-0.4-0.8-0.4c-0.2,0-0.4-0.1-0.5-0.2
		c-0.1-0.1-0.4-0.1-0.7-0.2c-0.7-0.1-0.9-1.4-0.2-1.4c0.3,0,0.7,0.2,0.8,0.5c0.1,0.3,0.4,0.3,0.8-0.3c0.5-0.7,0.5-0.9-0.1-1.7
		c-0.4-0.5-0.6-1.1-0.5-1.4c0.2-0.3,0-0.3-0.4-0.2c-0.7,0.3-0.8-0.1-0.7-1.3c0.1-0.5,0-0.5-0.6,0c-0.6,0.5-0.6,0.4-0.4-0.1
		c0.1-0.4-0.2-1.1-0.8-1.8c-0.6-0.6-0.9-0.8-0.8-0.5c0.1,0.4,0,0.8-0.2,1c-0.3,0.2-0.4,0.1-0.2-0.1c0.4-0.7-0.8-1.5-1.5-0.9
		c-0.4,0.4-0.6,0.3-0.8-0.3c-0.3-0.7-0.3-0.7-0.8,0c-0.3,0.4-0.5,0.9-0.4,1.1c0.1,0.2-0.1,0.2-0.5,0.1c-0.5-0.2-0.6-0.1-0.4,0.4
		c0.1,0.4,0.1,0.8-0.1,0.9c-0.5,0.3-0.8-0.9-0.8-3.5v-2.5l1.9,0.1c1,0,2,0.1,2.1,0.2c0.1,0,0.3,0.1,0.5,0s0.3,0.1,0.3,0.3
		c0,0.2,0.2,0.3,0.5,0.2c0.3-0.1,0.8,0.3,1.1,0.8c0.5,0.9,0.6,1,1,0.4c0.4-0.6,0.5-0.5,1.1,0.3c0.4,0.6,0.7,0.8,1,0.5
		c0.3-0.3,0.2-0.7-0.4-1.3c-0.4-0.5-0.8-0.8-0.8-0.7c0,0.1-0.4,0-0.9-0.2c-0.5-0.3-1.1-0.5-1.4-0.4c-0.3,0.1-0.5-0.2-0.5-0.5
		c0-0.3-0.3-0.6-0.6-0.6s-0.6-0.2-0.6-0.4s-0.3-0.4-0.7-0.3c-0.5,0.1-0.7,0-0.7-0.6c0-0.4,0.2-0.7,0.5-0.7s0.5,0.2,0.5,0.5
		c0,0.3,0.2,0.1,0.5-0.3c0.5-0.6,0.4-0.9-0.1-1.9c-0.4-0.6-0.9-1.1-1.1-1.1c-0.3,0-0.4-0.4-0.3-1.1c0.2-1,0.1-1-0.4-0.4
		c-0.3,0.4-1,0.7-1.6,0.7c-1.1,0-1.4-0.5-0.6-1c0.3-0.2,0.4-0.1,0.2,0.2c-0.3,0.5,0.1,0.6,1.1,0.2c0.8-0.3,0.8-1.4,0-1.4
		c-0.4,0-0.5-0.2-0.4-0.4c0.2-0.3,0-0.3-0.6,0c-0.8,0.4-0.8,0.4-0.8-2.9c0-1.8,0.2-3.6,0.4-3.9c0.5-0.8,3,2.9,2.7,4.1
		c-0.1,0.5,0,1.2,0.2,1.5c0.3,0.4,0.3,0.3,0.2-0.2c-0.1-0.4,0-0.7,0.2-0.7c0.3,0,0.3-0.4,0.2-1c-0.2-0.8-0.1-1,0.5-1
		c1.4,0.1,2.2,0.6,2.3,1.7c0.1,0.6,0.4,1.4,0.8,1.8c0.4,0.5,0.6,1.1,0.4,1.7c-0.1,0.6-0.1,1.4,0,1.8c0.3,0.8,2.6,2.4,2.6,1.7
		c0-0.2,0.2-0.4,0.5-0.4c0.3,0,0.2,0.2-0.2,0.7c-0.6,0.6-0.8,0.6-1.3,0.1c-0.7-0.6-0.8-0.5-1.2,0.7c-0.2,0.5-0.1,0.9,0.2,0.9
		c0.2,0,0.4-0.2,0.4-0.5c0-0.3,0.4-0.1,0.8,0.4c0.4,0.5,0.8,0.8,0.8,0.6c0-0.2,0.3,0,0.7,0.5c0.4,0.4,1.5,1.2,2.5,1.7
		c1.7,0.8,1.8,1,1.7,2.1c-0.1,0.9,0,1.3,0.5,1.4c0.4,0.1,0.6,0.5,0.6,0.8c0,0.9-1.7,0.3-2.5-0.8c-1-1.3-2.1-1.4-1.4-0.1
		c0.4,0.7,0.4,0.9,0,1c-0.3,0.1-0.5,0.4-0.5,0.7c0,0.3-0.2,0.5-0.4,0.3c-0.2-0.1-0.4,0-0.4,0.2c0,0.3-0.1,0.4-0.5,0
		c-0.3-0.3-0.7-0.3-1.1-0.1c-0.4,0.3-0.4,0.4-0.1,0.4c0.3,0,0.5,0.3,0.5,0.6c0,0.7,0.7,1.2,1.1,0.8c0.1-0.1,0-0.4-0.3-0.6
		c-0.5-0.3-0.5-0.4,0.1-0.4c0.4,0,1.7,0.5,2.9,1.1s2.3,1,2.5,0.8c0.7-0.6,2.5,0.1,2.7,1.1c0.3,1.1,0.8,1.3,1.2,0.3
		c0.2-0.4,0.5-0.5,1-0.4c0.4,0.1,0.9,0.1,1-0.2c0.1-0.2,0-0.4-0.3-0.4c-0.3,0-0.7-0.2-0.9-0.5c-0.2-0.3-0.1-0.4,0.2-0.2
		c0.3,0.2,0.5,0.1,0.5-0.1c0-0.2-0.2-0.5-0.4-0.7c-0.2-0.1-0.4-0.5-0.3-0.7c0.1-0.3-0.1-0.7-0.4-0.9c-0.5-0.4-0.3-0.7,1.3-1.7
		c2.2-1.5,2.4-1.5,2-0.5c-0.2,0.5,0,1,0.6,1.4c0.5,0.3,0.7,0.8,0.6,1c-0.1,0.2,0,0.4,0.4,0.4c0.7,0,0.8,0.6,0.1,1
		c-0.3,0.1-0.1,0.1,0.4,0c1-0.2,1.7,0.5,0.8,0.9c-0.9,0.3-0.7,2.6,0.3,2.9c0.8,0.2,0.9,0.5,0.2,1.2c-0.6,0.6-1.3,0.6-0.9,0.1
		c0.1-0.2,0-0.4-0.4-0.4c-0.5,0-0.6-0.2-0.4-0.8c0.2-0.8,0.2-0.8-0.6-0.3c-0.5,0.3-0.8,0.7-0.8,0.8s-0.2,0.2-0.4,0.1
		c-0.2-0.1-0.4-0.1-0.4,0.2c0,0.2-0.8,0.4-1.9,0.3c-1.6-0.1-1.9-0.2-2-1c-0.1-0.5-0.5-1-0.9-1.1s-0.7-0.4-0.5-0.5
		c0.1-0.2-0.1-0.2-0.4-0.1c-0.5,0.2-0.5,0.3-0.1,0.6c0.4,0.3,0.4,0.4-0.1,0.7c-0.3,0.2-0.5,0.4-0.3,0.4c0.2,0,0.5,0.1,0.7,0.2
		s0.5,0.1,0.7,0.1c0.2,0-0.1,0.3-0.5,0.6c-0.4,0.3-0.9,0.5-1.1,0.4c-0.2-0.1-0.3,0-0.2,0.3c0.1,0.3-0.2,0.5-0.8,0.5
		c-1.1,0-1.1,1.1,0.1,1.5c0.6,0.2,0.5,0.3-0.5,0.3c-0.7,0-1.3-0.1-1.3-0.4c0-0.2-0.2-0.4-0.4-0.4c-0.2,0-0.3,0.2-0.2,0.4
		C13.9,1052.7,8.7,1052.4,7.5,1051.6L7.5,1051.6z M24.2,1048.1c0.3-0.1,0.6-0.5,0.6-0.8c0-0.6-1.3-1-2-0.6c-0.4,0.3-0.4,0.4,0,1
		C23.4,1048.4,23.3,1048.4,24.2,1048.1z M6,1038.8c0-0.2-0.4-0.3-1-0.2c-0.5,0.1-1,0.3-1,0.3c0,0.1,0.4,0.2,1,0.2S6,1039,6,1038.8
		L6,1038.8z M6,1030.7c0-0.2-0.2-0.4-0.4-0.4s-0.4,0.2-0.4,0.4c0,0.2,0.2,0.4,0.4,0.4S6,1031,6,1030.7z M6.8,1029.5
		c0.7-0.5,0.1-0.5-1,0c-0.5,0.2-0.6,0.4-0.2,0.4C5.9,1029.9,6.5,1029.7,6.8,1029.5z M5.1,1029.2c0.4-0.3,0.4-0.5-0.3-0.9
		c-0.5-0.3-0.7-0.7-0.6-0.9c0.1-0.1,0.1-0.3-0.2-0.3c-0.5,0-0.6,0.2-0.2,1.5C4.1,1029.6,4.3,1029.7,5.1,1029.2z M31.8,1051.3
		c-0.4-0.5-1-1-1.3-1c-0.4,0-0.5-0.1-0.2-0.2c1-0.4,0.5-1-0.7-0.8c-0.9,0.2-1.2,0.1-1.1-0.2c0.1-0.3,0.9-0.6,1.7-0.8
		c3-0.6,3.6-0.9,3.7-1.7c0.2-0.9,1.1-1.6,2.3-1.6c0.4,0,0.9,0.2,1.1,0.4c0.2,0.2,0.6,0.1,1-0.3c0.6-0.6,0.6-0.8,0.1-1.1
		c-0.5-0.3-0.5-0.4,0-0.4c0.3,0,0.9,0.2,1.2,0.5c0.3,0.3,0.2,0.1-0.3-0.5s-0.9-1.3-1.1-1.7c-0.1-0.4-0.5-0.7-0.8-0.8
		c-1.9-0.2-2.7-0.1-2.7,0.1c0,0.2-0.2,0.3-0.4,0.3s-0.4-0.3-0.4-0.6c0-0.4-0.2-0.5-0.6-0.4c-0.3,0.1-0.6,0-0.6-0.2
		c0-0.6,2.1-0.6,2.8,0.1c0.4,0.4,0.5,0.3,0.3-0.4c-0.3-1.3,0.8-1.5,1.9-0.3c0.9,0.9,2.1,1,1.6,0.2c-0.3-0.5,0.9-0.8,1.7-0.5
		c0.4,0.2,0.6,0.1,0.4-0.2c-0.1-0.2-0.1-0.6,0.1-0.7c0.2-0.1,0.4-0.1,0.4,0.2c0,0.2,0.2,0.4,0.4,0.4s0.4-0.4,0.4-0.9
		c0-0.7,0.1-0.8,0.4-0.3c0.4,0.7,0.1,2.4-0.4,2.4c-0.2,0-0.4-0.2-0.5-0.5c-0.3-0.7-1.1,0.5-1,1.5c0.1,1-1,1.3-1.9,0.4
		c-0.6-0.6-0.6-0.6-0.6,0.2c0,0.7,0.3,0.8,1.4,0.8c1.5,0,3,1,2.1,1.3c-0.3,0.1-0.4,0.3-0.1,0.5c0.6,0.5,0.7,1.3,0.2,1.3
		c-0.3,0-0.3,0.3-0.2,0.8c0.2,0.5,0.1,1-0.3,1.2c-0.4,0.3-0.3,0.4,0.4,0.6l0.9,0.3l-1.1,0.7c-1.5,0.9-3.3,1.4-3.3,0.8
		c0-0.5-0.8-0.4-1.4,0.2c-0.3,0.3-0.3,0.6-0.1,1.1c0.3,0.6,0.1,0.7-2.2,0.7C32.8,1052.3,32.4,1052.2,31.8,1051.3z M35.2,1045.9
		c0-0.2-0.1-0.4-0.2-0.4c-0.1,0-0.3,0.2-0.4,0.4c-0.1,0.2-0.1,0.4,0.2,0.4S35.2,1046.1,35.2,1045.9z M40.6,1040.7
		c-0.1-1.2-0.6-1.5-0.6-0.3c0,0.6,0.1,1.1,0.3,1.1C40.5,1041.5,40.6,1041.2,40.6,1040.7z M44.7,1052c-0.1-0.2,0.7-0.3,1.8-0.4
		c1.1-0.1,2.1,0.1,2.2,0.3c0.1,0.2-0.6,0.4-1.8,0.4C45.7,1052.3,44.8,1052.2,44.7,1052z M50.6,1051.6c-0.4-0.9-0.6-1.7-0.4-1.7
		c0.5,0,1.7,1.4,1.5,1.9C51.4,1052.5,50.9,1052.5,50.6,1051.6z M73.6,1051.9c0-0.6-1.7-1.6-3.1-1.9c-0.6-0.1-1.4-0.5-1.8-0.8
		c-0.3-0.3-1.2-0.8-1.9-1c-0.7-0.2-1.2-0.6-1.1-0.9c0.3-0.7,2.5-0.5,3.4,0.3c0.4,0.4,1,0.7,1.2,0.7s0.4,0.3,0.4,0.6
		c0,0.5,0.1,0.6,0.6,0.1c0.5-0.4,0.5-0.6,0.1-0.8c-0.7-0.5,0-0.4,0.9,0.1c0.5,0.3,0.8,0.3,1-0.1c0.2-0.3,0.1-0.4-0.2-0.1
		c-0.3,0.2-0.4,0.1-0.3-0.2c0.1-0.3,0.6-0.5,1.4-0.4c1,0.1,1.1,0,0.6-0.4c-1-0.9-0.8-1.4,0.7-2.1c1-0.5,1.3-0.8,0.9-1
		c-0.6-0.4-0.1-0.7,1-0.6c1.1,0,3.1,3.7,2.7,5c-0.1,0.5-0.4,1.1-0.6,1.1c-0.2,0.1-0.1,0.6,0.1,1.1c0.3,0.8,0.3,1-0.1,0.8
		c-0.3-0.1-0.4-0.4-0.4-0.7c0.1-0.4,0-0.4-0.5,0c-0.5,0.4-0.5,0.6-0.1,0.9c0.4,0.2,0.3,0.3-0.2,0.3c-0.8,0-0.9-0.8-0.2-1.5
		c0.3-0.3,0.3-0.5,0.2-0.5s-0.1-0.3,0.1-0.6c0.7-0.8-0.9-1.7-1.8-1c-0.4,0.3-0.6,0.3-0.8,0c-0.1-0.2-0.6-0.4-0.9-0.4
		c-0.5,0-0.5,0.1,0.1,0.6c0.6,0.5,0.7,0.7,0.2,1c-0.5,0.3-0.4,0.4,0.2,0.6c0.5,0.1,0.4,0.2-0.4,0.3c-1,0.1-1.1,0.1-0.5,0.5
		c0.4,0.2,0.9,0.3,1.1,0.1s0.2,0.1-0.1,0.6C75,1052.3,73.6,1052.7,73.6,1051.9L73.6,1051.9z M78.8,1046.3c0-0.2-0.3-0.4-0.6-0.4
		s-0.5,0.2-0.4,0.4c0.1,0.2,0.4,0.4,0.6,0.4C78.6,1046.7,78.8,1046.5,78.8,1046.3z M80.6,1051.6c-0.1-0.3,0-0.4,0.2-0.3
		c0.2,0.1,0.4,0,0.4-0.3c0-0.3-0.2-0.7-0.5-0.8c-0.4-0.2-0.4-0.2,0-0.2c0.3,0,0.6,0.2,0.7,0.6c0.2,0.4,0.4,0.5,1,0.2
		c0.4-0.2,1-0.4,1.3-0.4c0.3,0,0.2,0.2-0.2,0.3c-0.7,0.3-0.7,0.3-0.1,1c0.6,0.6,0.6,0.7,0,0.7c-0.3,0-0.6-0.2-0.6-0.5
		c0-0.3-0.1-0.4-0.3-0.1C82.1,1052.4,80.9,1052.3,80.6,1051.6L80.6,1051.6z M92.2,1051.2c0.1-0.8-0.1-1.1-0.4-1
		c-0.4,0.1-0.5,0-0.3-0.6c0.1-0.4,0.4-0.8,0.7-0.7s0.4-0.2,0.3-0.5c-0.1-0.3,0-0.4,0.2-0.3c0.2,0.2,0.3,0.5,0.3,0.8
		c0,0.3,0.4,0.5,0.8,0.6c0.4,0.1,1.1,0.5,1.5,0.9c0.4,0.4,1,0.8,1.5,0.8s0.8,0.3,1,0.6c0.2,0.5-0.1,0.6-1.4,0.6
		c-0.9,0-1.6-0.2-1.6-0.4c0-0.5-1.7-0.5-2.2,0C92.3,1052.2,92.2,1051.9,92.2,1051.2L92.2,1051.2z M86.6,1051.5
		c-0.1-0.2-0.5-0.3-0.8-0.2s-0.6,0.1-0.7-0.1c-0.1-0.2,0.6-0.3,1.5-0.2c0.9,0,1.7,0.2,1.8,0.4C88.5,1051.9,86.9,1052,86.6,1051.5
		L86.6,1051.5z M1.4,1050.7c-0.1-0.2-0.1-0.4,0.2-0.4s0.4,0.2,0.4,0.4c0,0.2-0.1,0.4-0.2,0.4C1.7,1051.1,1.5,1050.9,1.4,1050.7z
		 M99,1049.5c-0.6-0.2-0.6-0.4-0.3-0.6c0.3-0.2,0.7-0.1,0.9,0.1C100.3,1049.7,100,1049.9,99,1049.5z M5.8,1048.8
		c0.2-0.3,0.1-0.5-0.2-0.5c-0.3,0-0.3-0.2,0.1-0.6c0.4-0.4,0.7-0.4,1.2-0.2c0.8,0.4,1,1.3,0.1,1c-0.3-0.1-0.8,0-1.1,0.3
		C5.6,1049.2,5.5,1049.2,5.8,1048.8L5.8,1048.8z M52.2,1048.8c0.1-0.2-0.1-0.5-0.6-0.6c-0.4-0.1-0.8-0.6-0.8-1
		c0-1.1-1.9-2.2-3.6-2.1c-1.1,0.1-1.5-0.1-1.7-0.6c-0.2-0.6-0.2-0.6,0.2-0.2c0.3,0.3,0.9,0.5,1.3,0.5c0.6,0,0.7-0.1,0.3-0.3
		c-0.4-0.2-0.4-0.4-0.1-0.6c0.2-0.2,0.6-0.2,0.8,0c0.2,0.1,0.4,0.1,0.4-0.2c0-0.2-0.2-0.4-0.5-0.5c-0.8,0-2-0.3-2.1-0.4
		c-0.1-0.1-0.2-0.6-0.3-1.1c-0.2-0.8-0.1-1,0.7-1.1c0.8,0,0.9,0.1,0.7,0.8c-0.2,0.6-0.1,0.8,0.4,0.6c0.6-0.2,1,0.2,1.9,1.7
		c0.3,0.5,0.5,0.5,1.3-0.3c1-0.9,1.9-1.2,1.9-0.5c0,0.2,0.3,0.4,0.6,0.4s0.7,0.4,0.8,1c0.1,0.5,0.4,0.9,0.6,0.8
		c0.2-0.1,0.9,0.1,1.6,0.4c1.1,0.5,1.3,0.8,1.4,1.9l0.1,1.4l-2-0.2c-1.3-0.1-2,0-2,0.3c0,0.2-0.4,0.5-0.8,0.5
		C52.3,1049.1,52.1,1049,52.2,1048.8L52.2,1048.8z M80.7,1048.9c0.3-0.1,0.6-0.1,0.8,0c0.1,0.1-0.1,0.2-0.5,0.2
		C80.5,1049.1,80.4,1049,80.7,1048.9L80.7,1048.9z M88,1048.6c-0.4-0.4-0.3-0.6,0.2-0.8c0.6-0.2,1.3,0.3,1.3,1.1
		C89.6,1049.3,88.5,1049.2,88,1048.6z M0.6,1048.3c0.1-0.2,0-0.3-0.2-0.3c-0.7,0-0.5-1.1,0.2-1.4c1-0.4,1.2-0.3,0.6,0.2
		c-0.4,0.2-0.5,0.5-0.2,0.7c0.6,0.5,0.6,1.2,0,1.2C0.7,1048.6,0.5,1048.4,0.6,1048.3z M90.4,1048.6c0-0.1,0.3-0.3,0.6-0.4
		c0.4-0.1,0.5-0.1,0.4,0.2C91.2,1048.7,90.4,1048.9,90.4,1048.6L90.4,1048.6z M98.8,1047.9c-0.4-0.2-0.4-0.4-0.1-0.4
		c0.3,0,0.6,0.2,0.7,0.4C99.7,1048.4,99.6,1048.4,98.8,1047.9z M28.1,1047.7c0.2-0.2,0-0.5-0.4-0.8c-0.4-0.3-0.6-0.6-0.4-0.8
		s0.6,0.1,1.1,0.6s0.8,0.7,0.8,0.4c0-0.3,0.6-0.5,1.3-0.5c1.1,0,1.2,0.1,0.6,0.4C30.2,1047.7,27.7,1048.1,28.1,1047.7z M45.6,1047
		c-0.3-0.5-0.3-0.8-0.2-0.6c0.2,0.2,0.5,0.1,0.8-0.1c0.4-0.3,0.8-0.3,1.4,0.1c0.8,0.4,0.8,0.5,0.2,0.7c-0.4,0.1-0.7,0.3-0.7,0.5
		C47.2,1048.3,46,1047.9,45.6,1047L45.6,1047z M62.4,1046.9c0-0.2-0.5-0.6-1-0.7c-0.8-0.2-0.9-0.3-0.5-0.8c0.3-0.3,0.6-0.4,0.7-0.2
		c0.3,0.4,2.5,1.3,2.9,1.2c0.2,0,0.2,0.1,0.1,0.4c-0.2,0.3-0.4,0.3-0.8,0c-0.3-0.3-0.6-0.3-1,0.1
		C62.5,1047.1,62.4,1047.1,62.4,1046.9L62.4,1046.9z M94.2,1045.3c-0.7-0.5-1.1-1.1-0.9-1.2c0.3-0.3-0.4-1.1-1.5-1.5
		c-0.6-0.2-0.7-0.4-0.2-0.7c0.3-0.2,0.7-0.3,0.8-0.2c0.2,0.1,0.5-0.1,0.8-0.5c0.7-0.8-0.2-1.5-1.3-0.9c-0.5,0.3-0.7,0.2-0.7-0.1
		c0-0.3-0.2-0.2-0.4,0.2c-0.2,0.4-0.6,0.6-0.8,0.4c-0.2-0.2-0.3-0.1-0.2,0.1c0.5,0.7-0.8,1.4-1.7,0.9c-0.5-0.2-1.1-0.4-1.3-0.4
		c-1.1,0.1-1.4-0.1-1.3-0.7c0.1-0.4,0.4-0.7,0.8-0.6c0.4,0,0.7-0.1,0.7-0.3c0-0.2-0.2-0.4-0.5-0.4c-0.4,0-0.4-0.1,0-0.5
		c0.3-0.3,0.9-0.3,2-0.1c1.5,0.4,1.6,0.4,1.4-0.6c-0.1-0.6-0.5-1.4-0.8-1.7c-0.3-0.4-0.5-0.7-0.3-0.7c0.2,0,0.1-0.2-0.1-0.5
		c-0.6-0.6-0.6-1.1-0.1-1.1c0.2,0,0.4,0.2,0.3,0.4c-0.2,0.8,0.7,0.8,1.2-0.1c0.4-0.7,0.4-0.8-0.2-0.7c-1.1,0.2-1.2-1.2-0.1-1.7
		c0.5-0.2,1.2-0.6,1.6-0.9c0.6-0.4,0.8-0.4,1.1,0.1c0.2,0.3,0.3,0.8,0.2,1.2c-0.1,0.4-0.1,0.5,0.1,0.2c0.5-0.7,1.7-1,1.9-0.4
		c0.1,0.3,0.2,0.3,0.2,0c0-0.5,2.4-0.2,2.4,0.3c0,0.2,0.2,0.4,0.5,0.4s0.7,0.4,1,0.8c0.4,0.7,0.4,0.8,0,0.5c-0.4-0.3-0.4-0.2,0,0.3
		c0.3,0.4,0.3,0.8,0.1,1c-0.2,0.2-0.1,0.6,0.3,1c0.6,0.5,0.6,0.5,0.4-0.1c-0.2-0.4-0.1-0.6,0.1-0.5c0.5,0.3,0.5,6.6,0,6.6
		c-0.2,0-0.4-0.2-0.4-0.5c0-0.3-0.3-0.1-0.6,0.5c-0.3,0.5-0.5,1.1-0.4,1.3s-0.4,0.2-1,0.1c-1-0.2-1.2,0-1.2,0.5
		C96,1046.1,95.4,1046.3,94.2,1045.3L94.2,1045.3z M96.8,1043.2c0-0.7-1.1-0.8-1.6-0.2c-0.4,0.5-0.3,0.6,0.6,0.6
		C96.3,1043.5,96.8,1043.4,96.8,1043.2z M94.9,1037c-0.1-0.2,0-0.3,0.2-0.3c0.6,0,0.5-1-0.2-1.6c-0.5-0.4-0.6-0.4-0.6,0
		s-0.1,0.4-0.6,0c-0.4-0.3-0.6-0.4-0.6,0c0,0.2-0.2,0.4-0.4,0.4c-0.2,0-0.3-0.2-0.2-0.4c0.1-0.2-0.1-0.5-0.4-0.7
		c-0.7-0.3-1.4,0.4-1.4,1.3c0,0.7,1.9,1.6,3.2,1.6C94.6,1037.3,95,1037.2,94.9,1037z M91.2,1035.7c0-0.5,0.1-0.6,0.2-0.2
		c0.1,0.3,0.1,0.6,0,0.8C91.3,1036.4,91.2,1036.1,91.2,1035.7L91.2,1035.7z M29,1045.2c-0.1-0.2,0.1-0.5,0.4-0.6
		c1.1-0.4,1.4-0.3,0.8,0.4C29.6,1045.6,29.3,1045.7,29,1045.2z M33.2,1044.5c0-0.5,0.1-0.6,0.2-0.2c0.1,0.3,0.1,0.6,0,0.8
		C33.3,1045.2,33.2,1044.9,33.2,1044.5z M79.5,1043.6c-0.7-0.1-1-0.9-0.4-0.9c0.2,0,0.3-0.3,0.3-0.6c0-0.4-0.4-0.6-0.9-0.6
		c-0.6,0-0.9,0.2-0.9,0.7c0,0.6-0.1,0.6-0.7-0.1c-0.8-0.9-1.3-1-2.2-0.1c-0.5,0.5-0.5,0.7-0.2,0.9c0.3,0.1,0,0.2-0.6,0.1
		c-1-0.1-1.6-0.7-0.7-0.7c0.2,0,0.4-0.2,0.3-0.5s0.1-0.5,0.4-0.4c0.7,0.1,1.1-1,0.5-1.7c-0.7-0.8-2.2-0.5-2.3,0.5
		c-0.1,0.9-1.7,1.3-1.7,0.5c0-0.2,0.3-0.4,0.6-0.4c0.5,0,1.3-1.2,1-1.4c-0.1,0-0.8-0.2-1.6-0.4l-1.5-0.3l0.3,1.4
		c0.3,1.4,0.2,1.4-0.7,1.1c-0.5-0.2-1-0.4-1.1-0.4c-0.8-0.1-1.6-0.6-1.4-0.9c0.1-0.2-0.1-0.4-0.4-0.4c-0.3,0-0.6-0.2-0.6-0.4
		s0.2-0.4,0.4-0.4c0.7,0,0.5-0.6-0.5-1.7c-0.5-0.5-1.2-0.9-1.5-0.8c-0.4,0.1-0.4,0,0.1-0.4c0.5-0.4,0.6-0.7,0.3-1
		c-0.3-0.3-0.2-0.6,0.3-1.1c0.5-0.5,0.8-0.5,0.9-0.3c0.1,0.2,0.6,0.5,1.1,0.5c0.7,0,1,0.3,1.3,1.3c0.2,0.7,0.6,1.4,0.9,1.5
		c0.4,0.1,0.5-0.1,0.3-1.3c-0.2-1.1-0.1-1.5,0.4-1.5c0.5,0,0.5-0.1,0.1-0.6c-0.3-0.3-0.6-0.5-0.8-0.4c-0.2,0.1-0.4-0.3-0.6-0.9
		c-0.1-0.6-0.6-1.5-1-2c-0.8-0.9-0.8-0.9,0.1-1.1c0.5-0.1,0.7-0.4,0.6-0.6c-0.5-0.8,1.7-0.1,3.1,1c1.3,1,1.4,1.2,0.9,1.5
		c-0.9,0.5-0.8,1.7,0.1,1.3c0.4-0.2,1.1-0.3,1.5-0.4c0.5,0,0.9-0.4,0.9-0.9c0.1-0.5,0.3-0.9,0.5-0.9s0.3,0.3,0.2,0.7
		c-0.1,0.5,0.1,1,0.6,1.5c0.5,0.4,0.7,0.5,0.6,0.3c-0.4-0.7,0.4-0.6,1.1,0.1c0.3,0.3,0.8,0.6,0.9,0.6s0.6,0.2,0.8,0.5
		c0.4,0.4,0.3,0.6-0.4,1.2c-0.9,0.8-0.9,0.8-0.1,1.3c0.4,0.3,1,0.6,1.3,0.6c0.3,0,0.5,0.1,0.5,0.3c0,0.5,2.4,1.7,2.6,1.3
		c0.1-0.2,0.1-0.7,0-1.1c-0.2-0.6-0.1-0.5,0.4,0.2c0.4,0.5,1,0.9,1.4,0.9c0.8,0,1,1,0.4,1.4c-0.2,0.1-0.4,0.1-0.4-0.2
		c0-0.2-0.2-0.3-0.5-0.2c-0.3,0.1-0.5,0.7-0.5,1.4c0,0.8,0.1,1.1,0.5,1c0.3-0.1,0.4,0,0.3,0.2c-0.1,0.2-0.5,0.4-0.8,0.4
		s-0.5,0.2-0.4,0.4c0.3,0.5-0.8,0.9-1.5,0.6c-0.3-0.1-0.6,0-0.7,0.3C80.3,1043.5,79.9,1043.7,79.5,1043.6L79.5,1043.6z M73.4,1038
		c0.6,0.2,2.2-0.5,2.2-0.8c0-0.2-0.4-0.4-0.8-0.5c-0.7-0.2-0.7-0.1-0.3,0.4c0.4,0.5,0.3,0.6-0.6,0.3c-1.1-0.3-2,0.4-1.6,1.2
		c0.1,0.2,0.4,0.2,0.5-0.1S73.2,1037.9,73.4,1038z M71,1034.7c-0.1-0.2,0-0.4,0.2-0.4c0.3,0,0.4-0.1,0.3-0.2
		c-0.4-0.4-1.1,0.2-0.9,0.7c0.1,0.2,0.3,0.4,0.4,0.4C71.2,1035.1,71.1,1035,71,1034.7z M71.5,1032.6c0-0.5,0-0.7-0.1-0.4
		c-0.1,0.3-0.4,0.4-0.6,0.3c-0.2-0.1-0.4-0.1-0.4,0.2c0,0.2,0.2,0.5,0.5,0.6s0.5,0.2,0.5,0.2C71.4,1033.5,71.4,1033.1,71.5,1032.6
		L71.5,1032.6z M29.8,1042.3c-0.1-0.2-0.1-0.4,0.2-0.4c0.2,0,0.4,0.2,0.4,0.4s-0.1,0.4-0.2,0.4C30.1,1042.7,29.9,1042.5,29.8,1042.3
		z M18.6,1040.7c-0.1-0.2,0-0.4,0.4-0.4c0.3,0,0.6,0.2,0.6,0.4s-0.2,0.4-0.4,0.4C19,1041.1,18.7,1041,18.6,1040.7z M52.8,1040.7
		c0-0.2,0.2-0.4,0.4-0.4c0.2,0,0.3,0.2,0.2,0.4c-0.1,0.2-0.3,0.4-0.4,0.4C52.9,1041.1,52.8,1041,52.8,1040.7z M51.7,1039.9
		c-0.2-0.5-0.4-1.1-0.3-1.3c0.1-0.1-0.2-0.3-0.6-0.5c-0.6-0.1-0.7-0.4-0.5-1c0.3-1,0.7-1.1,1.6-0.1c0.5,0.5,0.6,1.1,0.5,2.3
		C52.1,1040.9,52.1,1040.9,51.7,1039.9L51.7,1039.9z M62.6,1040.4c0.1-0.2-0.1-0.5-0.4-0.6c-0.3-0.1-0.5-0.4-0.4-0.7
		c0.1-0.2,0-0.7-0.4-0.9c-0.7-0.5-0.6-0.5,0.1-0.7c0.6-0.2,0.8-0.1,0.6,0.3c-0.1,0.3,0,0.6,0.2,0.6c0.2,0,0.4,0.3,0.4,0.8
		s0.2,0.8,0.5,0.9c0.3,0.1,0.2,0.3-0.2,0.4C62.7,1040.6,62.5,1040.6,62.6,1040.4L62.6,1040.4z M30.7,1038.4c-0.1-0.5-0.1-0.9,0-0.8
		c0.8,0.1,0.9-0.1,0.1-0.8L30,1036l1-0.2c1-0.2,1.7,0.2,1.1,0.7c-0.2,0.1-0.3,0.7-0.1,1.3c0.1,0.7,0.1,1-0.2,0.8
		c-0.2-0.1-0.5,0-0.6,0.2C31,1039.1,30.8,1038.9,30.7,1038.4z M34,1038.8c-0.3-0.1-0.8-0.4-1.1-0.6c-0.4-0.3-0.3-0.5,0.4-0.9
		c0.7-0.4,1-0.3,1.6,0.3c0.4,0.4,0.7,0.8,0.7,0.9C35.6,1038.8,34.6,1039,34,1038.8L34,1038.8z M24.7,1037.6
		c-1.2-0.1-1.5-0.3-1.4-0.9c0.1-1,0.7-1,0.7-0.1c0,0.4,0.1,0.5,0.2,0.2c0.2-0.6,1.5-0.6,2.6-0.1c1,0.5,1,1.2,0.1,1.1
		C26.5,1037.8,25.5,1037.7,24.7,1037.6L24.7,1037.6z M28.6,1037.1c0.1-0.2,0.6-0.4,0.9-0.4c0.6,0,0.6,0.1,0.1,0.4
		C28.8,1037.6,28.3,1037.6,28.6,1037.1z M40.4,1036.5c-0.6-0.8-0.7-1.1-0.4-1.4c0.6-0.4,2.7,1.2,2.5,1.9
		C42.2,1037.8,41.3,1037.6,40.4,1036.5z M56.1,1036c-0.7-0.4-1.3-0.9-1.3-1.2c0-0.3-0.7-1.3-1.6-2.1c-0.9-0.8-1.5-1.5-1.3-1.5
		c0.4,0-1.2-1.2-1.6-1.2c-0.2,0-0.2,0.2-0.1,0.4s0,0.4-0.4,0.4c-0.3,0-0.6-0.2-0.6-0.4c0-0.5,1.2-0.9,1.6-0.6c0.2,0.1,0.4,0,0.4-0.2
		c0-0.4-1.3-1.3-1.7-1.1c-0.1,0,0.1-0.1,0.4-0.4c0.8-0.7,1.4-0.6,1.1,0.1c-0.1,0.3-0.1,0.6,0.2,0.6c0.2,0,0.4,0.3,0.4,0.7
		c0,0.5,0.1,0.5,0.6-0.3c0.4-0.7,0.4-1.1,0.1-1.5c-0.2-0.3-0.3-0.5-0.1-0.5c0.4,0,1.8,1.9,1.9,2.6c0,0.3,0.4,0.8,0.8,1.1
		c0.5,0.3,0.6,0.8,0.5,1.2c-0.1,0.4-0.1,0.6,0.1,0.5c0.2-0.1,0.5,0.1,0.6,0.4c0.1,0.4,0.1,0.5-0.2,0.4c-0.2-0.1-0.3,0-0.2,0.4
		c0.1,0.3,0.4,0.5,0.6,0.4c0.2-0.1,0.4,0,0.4,0.2c0,0.2,0.3,0.4,0.6,0.4s0.6,0.2,0.6,0.4c0,0.2-0.2,0.3-0.5,0.1
		c-0.4-0.2-0.4-0.2,0,0.3C58.6,1036.8,58,1037,56.1,1036L56.1,1036z M13.9,1033.9c-1.1-0.9-1.7-3.5-0.8-3.9c0.4-0.2,0.4-0.3-0.2-0.7
		c-0.4-0.3-0.9-0.4-1.2-0.3c-0.9,0.3-0.6-0.3,0.7-1.5c0.7-0.7,1.2-1.5,1.2-1.8s0.2-0.6,0.4-0.6c0.2,0,0.4,0.3,0.4,0.6
		c0,0.3,0.3,0.6,0.6,0.6s0.5,0.2,0.4,0.4c-0.1,0.2,0.1,0.8,0.4,1.4c0.6,0.9,0.6,1,0,1c-0.4,0-0.6-0.2-0.6-0.4s-0.2-0.4-0.4-0.4
		c-0.2,0-0.3,0.2-0.1,0.4c0.2,0.2,0,0.6-0.3,0.8c-0.3,0.2-0.4,0.5-0.3,0.6c0.2,0.2,0.6,0,0.9-0.2c0.8-0.7,1.2-0.3,0.4,0.5
		c-0.4,0.4-0.5,0.7-0.2,0.9c0.2,0.1,0.4,0.1,0.4-0.2c0-0.2,0.2-0.4,0.4-0.4c0.6,0,0.5,1.1-0.1,1.3c-0.4,0.2-0.4,0.2,0,0.2
		c0.3,0,0.7,0.4,0.9,0.8c0.3,0.6,0.2,0.8-0.8,1.2C15,1034.6,14.7,1034.5,13.9,1033.9z M20.5,1031.3c-0.7-0.3-1.3-0.7-1.3-0.9
		s-0.4-0.5-0.9-0.6c-1.2-0.3-1.3-1.4-0.1-1.2c0.6,0.1,0.9-0.1,0.9-0.7c0-0.5-0.1-0.8-0.2-0.7c-0.5,0.3-2.2-1.1-2.3-2
		c0-0.4,0-0.6,0.1-0.3c0.3,0.7,1,0.6,1-0.1c0-0.3-0.4-0.6-0.8-0.6c-0.4,0-0.8-0.2-0.8-0.4c0-0.2,0.4-0.3,0.8-0.2
		c0.4,0.1,1.2,0.3,1.7,0.5c1.3,0.4,1.8,1.1,1.5,1.9c-0.2,0.6,0.1,1,1.2,1.8c1.5,1.1,2.6,1.1,2.2,0.1c-0.2-0.5-0.1-0.5,0.7-0.1
		c0.5,0.3,1,0.6,1.1,0.6c0.1,0,0,0.3-0.1,0.5c-0.2,0.3-0.4,0.3-0.6-0.1c-0.5-0.8-1.3,0.2-1.3,1.5C23,1031.9,22.3,1032.1,20.5,1031.3
		L20.5,1031.3z M25.9,1031.2c-0.2-0.9,0.9-2,2-2c0.8,0,0.9-0.2,0.7-0.8c-0.2-0.6-0.1-0.8,0.6-0.8c1,0,1.1,0.9,0.2,1.6
		c-0.5,0.4-0.5,0.6,0.2,1.3c1.1,1,0.4,1.5-1.9,1.4C26.5,1031.8,26,1031.6,25.9,1031.2L25.9,1031.2z M29.4,1031.2
		c0.1-0.2,0-0.3-0.4-0.3c-0.3,0-0.5,0.1-0.4,0.3s0.3,0.3,0.4,0.3C29.1,1031.5,29.2,1031.4,29.4,1031.2z M31.8,1031.1
		c0.1-0.2,0.4-0.4,0.6-0.4s0.4,0.2,0.4,0.4s-0.3,0.4-0.6,0.4C31.8,1031.5,31.7,1031.4,31.8,1031.1z M72.5,1029.6
		c-0.4-0.3-0.3-0.4,0.3-0.5c0.6-0.1,0.7-0.1,0.6,0.3C73.1,1030,73.1,1030,72.5,1029.6z M42.5,1029.2c-0.3-0.1-0.5-0.4-0.5-0.7
		c0-0.3,0.2-0.6,0.5-0.7c0.3-0.1,0-0.4-0.6-0.7c-0.6-0.3-1.1-0.8-1.1-1.3c0-0.6,0.1-0.7,0.8-0.3c0.4,0.2,0.9,0.4,1.1,0.4
		c1-0.2,2.1,0.1,1.9,0.4c-0.1,0.2-0.5,0.3-0.8,0.2s-0.7,0-0.8,0.2c-0.1,0.2,0,0.5,0.4,0.7C44.6,1027.8,43.7,1029.7,42.5,1029.2
		L42.5,1029.2z M89.6,1029c-0.5-0.2-0.9-0.6-0.9-0.9c0-0.3-0.2-0.5-0.4-0.5s-0.3-0.4-0.2-0.9c0.1-0.6-0.2-1.1-0.8-1.6
		c-0.9-0.7-0.9-0.8-0.4-1.4c0.3-0.3,0.6-0.8,0.6-1c0-0.2,0.2-0.3,0.3-0.2s0.7,0,1.1-0.3c0.7-0.5,0.7-0.6-0.2-0.9
		c-0.5-0.2-1.1-0.3-1.3-0.2c-0.1,0.1-0.5-0.1-0.7-0.4c-0.3-0.3-0.7-0.6-1-0.6c-0.7,0-0.7-0.3,0-1c0.6-0.6,4.2-1.1,4.5-0.6
		c0.1,0.2,0.7,0.4,1.3,0.4h1.1l-0.9,0.6c-0.7,0.5-0.8,0.8-0.5,1.4c0.3,0.6,0.3,0.7-0.4,0.5c-0.6-0.2-0.8,0-0.8,0.9
		c0,0.8,0.2,1,0.6,0.9c0.6-0.2,1.6,0.6,1.2,1.1c-0.1,0.1-0.1,0.3,0.2,0.3c0.6,0,0.6,1.2-0.1,2.5c-0.7,1.4-0.7,1.5,0,1.5
		c0.3,0,0.5,0.2,0.4,0.6C91.9,1029.5,90.9,1029.6,89.6,1029L89.6,1029z M91,1027.3c0.1-0.4,0.2-0.7,0.1-0.9
		c-0.1-0.1-0.3,0.1-0.5,0.5c-0.1,0.4-0.4,0.5-0.7,0.4c-0.2-0.2-0.3-0.1-0.1,0.2C90.2,1028.1,90.7,1028,91,1027.3L91,1027.3z
		 M90.2,1020c-0.1-0.1-0.4,0-0.7,0.3c-0.4,0.4-0.3,0.4,0.2,0.2C90.1,1020.4,90.3,1020.1,90.2,1020z M33.8,1028.3
		c-0.1-0.2,0-0.4,0.2-0.4s0.3-0.2,0.2-0.4c-0.4-0.6-2.2-0.5-2.5,0.2c-0.3,0.7-1,0.4-0.9-0.3c0.1-1-0.1-1.9-0.4-1.7
		c-0.2,0.1-0.6-0.1-0.9-0.6c-0.3-0.4-0.8-0.8-1.2-0.8c-0.5,0-0.5-0.1,0-0.4c0.5-0.4,0.5-0.4,0-0.3c-0.3,0.1-0.7,0.6-0.8,1.1
		s-0.5,0.9-0.7,0.9c-0.3-0.1-0.4,0-0.4,0.2c0.2,1.2-0.1,1.4-1,0.7c-0.5-0.4-1-0.6-1-0.5c0,0.1-0.6-0.2-1.3-0.6
		c-0.7-0.4-1.8-1-2.3-1.2c-0.8-0.3-1-0.7-0.9-1.4c0.1-0.5-0.1-1.1-0.3-1.2c-0.6-0.4,0-0.9,0.9-0.7c0.6,0.2,0.7,0.3,0.4,0.7
		c-0.3,0.4-0.3,0.6,0.2,0.7c0.3,0.1,0.7,0.1,0.8,0c0.4-0.4,0.3-1.6-0.3-1.8c-0.3-0.1-0.4-0.3-0.3-0.4c0.5-0.5,1.6,0.2,1.4,0.9
		c-0.2,0.5-0.1,0.5,0.2,0.2c0.3-0.3,0.3-0.7,0-1.4c-0.4-0.8-0.4-0.9,0.1-0.5c0.6,0.5,2-0.2,2-1c0-0.3,0.2-0.4,0.4-0.2
		c0.2,0.1,0.3,0.5,0.2,0.7c-0.1,0.3,0.1,0.5,0.5,0.5c0.4,0,0.8-0.2,0.9-0.6c0.2-0.6,0.2-0.6,0.2,0c0,0.4,0.3,0.7,0.5,0.7
		c0.3,0,0.3,0.1-0.1,0.4c-0.3,0.2-0.8,0.3-1,0.1c-0.2-0.1-0.3,0-0.1,0.5c0.1,0.4,0.3,0.8,0.3,1c0,0.2,0.4,0.4,0.8,0.5
		c0.5,0.1,0.8,0,0.7-0.2c-0.2-0.6,1.4-2.1,2-2c0.3,0.1,0.5-0.1,0.5-0.3c0-0.6,1.3-0.5,2.1,0.2c0.6,0.6,0.7,0.7,0.1,1.1
		c-0.5,0.4-0.5,0.6,0,2.2c0.3,0.9,0.4,1.6,0.2,1.5c-0.2-0.1-0.2,0.1,0.1,0.6c0.6,0.9,2.8,1.6,3.1,0.9c0.1-0.2,0.3-0.4,0.5-0.4
		s0.3,0.2,0.1,0.4c-0.1,0.2,0,0.4,0.4,0.4s0.6,0.2,0.6,0.4c0,0.2-0.4,0.4-0.8,0.4s-0.8,0.2-0.8,0.4c0,0.2,0.3,0.3,0.8,0.2
		c0.5-0.2,0.8-0.1,0.8,0.2c0,0.2-0.2,0.3-0.4,0.2s-0.4-0.1-0.4,0.1C37.2,1028.7,34.1,1028.8,33.8,1028.3L33.8,1028.3z M62.8,1028.4
		c0-0.6,0.5-0.8,1-0.6c0.3,0.1,0.5,0.4,0.3,0.6C63.9,1028.8,62.8,1028.8,62.8,1028.4L62.8,1028.4z M93.7,1027.9
		c-1.3-0.5-1.1-0.8,0.3-0.7c0.7,0.1,1.2,0.3,1.2,0.6C95.2,1028.4,95,1028.4,93.7,1027.9z M51,1026.7c-0.1-0.2-0.2-0.5-0.1-0.6
		c0.1-0.1,0.3,0.1,0.4,0.4C51.6,1027.2,51.4,1027.3,51,1026.7z M85.6,1026.7c0-0.2,0.2-0.3,0.4-0.2c0.2,0.1,0.4,0.3,0.4,0.4
		c0,0.1-0.2,0.2-0.4,0.2C85.8,1027.1,85.6,1026.9,85.6,1026.7z M95.7,1026.5c-0.3-0.3-0.3-0.6-0.1-0.8c0.2-0.1,0.6,0,0.8,0.3
		C97,1026.8,96.3,1027.2,95.7,1026.5z M98.9,1026.6l-0.9-0.5l0.9-0.7l0.9-0.7l-0.9,0.3c-0.6,0.2-0.9,0.1-0.9-0.2
		c0-0.7-1-1.5-1.8-1.5c-0.4,0-0.8-0.2-0.9-0.7c-0.1-0.6,0-0.7,0.5-0.5c0.3,0.1,0.9,0,1.2-0.4c0.3-0.3,0.8-0.5,1-0.4
		c0.2,0.1,0.4,0,0.5-0.2c0.1-0.2,0.5-0.3,0.8-0.2c0.6,0.2,0.7,0.8,0.7,3.2c0,1.6,0,2.9-0.1,2.9C99.8,1027.1,99.4,1026.8,98.9,1026.6
		L98.9,1026.6z M61.6,1026.6c0-0.1,0.3-0.4,0.7-0.7c0.6-0.5,0.6-0.5,0.2,0.2C61.9,1026.7,61.6,1026.9,61.6,1026.6z M84,1025.3
		c0-0.5,0.1-0.6,0.2-0.2c0.1,0.3,0.1,0.6,0,0.8C84.1,1026,84,1025.7,84,1025.3L84,1025.3z M50.4,1025.3c-0.3-0.1-0.8-0.6-1.1-1.1
		c-0.4-0.8-0.3-1,0.1-1.2c0.9-0.3,0.9-0.3,0.9,0.5c0,0.4,0.3,0.9,0.6,1c0.3,0.1,0.6,0.4,0.6,0.6
		C51.6,1025.5,51.4,1025.6,50.4,1025.3z M66.1,1025.3c-0.3-0.1-0.5-0.5-0.5-0.8c0-0.3-0.2-0.6-0.5-0.6c-0.3,0-0.4-0.1-0.1-0.4
		c0.3-0.3,0.7-0.1,1.5,0.5c0.6,0.5,1.1,1.1,1.1,1.2C67.6,1025.6,66.8,1025.6,66.1,1025.3L66.1,1025.3z M78.3,1025.3
		c-0.4-0.1-0.7-0.3-0.7-0.6c0-0.2-0.3-0.4-0.7-0.4c-0.4,0-0.5-0.1-0.2-0.2c0.4-0.2,0.4-0.3,0.1-0.8c-0.4-0.5-0.3-0.6,0.4-0.6
		c0.5,0,0.9-0.2,1.1-0.4c0.3-0.5,1.4-0.5,1.4,0c0,0.2-0.2,0.3-0.4,0.2c-0.6-0.3-0.5,0,0.2,1.4c0.3,0.6,0.5,1.2,0.3,1.4
		C79.4,1025.5,79.4,1025.5,78.3,1025.3L78.3,1025.3z M79,1024.3c-0.1-0.2-0.5-0.4-0.7-0.4c-0.3,0-0.2,0.2,0.1,0.4
		C79.2,1024.8,79.3,1024.8,79,1024.3z M71,1024.3c-0.1-0.2-0.4-0.3-0.6-0.2s-0.6,0-0.9-0.2c-0.5-0.3-0.5-0.4,0.1-0.2
		c0.4,0.1,0.7,0.1,0.7-0.2c0-0.2,0.4-0.4,1-0.4c1.1,0,1.3,0.5,0.4,1.2C71.4,1024.6,71.2,1024.6,71,1024.3L71,1024.3z M81.2,1023.3
		c0-0.3-0.2-0.6-0.5-0.7c-0.3-0.1-0.1-0.2,0.4-0.2c0.5,0,1-0.2,1.1-0.4c0.1-0.2-0.1-0.3-0.5-0.2c-0.6,0.2-0.6,0.1,0.1-0.4
		c0.5-0.3,1.2-0.6,1.6-0.5c0.4,0.1,0.9,0.2,1.1,0.2c0.2,0,0.3,0.2,0.3,0.5c0,0.3-0.2,0.3-0.6-0.1c-0.5-0.4-0.6-0.4-0.4,0.2
		c0.1,0.4,0.1,0.7-0.2,0.7c-0.3,0-0.3,0.2-0.2,0.5c0.2,0.4,0.1,0.4-0.3,0c-0.6-0.4-0.6-0.4-0.5,0.2c0.1,0.5,0,0.7-0.6,0.7
		C81.6,1023.8,81.2,1023.5,81.2,1023.3L81.2,1023.3z M59.2,1023.2c-1.6-0.3-3.8-2.5-3.3-3.3c0.2-0.2,0-0.6-0.3-0.8
		c-0.4-0.3-0.4-0.4,0.1-0.2c0.4,0.1,0.8,0,1.1-0.2c0.5-0.5,1.4,0.2,1.7,1.3c0.1,0.3,0.5,0.6,1,0.6c2.5,0.1,2.5,0.1,2.5,1.6
		C61.9,1023.6,61.9,1023.6,59.2,1023.2z M2.9,1021.2c0.1-0.2-0.2-0.8-0.7-1.4c-1-0.9-1.4-1.8-0.6-1.3c0.2,0.1,0.3,0,0.1-0.4
		c-0.2-0.5-0.1-0.6,0.7-0.4c0.9,0.3,0.9,0.3,0.2-0.4c-0.7-0.7-0.6-0.8,0.6-2c1.3-1.2,1.9-1.4,4.6-1.1c0.7,0.1,0.2,1.2-0.8,1.5
		c-0.6,0.2-0.7,0.5-0.5,1.3c0.2,0.6,0.3,1.3,0.3,1.6s0.1,0.5,0.3,0.5c0.2,0,0.4,0.3,0.5,0.7c0.2,0.5,0.1,0.6-0.3,0.2
		c-0.5-0.4-0.6-0.3-0.5,0.2c0,0.6-0.3,0.7-1.6,0.8c-0.9,0-1.9,0.2-2.2,0.4C2.9,1021.5,2.8,1021.5,2.9,1021.2L2.9,1021.2z M15.4,1021
		c0.2-0.4,0.1-0.7-0.2-0.7c-0.4,0-0.4-0.2,0.1-0.7c0.5-0.6,0.4-0.6-0.4-0.4c-0.7,0.2-0.9,0.2-0.8-0.2c0.1-0.3,0-0.8-0.1-1.2
		c-0.2-0.4-0.1-0.6,0.2-0.6c0.3,0,0.4,0.2,0.3,0.5c-0.3,0.7,0.7,0.7,1.5,0c0.4-0.4,0.5-0.4,0.3,0.2c-0.1,0.4,0,0.7,0.2,0.7
		c0.3,0,0.7,0.5,0.9,1c0.4,0.9,0.4,1-0.4,1c-0.5,0-1.1,0.2-1.4,0.5C15.3,1021.6,15.2,1021.6,15.4,1021L15.4,1021z M69.1,1020.3
		c-0.1-0.4-0.1-0.8,0.1-0.8c0.1,0,0.5,0.4,0.8,0.8c0.4,0.7,0.4,0.8-0.1,0.8C69.5,1021.1,69.2,1020.8,69.1,1020.3z M38.5,1019.7
		c0.1-0.3,0-0.7-0.3-0.9c-0.5-0.3-0.4-0.4,0.2-0.8c0.4-0.3,0.8-0.3,0.8-0.1c0,0.2-0.2,0.5-0.5,0.6s-0.1,0.2,0.4,0.2
		c1.1,0,1.1,1.6,0,1.6C38.6,1020.3,38.4,1020.1,38.5,1019.7L38.5,1019.7z M20.2,1018.9c-0.1-0.5-0.6-0.9-1-1.1
		c-0.5-0.1-0.7-0.4-0.5-1.1c0.2-0.7,0.1-0.8-0.3-0.6c-0.4,0.2-0.4,0.1,0-0.6c0.4-0.7,0.4-0.8,0-0.6c-0.3,0.2-0.8,0-1.2-0.3
		c-0.4-0.3-1.1-0.6-1.5-0.5c-0.7,0.1-1.5-0.7-1.3-1.3c0.2-0.4-1.5-1.1-1.9-0.8c-0.3,0.3-1,0.1-2.1-0.3c-1.5-0.6-1.6-0.8-1-1.4
		c0.5-0.6,0.5-0.7-0.5-0.9c-0.7-0.2-1.2-0.1-1.3,0.2c-0.1,0.2-0.3,0.4-0.5,0.4s-0.3-0.3-0.1-0.6c0.3-0.8-0.6-2.3-1.4-2.1
		c-0.4,0.1-0.7-0.2-0.7-0.6c0-0.4-0.3-0.8-0.8-0.9c-0.4-0.1-0.9-0.3-1.1-0.6c-0.4-0.7,0.3-1.9,1.2-1.9c0.6,0,0.7-0.2,0.6-1.1
		c-0.1-0.6-0.3-1.1-0.6-1.1c-0.2,0-0.7-0.2-0.9-0.5c-0.6-0.6-2.6-0.7-3,0c-0.2,0.3-0.1,0.4,0.1,0.2c0.3-0.2,0.3,0.1,0,0.7
		c-0.4,0.8-0.5-0.2-0.6-5.5c-0.1-4.9,0-6.5,0.4-6.8c0.4-0.3,0.4-0.3,0-0.3c-0.3,0-0.5-0.2-0.5-0.4s0.2-0.3,0.4-0.2s0.4,0,0.4-0.3
		c0-0.6,1.5-2.5,1.7-2.2c0.1,0.1,0.4,0.6,0.6,1.1l0.5,0.9l0.8-0.9c0.9-1,1-1.6,0.3-1.6c-0.4,0-0.4-0.1,0-0.5
		c0.3-0.3,0.2-0.7-0.7-1.4c-0.6-0.5-1.3-0.9-1.6-0.9S2,982.2,2,982s-0.4-0.4-1-0.4c-0.7,0-1-0.2-1-0.8c0-0.8,0.6-1.1,1-0.5
		c0.3,0.4,1.6,0.3,2.3-0.2c1.1-0.9,1.5-0.9,2.1-0.3c0.5,0.5,0.5,0.7,0.2,1c-0.3,0.2,0.2,0.3,0.9,0.3c1.3,0,1.4-0.1,1.3-1.2
		c-0.2-1.3-0.6-2-0.6-0.9c0,0.4-0.6,0.1-1.9-1.1c-1.5-1.5-2.1-1.7-3-1.6c-0.8,0.2-1.2,0-1.7-0.7c-0.8-1.1-0.4-1.7,0.3-0.6
		c0.3,0.4,0.6,0.6,0.8,0.3c0.1-0.2,0.6-0.3,1-0.2c0.7,0.2,0.8,0.1,0.5-0.5c-0.2-0.6-0.2-0.7,0.3-0.2c0.6,0.5,1.6,0.7,1.5,0.2
		c-0.1-0.9,0.1-1.4,0.7-1.1c0.4,0.2,0.4-0.1-0.3-0.9c-0.5-0.6-1.1-1.4-1.3-1.8c-0.2-0.4-1.1-0.7-1.9-0.8c-1.4-0.2-1.4-0.1-1,0.8
		c0.2,0.5,0.6,0.8,0.9,0.7c0.2-0.1,0.1,0.1-0.3,0.6c-0.4,0.4-0.7,1-0.7,1.3c0,0.4-0.1,0.4-0.5,0.1c-0.3-0.3-0.5-1.5-0.6-2.6
		c-0.1-2.1-0.1-2.2,1.1-2.4c1.7-0.4,3.5,0.4,5.4,2.5c0.9,0.9,1.8,1.7,1.9,1.7c0.5,0,0.5-1.5-0.1-2.1c-0.4-0.5-0.4-0.7-0.1-0.7
		c0.3,0,0.4-0.2,0.3-0.4c-0.1-0.2-0.1-0.5,0.1-0.6c0.5-0.3,2,1.7,2,2.7c0,0.6,0.1,0.7,0.3,0.3c0.3-0.4,0.4-0.4,0.7,0
		c0.2,0.4,0.4,0.3,0.6-0.4c0.2-0.6,0.5-0.8,0.9-0.6c0.4,0.1,0.6,0,0.6-0.3c0-0.3,0.1-0.4,0.3-0.1c0.6,0.9,2.8,1.5,3.7,1
		c0.5-0.2,0.8-0.6,0.8-0.9s-0.2-0.3-0.4-0.2c-0.6,0.3-1.7-0.2-1.5-0.7c0.1-0.2-0.1-0.7-0.4-1c-0.3-0.3-0.5-0.4-0.5-0.2
		s-0.3,0-0.6-0.2c-0.4-0.3-0.5-0.7-0.2-1c0.4-0.5-0.9-1.6-1.3-1.1c-0.5,0.5-0.2,0.9,0.4,0.6c0.5-0.2,0.6-0.1,0.4,0.4
		c-0.1,0.4-0.3,1-0.3,1.4c0,0.5-0.4,0.7-1.6,0.8c-1.7,0.1-2.5-0.1-2.2-0.7c0.1-0.2,0.6-0.2,1.1,0c0.6,0.2,1.1,0.2,1.6-0.2
		c0.6-0.5,0.6-0.6-0.3-1.2c-0.6-0.4-1.2-0.5-1.5-0.4c-0.7,0.4-1.9,0.5-1.9,0.1c0-0.2,0.2-0.4,0.5-0.5c0.3-0.1,0.3-0.4,0.2-0.7
		c-0.5-0.8-1.9-1.2-2.9-0.8c-0.5,0.2-0.9,0.2-0.9-0.1c0-0.2-0.3-0.4-0.6-0.4c-0.3,0-0.7-0.2-0.9-0.4c-0.2-0.3,0-0.3,0.7-0.1
		c1.2,0.4,3.9,0.5,3.7,0.1c-0.1-0.2,0-0.3,0.3-0.3c0.3,0,0.4-0.3,0.2-0.6c-0.1-0.3-0.1-0.5,0.1-0.4s0.4-0.1,0.5-0.5
		c0.2-0.6,0.2-0.6,0.2,0c0,0.5,0.3,0.7,0.6,0.5c0.9-0.4,2.7,0.6,2.5,1.4c-0.2,0.7,0.2,0.9,1.3,0.7c0.4,0,0.5,0.2,0.3,0.6
		c-0.1,0.3-0.1,0.6,0,0.7c0.2,0,0.6,0.1,1,0.2c0.5,0.1,0.7,0,0.5-0.5c-0.5-1.2-0.4-1.5,0.3-1.4c0.4,0.1,0.7-0.1,0.7-0.3
		s-0.4-0.4-1-0.4c-0.6,0-1-0.2-0.9-0.5c0.1-0.3-0.2-0.5-0.8-0.4c-0.5,0.1-1-0.1-1.1-0.3c-0.1-0.2,0-0.4,0.4-0.4
		c0.3,0,0.6-0.2,0.6-0.4c0-0.4-0.8-0.6-2.1-0.5c-0.5,0-0.6-0.2-0.6-1c0-0.7,0.2-1,0.7-0.8c0.5,0.1,0.6-0.1,0.6-1.1
		c0-1.4-1.6-3.2-2.3-2.8c-0.3,0.2-0.4,0.1-0.2,0c0.1-0.2,0-0.6-0.4-1c-1.4-1.6-1-2,2.1-2c2.1,0,3.1,0.2,3.4,0.6
		c0.3,0.3,0.8,0.6,1.1,0.6c0.6,0,0.6,0.1,0.1,0.4c-0.3,0.2-0.4,0.4-0.1,0.4c0.3,0,0.6,0.3,0.7,0.7c0.2,0.5,0.2,0.6-0.4,0.2
		c-0.4-0.3-0.6-0.3-0.6-0.1c0,0.2,0.2,0.5,0.4,0.7c0.2,0.1,0.3,0.5,0.1,0.7c-0.2,0.3-0.1,0.3,0.4,0c0.5-0.4,0.7-0.4,1.3,0.1
		c0.4,0.4,0.6,0.4,0.6,0.2s0.2-0.4,0.4-0.4c0.7,0,0.4,1-0.4,1.5c-0.5,0.3-0.9,0.3-1,0.1c-0.3-0.5-1-0.5-1,0c0,0.2,0.3,0.4,0.6,0.4
		c0.3,0,0.6,0.2,0.6,0.5c0,0.4,0.1,0.4,0.3,0c0.3-0.5,2.2-0.5,2.7,0c0.1,0.1,0.7,0,1.3-0.3c0.6-0.3,1.2-0.5,1.3-0.4
		c0.2,0.1,0.5-0.1,0.8-0.5c0.5-0.6,0.5-0.6-0.1-0.4c-0.8,0.3-2.3-1.5-2.3-2.7c0-0.7,1.1-0.9,1.3-0.2c0.1,0.2,0.9,0.4,1.8,0.4
		c0.9,0,1.8,0.1,1.9,0.4s0.7,0.4,1.2,0.4c0.8,0,0.9,0.1,0.6,0.7c-0.3,0.5-0.3,0.9,0.1,1.2c0.6,0.6,0.1,0.6-1,0
		c-0.7-0.4-0.8-0.4-0.4,0.4c0.4,0.7,0.3,0.8-0.3,1.1c-0.5,0.2-0.7,0.5-0.6,0.8c0.4,1-0.6,1.8-2.1,1.6c-0.7-0.1-1.4,0-1.4,0.2
		s0.2,0.4,0.4,0.4c0.2,0,0.4,0.2,0.4,0.4s-0.3,0.3-0.6,0.2c-0.4-0.2-0.6,0-0.6,0.6c0,0.5-0.2,0.9-0.4,1.1s-0.4,0.1-0.3-0.1
		c0.1-0.2-0.1-0.3-0.3-0.3c-0.2,0-0.3,0.2-0.3,0.4s0,0.6-0.2,1c-0.5,1.1-0.6,2.1-0.2,1.9c0.7-0.4,0.9,1.1,0.3,1.6
		c-0.3,0.2-0.6,0.7-0.6,0.9c0,0.6,1.5,0.6,1.7,0c0.3-0.8,1.1,0,1.1,1c0,0.5,0.4,1.2,0.8,1.6c0.4,0.4,0.8,0.9,0.8,1.2
		c0,0.2-0.3,0.1-0.6-0.3c-0.3-0.4-0.8-0.6-1.2-0.5c-0.3,0.1-0.6,0.1-0.6-0.1c0-0.2-0.5-0.4-1-0.4c-0.6,0-0.9-0.2-0.7-0.4
		c0.2-0.3-0.1-0.4-1-0.2c-0.9,0.2-1.2,0.2-1-0.2c0.2-0.2,0.4-0.3,0.6-0.2c0.2,0.1,0.3-0.1,0.1-0.4c-0.2-0.5-0.3-0.5-0.6-0.1
		c-0.2,0.3-0.5,0.4-0.6,0.2c-0.5-0.5-1.3,0.5-1.1,1.3c0.2,0.7,0.4,0.8,1.1,0.8c0.5,0,1.7,1.8,1.4,2.2c-0.5,0.5,0.7,1.8,1.6,1.9
		c0.4,0,0.2,0.2-0.4,0.5c-0.7,0.3-1,0.7-0.9,1.2c0.1,0.5,0,0.6-0.4,0.4c-0.3-0.2-1.2-0.4-2-0.4c-1.3,0-1.4,0-0.9,0.5
		c0.3,0.3,1.1,0.6,1.6,0.6c0.6,0,1.1,0.3,1.3,0.6c0.1,0.3,0.5,0.5,0.8,0.4c0.3-0.1,0.5,0,0.5,0.2s0.3,0.4,0.8,0.4c1,0,1.3,1.3,0.5,2
		c-0.5,0.4-0.6,0.4-0.9,0c-0.2-0.4-0.4-0.4-0.6-0.1c-0.2,0.2-0.1,0.4,0.1,0.4s0.4,0.3,0.4,0.6s0.4,0.6,0.9,0.7
		c0.8,0.2,0.8,0.2,0.1,0.2c-0.5,0-1.5-0.6-2.5-1.5c-1.7-1.7-3.5-2.2-3-0.9c0.2,0.4,0.3,0.5,0.4,0.2c0.2-0.7,0.9-0.2,0.9,0.7
		c0,0.4,0.3,0.8,0.6,1c0.3,0.1,0.5,0.4,0.4,0.6s0,0.4,0.3,0.5c0.4,0.1,0.4,0.4,0,1.5c-0.4,1.1-0.4,1.2,0.1,0.8
		c0.4-0.3,0.6-0.3,0.8,0c0.2,0.3-0.2,0.6-1,0.9c-0.7,0.3-1.2,0.6-1.2,0.8c0,0.5,0.8,0.8,1.3,0.5c0.3-0.2,0.8-0.3,1.2-0.2
		c0.4,0.1,0.7-0.1,0.7-0.3c0-0.3,0.2-0.3,0.5-0.1c0.3,0.2,0.8,0.3,1.2,0.4c1.1,0.1,0.7-1.3-0.5-1.8c-0.6-0.3-1.1-0.7-1.1-1.1
		c0-0.5,0.1-0.5,0.5,0.1c0.3,0.5,0.7,0.6,1.1,0.4c0.4-0.2,0.4-0.4-0.1-0.7c-0.4-0.2-0.7-0.6-0.7-0.8c0-0.3,0.2-0.3,0.5,0
		c0.5,0.4,0.8,0.4,2.5-0.2c0.4-0.2,1.5-0.4,2.3-0.4c1.3-0.1,1.4-0.1,1.3,0.6c-0.1,0.5,0,0.8,0.3,0.8c0.3,0,0.3,0.2,0.2,0.5
		c-0.2,0.3,0.1,0.2,0.5-0.2c0.4-0.4,1.3-0.7,1.8-0.7c1.7,0,3.5,0.5,3.3,0.8c-0.4,0.6,0.5,0.4,1-0.2c0.6-0.8,1-0.8,1.8,0.1
		c0.4,0.4,1.3,0.7,2.1,0.7c0.8,0,1.6,0.3,1.9,0.6c0.4,0.4,0.4,0.4,0,0.2c-0.3-0.2-0.5,0-0.5,0.4c0,0.5-0.3,0.6-1,0.5
		c-0.7-0.1-1.1,0-1.2,0.4c-0.1,0.3-0.4,0.6-0.6,0.6s-0.3-0.2-0.1-0.4c0.1-0.2,0-0.4-0.4-0.4c-0.5,0-0.6,0.2-0.2,0.8
		c0.2,0.4,0.7,0.8,1,0.8c0.5,0,1,0.8,1,1.6c0,0.2-0.3,0.4-0.7,0.4c-0.6,0-0.6,0.1-0.1,0.4c0.3,0.2,0.4,0.6,0.3,0.8s-0.1,0.7,0.2,1
		c0.3,0.3,0.4,0.8,0.3,1.2c-0.2,0.6,1.1,1.3,2.1,1.1c0.3-0.1,0.8,0.2,1.1,0.5c0.3,0.5,0.6,0.5,0.8,0.2c0.2-0.3,0.1-0.6-0.2-0.8
		c-0.3-0.2-0.4-0.5-0.2-0.8c0.2-0.3,0.1-0.4-0.2-0.4c-1.3,0.2-1.5,0-1.1-1c0.6-1.6,0.5-2.5-0.3-2.4c-0.4,0-0.7-0.3-0.8-0.7
		c-0.1-0.8-0.1-0.8,0.4,0c0.6,0.7,0.6,0.7,1.5-0.3c0.5-0.6,1.2-1.1,1.4-1.1s0.6-0.2,0.7-0.5c0.2-0.4,0.3-0.4,0.6,0.1
		c0.2,0.3,0.7,0.4,1,0.3c0.4-0.2,0.6,0,0.7,0.4c0,0.6,0.1,0.6,0.6-0.1c0.5-0.7,0.6-0.7,0.9,0.4c0.2,0.7,0.1,1.2-0.2,1.3
		c-0.6,0.2-0.6,0.9,0,0.8c0.7-0.1,0.6,1-0.1,1.6c-0.5,0.5-0.5,0.5,0.1,0.3c0.4-0.1,0.9,0.1,1.1,0.4c0.3,0.3,0.4,0.6,0.2,0.6
		c-0.1,0,0,0.4,0.2,0.9c0.3,0.5,0.5,1,0.4,1.2c0,0.2,0.1,0.3,0.3,0.3c0.7,0,0.2,1.4-0.9,2.5c-1,1-1,1.2-0.6,1.9c0.3,0.4,1,1,1.6,1.3
		c0.6,0.3,1,0.6,0.9,0.8c-0.1,0.2,0,0.3,0.3,0.3c0.4,0,0.4,0.1-0.1,0.5c-1.1,0.9-0.4,2.7,1.1,2.7c0.5,0,1,0.2,1,0.4
		c0,0.2-0.3,0.3-0.7,0.1c-0.6-0.2-0.5-0.1,0.1,0.5c0.7,0.7,0.8,0.7,1.3,0.2c0.3-0.3,0.5-0.9,0.5-1.2c0-0.5-0.1-0.5-0.3,0
		c-0.3,0.4-0.4,0.4-0.5-0.2c-0.1-0.4,0.1-0.9,0.6-1.2c0.7-0.4,0.7-0.5-0.1-1.3l-0.8-0.9l1.4-0.8c0.8-0.5,1.3-1,1.2-1.2
		c-0.4-0.6,0.2-0.4,0.9,0.2c0.8,0.8,1.8-0.1,1.3-1.1c-0.4-0.8,0.6-2.1,1.3-1.7c0.2,0.2,0.3,0.1,0.2-0.2c-0.1-0.2-0.1-0.5,0.1-0.7
		c0.2-0.1,0.4-0.6,0.4-1.1c0-0.7,0.1-0.7,0.5-0.4c0.6,0.6,1.1,0.6,1.1,0c0-0.5-2.5-2.3-3.3-2.3c-0.3,0-0.4-0.1-0.2-0.3
		c0.1-0.1,0.1-0.5-0.2-0.8s-0.3-0.7-0.2-0.8c0.1-0.1,0.1-0.7-0.1-1.2c-0.2-0.6-0.2-1,0-1c0.7,0,0.4-0.7-0.4-0.9
		c-0.6-0.1-0.8,0-0.8,0.5c0,0.4-0.1,0.5-0.2,0.2c-0.1-0.3-0.5-0.5-0.8-0.5c-0.3,0-0.6-0.2-0.6-0.4s0.2-0.3,0.4-0.2s0.4-0.1,0.4-0.5
		c0-0.6,0.1-0.6,0.3-0.2c0.3,0.4,0.6,0.4,1.6-0.1c1.8-0.9,2.6-0.9,2.1,0.2c-0.3,0.6-0.3,0.8,0.2,0.8c0.3,0,1,0.4,1.5,0.8
		c0.8,0.7,0.8,0.8,0.2,1c-0.4,0.1-0.9,0-1.3-0.2c-0.7-0.6-1.8-0.3-1.8,0.5c0,0.4,0.1,0.4,0.3,0c0.2-0.4,0.5-0.3,1,0
		c0.4,0.3,0.6,0.6,0.4,0.8s0.1,0.2,0.6,0.1c0.6-0.2,0.8-0.1,0.7,0.3c-0.1,0.3,0,0.6,0.3,0.6c0.3,0,0.4,0.2,0.2,0.4
		c-0.1,0.2,0.1,0.4,0.6,0.4c0.5,0,0.9,0.3,1.1,0.6c0.1,0.3,0.5,0.6,0.8,0.6s0.6,0.2,0.6,0.4s0.2,0.3,0.4,0.2
		c0.5-0.3,2.5,1.8,2.3,2.4c-0.1,0.3,0.2,0.6,0.8,0.8c0.7,0.2,0.9,0.5,0.6,0.9c-0.3,0.5-0.4,0.5-0.8,0c-0.6-0.9-0.9-0.2-0.4,0.8
		c0.4,0.7,0.4,1,0,1.2c-0.3,0.2-0.4,0.4-0.3,0.6c0.1,0.2-0.3,0.5-0.8,0.6c-0.6,0.2-0.9,0.2-0.9-0.1c0-0.2-0.2-0.3-0.4-0.2
		c-0.2,0.1-0.5,0-0.6-0.3s-0.1-0.1,0,0.4c0.3,1.1-0.5,1.6-1,0.6c-0.3-0.5-0.7-0.7-1.3-0.6c-0.5,0.1-1,0-1.2-0.3
		c-0.3-0.5-0.4-0.5-0.9,0c-0.3,0.3-0.8,0.9-1.3,1.2c-0.7,0.5-0.8,0.5-0.5-0.1c0.2-0.5,0.1-0.7-0.4-0.7c-0.5,0-0.6,0.3-0.4,1
		c0.1,0.6,0,1.1-0.2,1.2c-0.2,0.1-0.2,0.4-0.1,0.6c0.1,0.2,0.4,0.3,0.6,0.2c0.2-0.1,0.5,0.1,0.6,0.6c0.2,0.6,0.5,0.7,1.6,0.6
		c1.2-0.1,1.4,0,1.6,0.8c0.1,0.5,0.4,1,0.6,1c0.2,0,0.4,0.3,0.4,0.7c0,0.6,0.1,0.6,0.8-0.2c0.6-0.7,0.8-0.8,1.2-0.4
		c0.2,0.3,0.3,0.9,0.2,1.2c-0.1,0.4-0.1,0.8,0.2,1c0.3,0.2,0,0.7-1,1.4c-0.9,0.7-1.4,1.3-1.2,1.7c0.2,0.4,0,0.4-0.8-0.1
		c-0.5-0.4-0.9-0.8-0.8-1c0.1-0.2-0.2-0.4-0.6-0.4c-0.7,0-0.8-0.2-0.7-1.2c0.1-1,0-1.3-0.9-1.8c-0.6-0.3-1.5-0.5-1.9-0.5
		c-0.8,0.1-1,0.6-0.8,2.2c0,0.2-0.3,0.4-0.7,0.6c-0.7,0.3-0.7,0.3,0,0.3c0.5,0,0.7,0.3,0.6,0.9c-0.1,0.5-0.4,0.9-0.6,0.8
		c-0.3-0.1-0.6,0.2-0.7,0.5c-0.1,0.3-0.5,0.5-0.8,0.4c-0.3-0.1-0.5-0.4-0.3-0.6c0.1-0.2,0.1-0.3-0.1-0.3c-1,0.2-2.1-0.1-1.9-0.4
		c0.1-0.2,0-0.4-0.2-0.4c-0.6,0-1.6-1-1.6-1.6c0-0.4-1.1-0.6-2.7-0.5c-0.6,0-0.8-0.1-0.7-0.3c0.1-0.2,0-0.4-0.4-0.4
		c-0.3,0-0.6,0.2-0.6,0.4c0,0.3-0.2,0.3-0.6-0.1c-0.9-0.7-3.8-0.9-3.8-0.2c0,0.4,0.4,0.5,1.4,0.3c1-0.1,1.4-0.1,1.2,0.2
		c-0.2,0.2,0,0.4,0.4,0.4c0.3,0,0.6,0.3,0.6,0.6c0,0.5-0.3,0.6-1.2,0.4c-0.9-0.2-1.2-0.1-1.2,0.3c0,0.3-0.1,0.8-0.1,1.1
		c-0.1,0.3-0.1,0.4,0,0.2c0.1-0.2,0.5-0.3,0.9-0.3c0.4,0,0.9-0.2,1-0.4c0.1-0.2,0.5-0.4,0.7-0.4c0.3,0,0.3,0.1,0,0.3
		c-0.3,0.2-0.4,0.6-0.3,1c0.3,0.7-0.4,1.3-0.8,0.7c-0.1-0.2-0.4-0.3-0.7-0.2c-0.5,0.3-3.1,0.4-3.1,0.2c0-0.1,0.2-0.4,0.5-0.7
		c0.4-0.4,0.2-0.6-0.6-0.9c-0.6-0.2-1.1-0.6-1.1-0.8s-0.6-0.3-1.4-0.3c-0.9,0.1-1.4-0.1-1.6-0.4c-0.1-0.3-0.5-0.4-0.8-0.3
		c-0.4,0.2-0.6,0-0.6-0.4c0-0.4-0.2-0.5-0.7-0.4c-0.5,0.2-0.6,0.1-0.4-0.4c0.2-0.4,0-0.7-0.5-0.9c-0.4-0.1-0.8-0.4-0.8-0.5
		c0-0.2-0.5-0.8-1-1.4c-1-1.1-1-1.1-1-0.2c0,0.5,0.3,1.2,0.6,1.6c0.6,0.7,0.6,0.7-0.2,0.5c-0.5-0.1-0.8-0.5-0.8-0.8
		c0-1-1.7-2.7-2.7-2.7c-0.5,0-0.8-0.1-0.7-0.3s0.4-0.2,0.7-0.1c0.3,0.1,0.2,0-0.1-0.4c-0.9-0.9-2.6-1.3-2.3-0.6
		c0.1,0.3,0.4,0.5,0.7,0.4c0.4-0.1,0.5,0,0,0.4c-0.7,0.7-0.6,1.1,0.1,1.1c0.3,0,0.6,0.2,0.6,0.4s-0.2,0.4-0.5,0.4s-0.1,0.3,0.3,0.6
		c0.6,0.5,0.6,0.6,0.2,0.6c-0.3,0-0.9,0.4-1.2,0.8c-0.7,1-2.5,2-3,1.6c-0.2-0.1-0.4-0.6-0.5-1c-0.1-0.6,0.2-0.7,1.3-0.7
		c1.2,0,1.4-0.1,1.2-0.6c-0.1-0.3-0.2-0.7-0.2-0.8s-0.3-0.2-0.6-0.2s-0.7-0.2-0.9-0.5c-0.2-0.3-0.1-0.4,0.2-0.2
		c0.3,0.2,0.4,0.1,0.2-0.3c-0.3-0.7-1.8-0.9-1.8-0.2c0,0.2,0.3,0.7,0.6,1c0.7,0.7,0.8,1.5,0.2,1.1c-0.2-0.1-0.4-0.1-0.4,0.1
		c0,0.5-2.4,0.2-3-0.4c-0.3-0.3-0.3-0.4,0.1-0.1c0.4,0.2,0.5,0.2,0.3-0.3c-0.2-0.4-0.1-0.6,0.3-0.4c0.3,0.1,0.8-0.2,1-0.7
		c0.3-0.5,0.3-0.8,0.1-0.6c-0.2,0.1-1-0.5-1.8-1.4c-1.7-1.9-2.1-2-2.8-0.6c-0.4,0.9-0.3,1.1,0.6,2c1.1,1,1.7,2.7,1.3,3.4
		c-0.1,0.2,0.3,1,1,1.6c0.7,0.7,1.1,1.2,1,1.2s-0.1,0.2,0.1,0.5c0.3,0.3,0.3,0.7,0.1,1.1c-0.2,0.3-0.2,0.9,0.1,1.3
		c0.3,0.6,0.3,0.9-0.2,1.4C20.4,1019.7,20.4,1019.7,20.2,1018.9L20.2,1018.9z M40.5,1012.3c-0.2-0.8-0.6-1-1-0.5
		c-0.2,0.2,0.7,1.2,1.2,1.3C40.7,1013.1,40.6,1012.8,40.5,1012.3z M37,1011.3c-0.5-0.5-0.6-0.6-0.6-0.1c0,0.3,0.2,0.7,0.5,0.8
		C37.7,1012.3,37.7,1012,37,1011.3L37,1011.3z M12.4,1009.8c0-0.8-0.6-0.2-0.7,0.6c-0.1,0.7,0,0.8,0.3,0.3
		C12.2,1010.4,12.4,1010,12.4,1009.8L12.4,1009.8z M44.6,1009.8c1.4-0.3,1.3-0.8-0.5-2.7c-2-2.1-2.5-2.3-1.7-0.7
		c0.4,0.9,0.4,0.9-0.2,0.1c-0.5-0.7-0.7-0.7-1-0.2c-0.2,0.3-0.3,0.7-0.2,0.9c0.1,0.2-0.1,0.2-0.5,0.1c-0.6-0.2-0.6-0.1,0.2,0.6
		c0.5,0.5,1.1,0.9,1.4,0.9c0.3,0,0.4,0.1,0.2,0.2c-0.4,0.4,0.7,1.3,1.3,1.1C43.9,1010,44.4,1009.8,44.6,1009.8L44.6,1009.8z
		 M57.6,1009.4c0-0.1-0.2-0.3-0.4-0.4s-0.4-0.1-0.4,0.2c0,0.2,0.2,0.4,0.4,0.4S57.6,1009.5,57.6,1009.4z M47.7,1008.7
		c-0.4-0.4-0.6-0.4-1,0c-0.4,0.4-0.3,0.5,0.5,0.5S48.1,1009,47.7,1008.7z M15.1,1007.2c0.1-0.3-0.1-0.5-0.3-0.5
		c-0.3,0-0.4-0.1-0.2-0.3c0.3-0.3-1.7-1.7-2.4-1.7c-0.3,0-0.5,0.4-0.5,0.8c0,0.4,0.2,0.8,0.4,0.8c0.2,0,0.4,0.3,0.2,0.8
		c-0.2,0.6,0,0.7,1.2,0.7C14.3,1007.7,15,1007.5,15.1,1007.2z M35.5,1007c0.1-0.6-0.3-0.9-1.2-0.7c-0.2,0-0.1-0.3,0.1-0.7
		c0.3-0.6,0.3-0.8-0.2-1c-0.3-0.1-0.8-0.2-1,0c-0.2,0.1-0.2-0.1-0.1-0.5c0.1-0.6-0.1-0.9-1.1-1.2c-1.6-0.6-1.6-0.6-1.6,0.3
		c0,0.4,0.2,0.8,0.4,0.8c0.2,0,0.3,0.3,0.1,0.7c-0.2,0.4-0.1,0.6,0.2,0.4c0.5-0.3,1.8,2,1.5,2.5c-0.1,0.2,0.5,0.3,1.3,0.2
		C34.9,1007.7,35.4,1007.4,35.5,1007L35.5,1007z M38.2,1006.8c-0.3-0.3-0.9-0.5-1.3-0.3c-0.6,0.2-0.6,0.3-0.2,0.6
		c0.3,0.2,0.9,0.3,1.3,0.3C38.7,1007.4,38.7,1007.3,38.2,1006.8z M22.8,1006.5c0-0.3-0.2-0.6-0.4-0.6s-0.3,0.3-0.2,0.6
		c0.1,0.3,0.3,0.6,0.4,0.6C22.7,1007.1,22.8,1006.9,22.8,1006.5z M47,1006.3c-0.4-0.6-1-0.4-0.7,0.2c0.1,0.3,0.4,0.5,0.6,0.4
		C47,1006.8,47.1,1006.5,47,1006.3z M48.9,1005.9c0-0.2,0.1-0.6,0.1-0.9c0-0.3,0.2-0.6,0.3-0.7c0.1-0.1-0.2-0.7-0.7-1.3
		c-0.5-0.6-1-1-1-0.8c0,0.2-0.3-0.1-0.6-0.5c-0.6-0.8-0.6-0.8-0.4,0.1c0.2,0.7-0.1,1-1,1.4c-1.4,0.6-1.5,0.8-0.8,1.9
		c0.4,0.6,0.8,0.7,1.8,0.5c0.8-0.1,1.3-0.1,1.3,0.2C48,1006.4,48.8,1006.5,48.9,1005.9L48.9,1005.9z M47.6,1004.1
		c0-0.3,0.2-0.6,0.4-0.6c0.2,0,0.3,0.3,0.2,0.6c-0.1,0.3-0.3,0.6-0.4,0.6S47.6,1004.5,47.6,1004.1z M23.1,1005.5
		c0.3,0,0.5-0.2,0.3-0.4c-0.1-0.2-0.4-0.3-0.6-0.2s-0.4,0-0.4-0.2c0-0.8-1-1.5-1.6-1.2c-0.5,0.3-0.5,0.5,0,1.4
		c0.3,0.6,0.8,1,1.1,0.8C22.2,1005.6,22.7,1005.5,23.1,1005.5z M37.8,1005.6c0.3-0.4-0.9-0.8-1.7-0.5c-0.3,0.1-0.5,0.3-0.5,0.5
		C35.6,1006,37.5,1006.1,37.8,1005.6L37.8,1005.6z M42.4,1002.9c0.7,0.4,0.5-0.4-0.2-1c-0.5-0.4-0.6-0.4-0.6,0.2
		c0,0.6-0.5,0.8-1.3,0.7c-0.2,0-0.2,0.2-0.1,0.6c0.2,0.5,0.3,0.5,1,0C41.6,1003,42.1,1002.8,42.4,1002.9z M67.2,1002.5
		c-0.3-0.3-0.7-0.6-1-0.6s-0.6-0.4-0.8-0.8c-0.2-0.5-0.6-0.8-1.2-0.8c-0.5,0-1-0.2-1.1-0.5c-0.1-0.4-0.2-0.4-0.2,0
		c0,0.3,0.1,0.6,0.4,0.7c0.6,0.4,0.5,1.1-0.2,0.9c-0.5-0.2-0.5-0.1-0.1,0.5c0.3,0.4,0.9,0.7,1.7,0.7c0.7,0,1.3,0.2,1.4,0.4
		c0.1,0.2,0.5,0.3,0.9,0.2C67.4,1003.1,67.5,1002.9,67.2,1002.5L67.2,1002.5z M64,1001.6c0-0.2,0.2-0.5,0.4-0.6s0.4,0,0.4,0.4
		c0,0.3-0.2,0.6-0.4,0.6C64.2,1001.9,64,1001.8,64,1001.6z M45.6,1001.3c0-0.5,0.2-1,0.4-1s0.1-0.3-0.3-0.7
		c-0.6-0.6-0.8-0.6-1.2-0.2c-0.7,0.7-0.6,1.5,0.1,2.1c0.3,0.3,0.5,0.7,0.3,0.9c-0.1,0.2-0.1,0.3,0.2,0.1
		C45.4,1002.4,45.6,1001.9,45.6,1001.3z M28.8,996.7c0-0.2-0.1-0.4-0.2-0.4c-0.1,0-0.3,0.2-0.4,0.4s-0.1,0.4,0.2,0.4
		C28.6,997.1,28.8,997,28.8,996.7z M45.2,995.8c-0.4-0.4-0.4-0.3-0.2,0.2c0.2,0.4,0.4,0.6,0.5,0.5S45.5,996.1,45.2,995.8z
		 M25.6,994.8c0-0.2-0.3-0.3-0.7-0.2c-0.4,0.1-0.8,0.2-0.9,0.2s0.1,0.2,0.4,0.4C25,995.5,25.6,995.3,25.6,994.8z M20,994.4
		c0-0.1-0.4-0.7-0.9-1.2c-0.7-0.8-0.8-0.9-0.2-0.7c0.8,0.3,1-0.3,0.2-0.8c-0.3-0.2-0.2-0.4,0.2-0.6c1.1-0.6-0.3-2.3-1.8-2.2
		c-1.1,0-1.1,0.1-0.6,0.7c0.8,0.9,0.8,1.8,0,1.5c-0.4-0.1-0.5-0.1-0.4,0.2c0.1,0.2,0.5,0.4,0.8,0.4c0.4,0,0.5,0.3,0.2,1.1
		c-0.4,1.2-0.1,1.8,0.8,2.1C19,995,20,994.8,20,994.4L20,994.4z M35.7,994.4c-0.1-0.4-0.5-1-0.8-1.2c-0.4-0.4-0.6-0.3-0.6,0.3
		c0,0.8,0.7,1.7,1.2,1.7C35.8,995.1,35.8,994.8,35.7,994.4L35.7,994.4z M24.8,993c0-0.1-0.3-0.3-0.6-0.4c-0.4-0.1-0.5-0.1-0.4,0.2
		C24,993.1,24.8,993.3,24.8,993L24.8,993z M31.3,989.1c-0.2-0.6-0.3-0.7-0.5-0.3c-0.3,0.6-0.1,1.2,0.4,1.2
		C31.4,989.9,31.4,989.6,31.3,989.1z M26.4,989.4c0-0.1-0.2-0.3-0.4-0.4s-0.4-0.1-0.4,0.2s0.2,0.4,0.4,0.4S26.4,989.5,26.4,989.4z
		 M16.8,988c0-0.5-0.8-1-1.1-0.7c-0.3,0.3,0.2,1.1,0.7,1.1C16.6,988.3,16.8,988.2,16.8,988z M38.1,987.7c-0.1-0.3-0.3-0.5-0.4-0.4
		s-0.1,0.4,0.1,0.6C38.2,988.6,38.4,988.4,38.1,987.7z M11.6,986.4c0-0.6-0.8-1.4-1.4-1.5c-1-0.1-1.2,0.5-0.2,0.8
		c0.4,0.1,0.8,0.4,0.8,0.6s0.2,0.4,0.4,0.4C11.4,986.7,11.6,986.6,11.6,986.4L11.6,986.4z M13.6,980.7c0-0.2-0.2-0.3-0.4-0.2
		s-0.4,0.4-0.4,0.6s0.2,0.3,0.4,0.2C13.4,981.2,13.6,980.9,13.6,980.7z M11.7,979.8c-0.4-0.5-0.3-0.6,0.3-0.8
		c0.4-0.1,0.8-0.4,0.8-0.6c0-0.4-2.3-1.5-3.4-1.6c-0.5,0-1-0.2-1.3-0.3c-0.6-0.3-0.6,1-0.1,1.6c0.2,0.2,0.4,0.8,0.5,1.4
		c0.1,0.6,0.4,1.1,0.9,1.1c0.4,0.1,0.7-0.1,0.6-0.4c-0.1-0.6,0.9-2.3,1.4-2.3c0.2,0,0.1,0.3-0.1,0.6c-0.3,0.4-0.4,0.8-0.1,1.3
		c0.2,0.4,0.4,0.9,0.3,1c-0.1,0.1,0.1,0.1,0.3-0.1C12,980.5,12,980.2,11.7,979.8L11.7,979.8z M16,977.7c0.4,0.4,0.4,0.3,0.2-0.2
		c-0.3-0.7,0.4-1,0.8-0.3c0.1,0.2,0.5,0.3,0.8,0.2c0.3-0.1,0.7,0,0.8,0.2c0.5,0.8,1.1,0.5,0.6-0.4c-0.3-0.5-0.3-0.8,0-0.8
		c0.2,0,0.4-0.2,0.4-0.4c0-0.3-0.4-0.4-1-0.3c-0.5,0.1-1,0-1-0.1c0-0.2-0.4-0.4-0.9-0.6c-0.5-0.2-1.2-0.6-1.6-0.9s-0.8-0.5-0.9-0.4
		c-0.1,0.1,0.1,0.4,0.6,0.7c0.5,0.2,0.8,0.8,0.8,1.3s-0.2,0.7-0.4,0.6c-0.2-0.1-0.4,0.1-0.4,0.6s-0.2,0.8-0.4,0.8
		c-0.2,0-0.3,0.2-0.1,0.5c0.2,0.3,0.4,0.3,0.8-0.2C15.4,977.3,15.6,977.3,16,977.7L16,977.7z M8.8,975.8c0-0.2,0.2-0.2,0.4,0.1
		c0.3,0.4,0.4,0.4,0.4,0.1c0-0.3,0.3-0.5,0.7-0.5c0.6,0,0.6,0,0-0.7c-0.5-0.5-0.8-0.6-1.2-0.2c-0.3,0.3-1,0.5-1.5,0.6
		c-0.5,0.1-1,0.2-1.1,0.2c-0.1,0,0,0.2,0.1,0.4C6.9,976.4,8.8,976.3,8.8,975.8z M13.1,974.2c-0.8-0.8-1.2-0.2-0.6,1.2
		c0.4,1.1,0.5,1.1,0.9,0.3C13.6,975,13.6,974.6,13.1,974.2z M20.8,975c0.4-0.5,0.4-0.6-0.1-0.6c-0.3,0-0.6,0.3-0.6,0.6
		s0,0.6,0.1,0.6S20.5,975.3,20.8,975z M6.3,974.7c-0.1-0.3-0.4-0.5-0.6-0.6c-0.3-0.1-0.4,0.1-0.2,0.5C5.7,975.2,6.5,975.4,6.3,974.7
		L6.3,974.7z M19.6,975c0-0.1-0.2-0.3-0.4-0.4s-0.4-0.1-0.4,0.2s0.2,0.4,0.4,0.4C19.4,975.2,19.6,975.1,19.6,975z M22,967.2
		c-1.4-1.4-3.6-0.5-2.4,1c0.4,0.5,0.4,0.6,0,0.6c-0.3,0-0.4,0.1-0.3,0.2c0.4,0.4,1.5-0.3,1.3-0.7c-0.2-0.2-0.1-0.3,0.2-0.1
		c0.3,0.2,0.5,0.6,0.5,0.9c0,0.5,0.2,0.4,0.7-0.3C22.6,967.9,22.6,967.8,22,967.2L22,967.2z M18.8,966.8c0-0.2-0.2-0.4-0.4-0.4
		c-0.2,0-0.3,0.2-0.2,0.4s0.3,0.4,0.4,0.4C18.7,967.2,18.8,967,18.8,966.8z M20.4,962.4c-0.6-1.1-0.9-1.2-1.6-0.8
		c-0.4,0.3-0.4,0.4-0.1,0.4c0.3,0,0.4,0.2,0.3,0.4c-0.2,0.3,0.4,0.6,1.5,0.8C20.7,963.1,20.6,962.8,20.4,962.4z M26.4,958.4
		c0-0.2-0.2-0.4-0.4-0.4s-0.4,0.2-0.4,0.4s0.2,0.4,0.4,0.4S26.4,958.6,26.4,958.4z M25.1,955.9c-0.3-0.4-0.6-0.6-0.6-0.4
		c-0.2,0.7,0.3,1.7,0.7,1.4C25.4,956.8,25.4,956.4,25.1,955.9z M21.2,1019.4c0-0.1,0.3-0.4,0.6-0.7c0.5-0.4,0.6-0.4,0.4,0.2
		C22,1019.4,21.2,1019.8,21.2,1019.4z M48.4,1018.7c-0.5-0.4-0.9-0.9-0.7-1c0.3-0.3,1,0.2,1.5,1.1
		C49.7,1019.7,49.6,1019.7,48.4,1018.7L48.4,1018.7z M50.5,1019.1c-0.5-0.2-0.9-0.6-0.9-1c0-0.6,0.1-0.6,0.6,0
		c0.3,0.3,0.8,0.7,1.1,0.8c0.3,0.1,0.4,0.3,0.3,0.4C51.5,1019.3,51,1019.3,50.5,1019.1L50.5,1019.1z M26.1,1017.9
		c0.2-0.6,1.1-0.9,1.1-0.4c0,0.2-0.3,0.5-0.6,0.6C26.2,1018.2,26,1018.2,26.1,1017.9z M46.4,1017.9c0-0.2,0.2-0.4,0.4-0.4
		s0.4,0.2,0.4,0.4s-0.2,0.4-0.4,0.4S46.4,1018.2,46.4,1017.9z M55,1017.9c-0.1-0.2-0.1-0.4,0.2-0.4c0.2,0,0.4,0.2,0.4,0.4
		s-0.1,0.4-0.2,0.4C55.3,1018.3,55.1,1018.2,55,1017.9z M86.2,1016.7c-0.1-0.2-0.5-0.3-0.8-0.2c-0.3,0.1-0.5-0.1-0.4-0.5
		c0.1-0.6-0.4-1.3-1-1.3c-0.1,0-0.2,0.4-0.1,0.9c0.1,0.5,0.1,0.6-0.1,0.3c-0.1-0.3-0.6-0.8-0.9-1.1s-0.4-0.4-0.2-0.3
		s0.6-0.1,0.8-0.4c0.4-0.7,2.1-0.5,2.1,0.3c0,0.2,0.3,0.1,0.6-0.3c0.5-0.7,0.6-0.7,0.9,0.4c0.2,0.8,0.1,1.2-0.1,1.3
		c-0.2,0.1-0.3,0.4-0.2,0.7C86.9,1017.2,86.6,1017.3,86.2,1016.7z M14,1015.9c-0.3-0.2-0.4-0.4-0.2-0.4c0.2,0,0.7,0.2,1,0.4
		c0.3,0.2,0.4,0.4,0.2,0.4C14.8,1016.3,14.3,1016.1,14,1015.9z M23.5,1015c-0.3-0.6-0.2-0.7,0.5-0.7c0.5,0,0.7-0.2,0.6-0.4
		c-0.1-0.2,0.2-0.3,0.8-0.2c0.5,0.1,1.1,0,1.2-0.2c0.2-0.3,0.5-0.3,1,0c0.4,0.2,0.9,0.3,1.1,0.2c0.2-0.1,0.4,0.2,0.5,0.8
		c0.2,1.2-0.2,1.4-2.2,1c-0.8-0.2-1.4-0.1-1.3,0c0.1,0.2-0.3,0.3-0.8,0.2C24.4,1015.8,23.8,1015.4,23.5,1015z M60.8,1015.5
		c0-0.2,0.2-0.4,0.4-0.4s0.5,0.2,0.6,0.4c0.1,0.2,0,0.4-0.4,0.4C61.1,1015.9,60.8,1015.8,60.8,1015.5z M72.1,1015.2
		c-0.7-0.6-0.8-0.7-0.2-1.3c0.8-0.8,2.2-0.9,1.6-0.1c-0.2,0.3-0.6,0.5-0.8,0.3c-0.2-0.1-0.4,0-0.6,0.2c-0.1,0.2,0.3,0.5,0.9,0.7
		c0.8,0.3,0.9,0.4,0.5,0.6C73.2,1015.7,72.6,1015.5,72.1,1015.2z M10.4,1015.4c0-0.1,0.4-0.2,0.8-0.4c0.4-0.1,0.8,0,0.8,0.2
		c0,0.2-0.4,0.4-0.8,0.4C10.8,1015.5,10.4,1015.5,10.4,1015.4z M67.2,1014.3c0-0.2,0.2-0.4,0.4-0.4s0.4,0.2,0.4,0.4
		s-0.2,0.4-0.4,0.4C67.4,1014.7,67.2,1014.6,67.2,1014.3z M74.4,1014c0.5-0.3,0.5-0.5,0.1-1c-0.5-0.6-0.4-0.6,0.8,0
		c1.4,0.7,1.4,0.7-0.2,1.1C74.2,1014.3,74,1014.2,74.4,1014L74.4,1014z M82.7,1013.7c-0.1-0.1-0.3-0.5-0.3-0.7
		c0-0.3,0.2-0.2,0.5,0.1c0.3,0.3,0.4,0.6,0.3,0.7C83,1013.8,82.8,1013.8,82.7,1013.7z M94,1013.5c0-0.2,0.2-0.3,0.4-0.2
		c0.2,0.1,0.4,0.3,0.4,0.4s-0.2,0.2-0.4,0.2S94,1013.7,94,1013.5z M84.6,1013.2c-0.1-0.2,0.1-0.3,0.6-0.2c0.9,0.2,1.1,0.5,0.2,0.5
		C85.1,1013.5,84.7,1013.4,84.6,1013.2z M59,1012.3c-0.1-0.2,0-0.4,0.4-0.4c0.4,0,0.5,0.2,0.4,0.4c-0.1,0.2-0.3,0.4-0.4,0.4
		C59.3,1012.7,59.1,1012.6,59,1012.3z M70.9,1012.3c-0.6-0.2-0.6-0.3,0.4-0.7c1.4-0.5,1.6-0.6,1.3,0c-0.1,0.2-0.1,0.4,0.2,0.4
		c0.2,0,0.4,0.2,0.4,0.4C73.2,1012.7,72.1,1012.7,70.9,1012.3L70.9,1012.3z M73.1,1010.6c-2.5-1.5-3.4-3.4-1.5-3.4
		c0.4,0,1-0.4,1.4-0.9c0.5-0.8,0.7-0.8,1-0.3c0.4,0.5,0.4,0.5,0.4,0c0-0.5,0.1-0.5,0.4,0c0.2,0.3,0.5,0.4,0.8,0.3
		c0.2-0.1,0.5-0.1,0.7,0.1c0.1,0.2,0.5,0.3,0.7,0.3c0.3-0.1,0.4,0,0.2,0c-0.2,0.1,0,0.4,0.3,0.8c0.8,0.8,0.6,1.4-0.6,1.6
		c-0.7,0.1-0.9,0-0.7-0.4c0.2-0.5,0.1-0.5-0.7-0.1c-0.7,0.3-0.9,0.6-0.6,1.1c0.2,0.4,0.2,0.9,0.1,1.3
		C74.6,1011.4,74.4,1011.4,73.1,1010.6L73.1,1010.6z M85,1011c-0.6-0.4-0.6-0.6-0.2-0.9c0.5-0.3,1.2,0.4,1.2,1.1
		C86,1011.7,85.9,1011.6,85,1011z M7.6,1010.8c0-0.2,0.2-0.5,0.4-0.6c0.2-0.1,0.4-0.1,0.4,0.2c0,0.2-0.2,0.5-0.4,0.6
		C7.8,1011.1,7.6,1011,7.6,1010.8z M19.2,1008.7c0-0.2,0.2-0.4,0.4-0.4s0.4,0.2,0.4,0.4c0,0.2-0.2,0.4-0.4,0.4
		C19.4,1009.1,19.2,1009,19.2,1008.7z M3.6,1007.9c0-0.2,0.2-0.3,0.4-0.2s0.4,0.3,0.4,0.4c0,0.1-0.2,0.2-0.4,0.2
		C3.8,1008.3,3.6,1008.1,3.6,1007.9z M17.8,1006.9c-0.3-0.9-0.2-1,0.5-0.3c0.3,0.3,0.3,0.6,0.1,0.8
		C18.2,1007.4,18,1007.2,17.8,1006.9z M80.2,1005.3c-0.3-0.8-0.2-1,0.4-0.6c0.3,0.2,0.3,0.5,0.1,0.8
		C80.6,1005.9,80.4,1005.9,80.2,1005.3z M78.6,1005.2c-0.5-0.3-1-1.7-0.6-1.7c0.3,0,1.4,1.6,1.2,1.8
		C79,1005.4,78.8,1005.4,78.6,1005.2z M73.8,1003.1c-0.1-0.2-0.1-0.4,0.2-0.4s0.4,0.2,0.4,0.4s-0.1,0.4-0.2,0.4
		S73.9,1003.4,73.8,1003.1z M71.3,1001.6c0.1-1.3,0.1-1.4,0.6-1c0.4,0.4,0.4,0.7,0.1,1.1c-0.3,0.4-0.3,0.6,0,0.7
		c0.3,0.1,0.3,0.2-0.2,0.4C71.4,1003.1,71.3,1002.8,71.3,1001.6z M73.2,1001.5c-0.4-0.8,0.1-1.3,1-0.9c0.4,0.1,0.7,0,0.9-0.3
		c0.1-0.3,0.5-0.6,0.8-0.6s0.5,0.2,0.3,0.5c-0.1,0.3,0.1,0.5,0.4,0.5c0.4,0,0.6,0.2,0.6,0.4c0,0.2-0.3,0.3-0.8,0.2
		c-0.5-0.2-0.8-0.1-0.7,0.2C75.9,1002.3,73.6,1002.3,73.2,1001.5L73.2,1001.5z M91.8,1002c-0.5-0.2-1-0.6-1.1-1
		c-0.1-0.4-0.4-0.6-0.6-0.5c-0.4,0.1-1.9-1.4-2.2-2.2c-0.2-0.4-0.1-0.6,0.3-0.4c0.3,0.1,0.6,0,0.8-0.2c0.1-0.2-0.1-0.4-0.4-0.3
		c-0.4,0-0.7-0.1-0.8-0.4c-0.1-0.3,0.3-0.5,1-0.5c1.2,0,2.7,1.3,2.3,1.9c-0.1,0.2,0.1,0.7,0.6,1.2c0.4,0.4,0.6,0.8,0.4,0.8
		s-0.1,0.3,0.2,0.6c0.5,0.5,0.9,1.4,0.5,1.3C92.6,1002.3,92.2,1002.1,91.8,1002z M99.6,1000.1c0-0.3-0.2-0.5-0.4-0.4
		c-0.2,0.1-0.7-0.3-1-0.9c-0.4-0.8-0.6-0.9-0.6-0.4c0,0.4-0.2,0.7-0.5,0.7c-0.2,0-0.3-0.3-0.2-0.6c0.2-0.4-0.1-0.6-0.9-0.6
		c-0.7,0-1.4-0.3-1.7-0.8c-0.3-0.4-0.7-0.7-0.8-0.6s-0.6,0-1-0.3c-0.6-0.4-0.7-0.7-0.4-1.1c0.3-0.5,0.4-0.5,0.7,0
		c0.3,0.4,0.4,0.4,0.5,0c0.1-0.3,0-0.8-0.3-1c-0.4-0.4-0.6-0.3-1.1,0.4c-0.3,0.5-0.7,0.8-0.9,0.6c-0.2-0.2-0.1-0.5,0.2-0.8
		c0.4-0.4,0.2-0.8-0.9-1.6c-1-0.7-1.3-1.3-1.2-1.8c0.1-0.4,0.4-0.7,0.7-0.6c0.7,0.3,0.6-1.1,0-1.9c-0.5-0.6-0.5-0.7,0.1-0.9
		c0.3-0.1,0.6-0.1,0.6,0.1c0,0.2,0.5,0.2,1.2,0c0.9-0.2,1.1-0.2,0.9,0.1c-0.2,0.3,0,0.4,0.3,0.2c0.3-0.1,0.9,0.1,1.2,0.5
		c0.7,0.8,0.8,2.1,0.2,1.9c-0.2-0.1-0.7,0-1.1,0.2c-0.5,0.3-0.6,0.1-0.4-0.7c0.2-0.9,0.1-1-0.6-0.6c-0.4,0.2-0.9,0.3-1.1,0.2
		s-0.3-0.1-0.3,0.2s0.3,0.5,0.6,0.7s0.5,0.5,0.4,0.8c-0.1,0.3,0.1,0.8,0.4,1.1c0.3,0.3,0.6,0.7,0.6,1c0,0.6,1.9,2.7,2.5,2.8
		c0.3,0,0.8,0.2,1.1,0.4c0.5,0.3,0.5,0.3,0-0.3c-0.5-0.6-0.5-0.8,0-1.4c0.6-0.7,0.5-2.1-0.1-2.1c-0.2,0-0.4-0.3-0.4-0.6
		s0.3-0.6,0.6-0.6c0.6,0,1.2-1.1,0.8-1.6c-0.1-0.2,0-0.4,0.3-0.4c0.3,0,0.9-0.1,1.4-0.1c0.9-0.1,0.9-0.1,0.9,5.8
		c0,3.3-0.1,5.9-0.2,5.9S99.6,1000.5,99.6,1000.1L99.6,1000.1z M74.2,998.5c0.2-0.4,0-0.7-0.5-0.8c-0.8-0.2-1.4-1.4-1-2.1
		c0.1-0.2,0.1-0.4-0.2-0.4c-0.2,0-0.4-0.2-0.4-0.4s0.3-0.4,0.6-0.4c0.4,0,0.6-0.2,0.4-0.6c-0.1-0.3,0-0.7,0.2-0.8s0.3-0.5,0.2-0.8
		c-0.3-0.7,0-0.7,1,0.1c0.8,0.7,1.1,2.7,0.4,3.1c-0.2,0.1-0.4,0.1-0.4-0.2s-0.2-0.4-0.5-0.4c-0.3,0-0.2,0.3,0.2,0.7
		c0.8,0.9,0.8,1.3,0,1.3c-0.6,0-0.6,0.1,0.2,0.8c1.1,0.9,1.2,1.6,0.3,1.6C74.1,999.1,74,998.9,74.2,998.5L74.2,998.5z M86.4,996.3
		c-0.5-0.9-0.4-0.9,0.2-0.2c0.4,0.4,0.6,0.8,0.5,0.9C87,997.1,86.6,996.8,86.4,996.3L86.4,996.3z M85,995.9
		c-0.1-0.2-0.2-0.5-0.1-0.6s0.3,0.1,0.4,0.4C85.6,996.4,85.4,996.6,85,995.9z M68.6,994.4c-0.6-0.4-0.7-2.2-0.1-1.8
		c0.3,0.2,0.4,0,0.2-0.4c-0.1-0.4-0.1-0.7,0.1-0.9c0.2-0.1,0.4,0.1,0.5,0.6c0.1,0.4,0,0.8-0.2,0.9c-0.3,0.1-0.3,0.4,0.1,1
		C69.6,994.7,69.4,995,68.6,994.4L68.6,994.4z M55,992.3c-0.1-0.2,0-0.4,0.4-0.4c0.4,0,0.5,0.2,0.4,0.4c-0.1,0.2-0.3,0.4-0.4,0.4
		C55.3,992.7,55.1,992.6,55,992.3z M67.3,989.9c-0.5-0.2-0.9-0.5-0.9-0.6s0.2-0.1,0.4,0c0.2,0.1,0.7,0,1-0.2s0.7-0.4,0.9-0.2
		s0,0.4-0.3,0.6c-0.4,0.3-0.4,0.4,0,0.5c0.3,0.1,0.4,0.2,0.1,0.2C68.4,990.3,67.8,990.1,67.3,989.9L67.3,989.9z M47.6,987.9
		c-0.7-0.4-1.2-1-1-1.2s-0.1-0.5-0.6-0.6c-0.5-0.1-0.8-0.4-0.6-0.8c0.1-0.3,0.1-0.5-0.1-0.4c-0.2,0.1-0.4-0.4-0.4-1.2
		c0-1.1,0.1-1.4,0.7-1.4c0.5,0,0.8-0.3,0.8-0.8c0-0.4-0.2-0.8-0.6-0.8c-0.3,0-0.8-0.3-1-0.6s-0.6-0.5-0.8-0.4
		c-0.4,0.2-0.9-0.9-0.9-2.1c0-0.5-0.1-0.8-0.3-0.7c-0.2,0.1-0.5-0.1-0.8-0.4c-0.4-0.5-0.4-0.6,0-0.6c0.4,0,0.4-0.1,0-0.5
		c-0.7-0.7-0.6-1.1,0.3-1.1c0.4,0,1,0.3,1.2,0.7c0.2,0.4,0.4,0.5,0.4,0.3c0-0.2,0.4,0.1,0.9,0.7c0.5,0.7,1.1,1,1.6,0.9
		c0.5-0.1,0.8,0.1,1,0.7c0.1,0.5,0.5,1.1,0.8,1.5c1,1.2,1,1.9,0,1.8c-1.1-0.1-1.2,0.2-0.5,1c0.3,0.3,0.3,0.4,0.1,0.3
		c-0.2-0.1-0.8,0-1.2,0.4c-0.8,0.6-0.8,0.6,0.1,0.3c0.7-0.2,0.8-0.1,0.7,0.4c-0.1,0.3-0.4,0.5-0.7,0.4c-0.3-0.2-0.3,0-0.1,0.5
		c0.2,0.4,0.3,1,0.3,1.2c0,0.2,0.3,0.4,0.7,0.3c0.4-0.1,0.6-0.3,0.5-0.5c-0.1-0.2,0-0.4,0.2-0.4c0.4,0,1.1-1.5,0.9-2.1
		c-0.1-0.4,0.8-0.4,1.4,0c0.2,0.2,0.5,0.7,0.7,1.1c0.2,0.7,0.2,0.7,0.2-0.1c0-0.5,0.2-0.9,0.4-0.9c0.5,0,0.4,1.8-0.2,2.4
		c-0.4,0.4-0.4,0.6-0.1,0.7c0.3,0.1,0.2,0.3-0.2,0.7c-0.5,0.4-0.9,0.4-1.3,0.1c-0.5-0.4-0.5-0.4-0.1,0.1c0.7,0.8,0.6,1.2-0.2,0.9
		c-0.4-0.2-0.6-0.1-0.4,0.2C49.8,988.7,48.9,988.7,47.6,987.9L47.6,987.9z M48.1,979.8c-0.1-0.3-0.4-0.6-0.6-0.6
		c-0.2,0-0.4,0.3-0.4,0.6s0.3,0.6,0.6,0.6C48.1,980.4,48.3,980.1,48.1,979.8z M44.4,976.6c0-0.1-0.2-0.3-0.4-0.4s-0.4-0.1-0.4,0.2
		s0.2,0.4,0.4,0.4S44.4,976.7,44.4,976.6z M57.2,988c-0.2-0.4-0.4-0.5-0.6-0.1c-0.3,0.5-1,0.6-1,0.1c0-0.2,0.4-0.7,0.8-1.2
		c1-1,0.9-2.5-0.1-2.5c-0.4,0-0.7-0.2-0.7-0.4c0-0.7,3.4-0.2,4.5,0.6c1.2,0.9,1.4,1.6,0.5,1.2c-0.7-0.3-1,0.5-0.6,1.4
		c0.2,0.5,0.2,0.7-0.1,0.7c-0.2,0-0.3,0.2-0.2,0.4c0.1,0.2-0.3,0.4-1,0.3C58.1,988.6,57.4,988.4,57.2,988L57.2,988z M59.6,985.1
		c0-0.2-0.3-0.4-0.6-0.4s-0.6,0.2-0.6,0.4s0.3,0.4,0.6,0.4S59.6,985.4,59.6,985.1z M99.4,987.9c-0.1-0.2-0.1-0.4,0.2-0.4
		c0.2,0,0.4,0.2,0.4,0.4s-0.1,0.4-0.2,0.4C99.7,988.3,99.5,988.2,99.4,987.9z M55.4,985.6c-0.5-0.4-0.7-1.3-0.3-1.3
		c0.6,0,1.9,1.1,1.6,1.4c-0.2,0.2-0.3,0-0.3-0.3c0-0.4-0.1-0.4-0.3-0.1C55.9,985.7,55.6,985.8,55.4,985.6L55.4,985.6z M28.6,984.3
		c-0.1-0.2-0.1-0.4,0.2-0.4c0.2,0,0.4,0.2,0.4,0.4s-0.1,0.4-0.2,0.4C28.9,984.7,28.7,984.6,28.6,984.3z M32.9,983
		c-1-0.7-1.2-1.1-1.1-1.9c0.1-0.5,0.3-1.2,0.3-1.5s0.4-0.7,0.7-0.9s0.4-0.4,0.2-0.4c-0.2,0-0.1-0.3,0.2-0.7c0.5-0.6,0.4-0.6-0.8-0.5
		c-0.8,0.1-1.4,0-1.5-0.3c-0.1-0.3-0.5-0.4-1-0.3c-0.4,0.1-0.8,0-0.8-0.3c0-0.3,0.2-0.4,0.4-0.2s0.4,0,0.4-0.2s0.2-0.3,0.4-0.2
		c0.2,0.1,0.5,0,0.6-0.4s0.4-0.5,0.5-0.5c0.1,0.1,0.3-0.2,0.3-0.6c0-0.4-0.2-0.7-0.4-0.7c-0.2,0-0.5-0.2-0.6-0.5
		c-0.1-0.4,0-0.5,0.4-0.3c1,0.4,0.8-0.1-0.3-1c-0.6-0.4-0.9-0.9-0.8-1.1c0.1-0.2-0.2-0.3-0.7-0.3s-1-0.3-1.1-0.5
		c-0.2-0.3-0.3-0.3-0.5,0c-0.2,0.7-2.7-0.1-3.6-1.2c-0.9-1-0.9-2.6-0.1-2.2c0.3,0.1,0.6,0.1,0.6-0.2c0-0.2-0.3-0.5-0.6-0.6
		c-0.9-0.4,0-1.2,1.7-1.5c0.9-0.2,1.6-0.1,2,0.2c0.3,0.3,0.9,0.4,1.4,0.3c0.4-0.1,0.9,0,1,0.2c0.1,0.2,0,0.4-0.2,0.4
		s-0.4,0.2-0.4,0.4c0,0.6,0.8,0.5,1.5-0.2c0.5-0.5,0.5-0.6,0-0.6c-0.3,0-0.7-0.3-0.8-0.6c-0.1-0.4,0-0.6,0.3-0.6
		c1.1,0.1,1.5-0.1,1.5-0.9c0-0.5-0.1-0.7-0.3-0.6s-0.6-0.3-1-0.9c-0.4-0.7-0.5-1.2-0.3-1.4c0.2-0.1,0.3-0.5,0.2-0.8s0-0.6,0.2-0.6
		c0.2,0,0.4,0.2,0.4,0.4s0.3,0.4,0.6,0.4c0.4,0,0.2-0.3-0.6-1c-0.7-0.6-1.1-1.2-1-1.4c0.3-0.5,1.4,0,1.4,0.6c0,0.3,0.4,0.7,0.8,1
		c0.5,0.3,0.7,0.3,0.6,0.1s-0.1-0.4,0.2-0.4c0.3,0,0.3-0.2,0.1-0.7c-0.2-0.4-0.3-0.9-0.2-1.2c0.2-0.6-0.4-0.7-0.9-0.1
		c-0.6,0.6-1.1,0-1.7-1.6c-0.7-1.9-0.6-2,0.4-1.7c1,0.2,1.1,0.2,3.7-0.1c2.2-0.3,3.8,0.2,3.8,1.2c0,0.7-0.5,0.8-1.1,0.1
		c-0.3-0.3-0.5-0.3-0.5-0.1c0,0.2,0.2,0.6,0.4,0.8c0.3,0.3,0.3,0.7,0,1.3c-0.5,1-0.3,1,0.8,0.3c0.7-0.4,0.9-0.4,1.2,0.2
		c0.4,0.6,0.5,0.6,1.5,0.2c0.6-0.3,1.3-0.5,1.6-0.3c0.3,0.1,0.4,0,0.3-0.3c-0.2-0.2,0-0.6,0.3-0.7c1-0.4,0.8-1.5-0.3-1.1
		c-0.5,0.2-1,0.5-1.2,0.7c-0.1,0.2-0.5,0.3-0.7,0.1c-0.4-0.2-0.4,0-0.2,0.6c0.1,0.5,0.1,0.7,0,0.4c-0.1-0.3-0.6-0.5-1-0.5
		s-0.7-0.2-0.5-0.4c0.1-0.2,0.4-0.3,0.6-0.2s0.4,0,0.4-0.2c0-0.3-0.3-0.3-0.8-0.2c-0.6,0.2-0.7,0.1-0.5-0.6c0.1-0.6,0.4-0.7,0.6-0.4
		s0.7,0.3,1.2,0c0.6-0.3,0.9-0.3,1.1,0.1c0.2,0.3,0.6,0.4,1.2,0.2c0.5-0.2,1.1-0.1,1.5,0.2c0.5,0.4,0.5,0.4,0.3-0.3
		c-0.2-0.6-0.2-0.7,0.3-0.3c0.8,0.8,1.3,0.6,0.8-0.3c-0.4-0.7-0.3-0.8,1.4-0.7c1,0,1.8,0.2,1.8,0.4s-0.2,0.2-0.5,0
		c-0.3-0.2-0.4-0.1-0.2,0.3c0.1,0.4,0,0.9-0.4,1.2c-0.5,0.4-0.6,0.4-0.4,0c0.4-0.7,0-0.6-0.7,0.1c-0.3,0.3-0.6,0.9-0.6,1.3
		c0,0.6,0.1,0.6,0.7,0c0.7-0.6,0.9-0.6,2.7,0.3c1.1,0.5,2.4,1,2.9,1c0.8,0,1.1,0.3,0.8,1.1c-0.1,0.2-0.2,0.3-0.4,0.2
		c-0.2-0.1-0.3,0.2-0.3,0.5s0.2,0.6,0.4,0.7c0.2,0.1,0,0.4-0.4,0.6c-0.6,0.4-0.8,0.4-0.7,0c0.1-0.3-0.5-0.5-1.3-0.6
		c-0.8-0.1-1.5-0.4-1.7-0.6c-0.3-0.4-0.4-0.3-0.7,0.2c-0.4,0.7-1.7,0.9-5.2,0.8c-1,0-2,0.2-2.4,0.5c-0.6,0.6-1.7,0.3-1.7-0.4
		c0-0.2-0.4-0.3-0.8-0.2c-0.5,0.1-0.7,0-0.6-0.3c0.1-0.2,0.4-0.3,0.6-0.2s0.3-0.1,0.1-0.4c-0.3-0.7,0.5-0.9,0.8-0.2
		c0.1,0.2,0.2,0.2,0.1-0.1c0-0.3-0.5-0.6-1-0.8c-0.7-0.3-1-0.2-1.3,0.6c-0.2,0.5-0.4,0.7-0.4,0.5s-0.6-0.4-1.2-0.5
		c-0.8-0.1-1.1,0.1-1,0.4c0.2,0.6-0.9,1.2-1.5,0.8c-0.3-0.2-0.3-0.1-0.1,0.2c0.5,0.7,1.3,0.5,2-0.4c0.3-0.5,0.6-0.7,0.7-0.5
		s0.1,0.8,0.2,1.4c0.1,0.5,0.1,0.8,0,0.5c-0.1-0.3-0.5-0.4-1-0.3c-0.8,0.2-1,0.7-0.4,1.1c0.2,0.1,0.4,0,0.4-0.2
		c0-0.3,0.3-0.3,0.7,0.2c0.4,0.4,0.9,0.7,1.1,0.7s0.4,0.5,0.4,1.2c0,0.9-0.2,1.1-0.6,1c-0.5-0.2-0.5-0.1,0.1,0.4
		c0.4,0.3,0.7,0.8,0.7,1.1c0,0.3,0.2,0.3,0.5,0.2c0.3-0.2,0.4-0.1,0.2,0.4c-0.1,0.4-0.1,0.7,0.1,0.7c0.2,0,0.3,0.3,0.1,0.6
		c-0.1,0.3,0,0.9,0.3,1.2c0.4,0.5,0.4,0.7-0.3,1.2c-0.5,0.4-0.6,0.6-0.2,0.6c0.3,0,0.4,0.3,0.3,0.6c-0.1,0.3,0,0.7,0.4,0.8
		c0.4,0.1,0.6,0.8,0.6,1.7c0,0.8,0.3,2,0.6,2.6c0.5,0.9,0.5,1.2,0.1,1.8c-0.3,0.4-0.7,0.6-0.9,0.4c-0.6-0.3-1.4,0.8-1.1,1.4
		c0.2,0.3,0.3,0.9,0.4,1.4c0.1,0.8,0,0.9-0.5,0.6c-0.4-0.2-0.9-0.2-1.5,0.2c-0.5,0.3-1.1,0.5-1.3,0.4c-0.2-0.1-0.3,0.1-0.2,0.6
		C34.5,984.2,34.5,984.1,32.9,983L32.9,983z M33.2,972.4c0-0.2-0.2-0.4-0.4-0.4c-0.2,0-0.3,0.2-0.2,0.4c0.1,0.2,0.3,0.4,0.4,0.4
		S33.2,972.6,33.2,972.4z M36,969.8c0-0.1-0.4-0.5-0.9-0.9l-0.9-0.8l0.8,0.9C35.7,969.9,36,970.1,36,969.8z M31.8,967.5
		c0-0.3-0.5-0.6-1.1-0.7c-1.1-0.1-1.1-0.1-0.4,0.7C31.1,968.4,31.8,968.4,31.8,967.5L31.8,967.5z M33.2,965.5c0-0.2-0.3-0.4-0.6-0.4
		c-0.6,0-0.8,0.5-0.3,0.9C32.6,966.4,33.2,966,33.2,965.5z M47.2,957.1c0-0.7-0.1-0.8-0.4-0.3c-0.2,0.3-0.3,0.7-0.2,0.9
		C47,958.2,47.2,958,47.2,957.1z M48.6,956.8c0.1-0.2,0.1-0.4-0.2-0.4s-0.4,0.2-0.4,0.4s0.1,0.4,0.2,0.4
		C48.3,957.2,48.5,957,48.6,956.8z M34.5,954.8c-0.2-0.1-0.5-0.6-0.6-0.9c-0.2-0.4-0.5-0.6-0.9-0.4c-0.5,0.2-0.5,0.3-0.1,0.6
		c0.3,0.2,0.4,0.3,0.2,0.3c-0.2,0,0,0.3,0.4,0.6s0.9,0.5,1.1,0.3C34.7,955.2,34.7,954.9,34.5,954.8z M41.6,954.2
		c0-0.1-0.2-0.3-0.4-0.4s-0.4-0.1-0.4,0.2s0.2,0.4,0.4,0.4S41.6,954.3,41.6,954.2z M44.8,981.5c0-0.2,0.2-0.4,0.4-0.4
		s0.4,0.2,0.4,0.4s-0.2,0.4-0.4,0.4S44.8,981.8,44.8,981.5z M99.4,980.9c-0.2-0.6-0.2-0.6,0.2-0.2c0.3,0.3,0.4,0.6,0.3,0.7
		C99.8,981.5,99.6,981.3,99.4,980.9z M49.6,980.4c0-0.2,0.1-0.5,0.3-0.6c0.2-0.1,0.3,0.1,0.3,0.4c0,0.3-0.1,0.6-0.3,0.6
		C49.7,980.7,49.6,980.6,49.6,980.4z M57.1,978.1c-1.3-0.7-1.3-0.7-0.4-1.6c0.6-0.6,0.6-0.7,0.1-1c-0.7-0.4-0.4-0.8,1.1-1
		c1.3-0.2,2.3,0.5,2.3,1.4c0,0.4,0.3,0.6,0.9,0.5c0.7-0.1,2.3,1,1.6,1.1c-0.1,0-0.8,0.1-1.4,0.2c-2.2,0.2-2.4,0.3-2.4,0.6
		C58.8,978.9,58.4,978.8,57.1,978.1L57.1,978.1z M27,976.7c-0.2-0.3-0.1-0.4,0.4-0.2c0.6,0.2,0.6,0.2,0.2-0.3
		c-0.4-0.5-0.4-0.6,0.1-0.4c0.4,0.1,0.7,0.5,0.7,0.8C28.4,977.3,27.4,977.3,27,976.7z M49.4,976.7c-2.1-0.8-3.6-3.2-2-3.2
		c0.3,0,0.5-0.4,0.4-1c-0.1-0.9,0-1,0.7-0.8c0.5,0.2,0.7,0.1,0.5-0.2c-0.2-0.2,0-0.4,0.3-0.4c0.3,0,0.7,0.2,0.9,0.4
		c0.1,0.2,0.7,0.6,1.2,0.8c0.5,0.2,1,0.6,1,0.8s-0.2,0.3-0.4,0.2s-0.4-0.1-0.4,0.2s0.4,0.5,1,0.7s1,0.4,1,0.7c0,0.2,0.3,0.2,0.6-0.1
		c0.3-0.3,0.6-0.3,0.6-0.1c0,0.2,0.2,0,0.4-0.4c0.4-0.8,1.2-0.9,1.2-0.3c0,0.2-0.2,0.3-0.5,0.1c-0.3-0.2-0.4,0.2-0.2,1.3
		c0.2,1.5,0.1,1.6-0.8,1.6c-0.7,0-0.9-0.2-0.8-0.6c0.2-0.4,0-0.5-0.5-0.3c-0.4,0.2-0.9,0.3-1.1,0.4s-0.6,0.2-0.9,0.4
		c-0.3,0.2-0.6,0-0.7-0.4c-0.3-0.6-0.3-0.6-0.5,0C50.3,976.9,50,977,49.4,976.7L49.4,976.7z M22.3,975.9c0.2-0.2,0.3-0.7,0.2-1.1
		c-0.2-0.6-0.2-0.6,0.4-0.1c0.7,0.6,0.3,1.6-0.6,1.6C22,976.4,22,976.2,22.3,975.9z M40,974.8c-0.3-0.2-0.5-0.5-0.4-0.6
		s0.5,0,0.7,0.4C41,975.2,40.9,975.3,40,974.8z M27.1,973.7c-0.4-0.7,0.5-1.1,1.1-0.5c0.4,0.4,0.4,0.4,0,0.2c-0.3-0.1-0.5,0-0.6,0.2
		C27.4,974,27.3,974,27.1,973.7L27.1,973.7z M97.6,973.1c0-0.2,0.2-0.3,0.4-0.2s0.4,0.3,0.4,0.4s-0.2,0.2-0.4,0.2
		S97.6,973.4,97.6,973.1z M98.9,971.2c-0.5-0.1-1.1-0.4-1.4-0.8c-0.5-0.5-0.4-0.6,0.3-0.4c1.1,0.4,2-0.3,1.7-1.3
		c-0.1-0.5-0.1-0.8,0.1-0.8s0.4,0.5,0.4,1.2c0,0.7-0.2,1.2-0.5,1.2c-0.3,0-0.3,0.1,0.1,0.4C100.3,971.2,100,971.4,98.9,971.2z
		 M59,970.4c-0.2-0.2-0.6-0.6-0.9-1.1c-0.4-0.6-0.4-0.6-0.3-0.1c0.3,0.8-0.3,0.9-0.9,0.1c-0.4-0.4-0.3-0.6,0.2-0.8
		c0.4-0.2,1,0.1,1.7,0.7C59.7,970.3,59.8,971,59,970.4z M70.5,969.5c0-0.4,0.1-0.7,0.3-0.7c0.2,0,0.6,0.3,0.9,0.7
		c0.6,0.6,0.6,0.7-0.3,0.7C70.9,970.2,70.5,969.9,70.5,969.5z M72.4,969.4c-0.4-0.5-0.4-0.6,0.2-0.6c0.4,0,0.6,0.3,0.6,0.6
		S73.1,970,73,970C73,970,72.7,969.7,72.4,969.4z M98.4,968.9c-0.3-0.1-0.8-0.5-1.1-0.8c-0.3-0.3-0.8-0.5-1.1-0.5
		c-0.3,0-0.6-0.2-0.6-0.3s0.7-0.2,1.5-0.1c1,0.2,1.6,0.5,1.8,1.1c0.2,0.5,0.3,0.9,0.2,0.9C99,969.1,98.7,969,98.4,968.9z
		 M74.7,967.9c-0.2-0.6-0.1-0.8,0.4-0.6c0.3,0.1,0.7,0.2,0.8,0.2c0.1,0,0.2,0.3,0.2,0.6C76,969.1,74.9,968.9,74.7,967.9z
		 M67.2,967.7c-0.4-0.5-0.4-0.6,0.2-0.4c0.4,0.1,0.7,0.4,0.7,0.6C68,968.5,67.8,968.4,67.2,967.7L67.2,967.7z M54.8,967.6
		c0-0.2,0.2-0.4,0.4-0.4c0.2,0,0.3,0.2,0.2,0.4c-0.1,0.2-0.3,0.4-0.4,0.4S54.8,967.8,54.8,967.6z M72.4,967.5c0-0.2,0.2-0.3,0.4-0.2
		s0.4,0.3,0.4,0.4S73,968,72.8,968C72.6,968,72.4,967.8,72.4,967.5z M46.3,966.3c0.3-0.6,0.7-1.2,0.9-1.1c0.5,0,2.7,2,2.3,2
		c-0.2,0-1.1,0.1-2.1,0.2l-1.7,0.1L46.3,966.3L46.3,966.3z M47.6,966c0-0.2-0.2-0.4-0.4-0.4c-0.2,0-0.3,0.2-0.2,0.4s0.3,0.4,0.4,0.4
		S47.6,966.2,47.6,966z M76.8,967.1c0-0.2,0.2-0.3,0.4-0.2c0.2,0.1,0.4,0.3,0.4,0.4s-0.2,0.2-0.4,0.2S76.8,967.4,76.8,967.1z
		 M6.7,966.4c-0.6-0.5-0.7-0.7-0.2-0.6c0.4,0.1,0.7,0,0.7-0.2c0-0.3,0.2-0.3,0.8,0c0.6,0.3,0.8,0.3,0.8-0.1c0-0.3,0.1-0.4,0.2-0.2
		c0.4,0.4-0.3,1.9-0.8,1.9C7.9,967.2,7.3,966.8,6.7,966.4z M44.2,966.4c-0.4-0.6,0.7-1.2,1.2-0.6c0.3,0.3,0.4,0.6,0.2,0.8
		C45.3,966.9,44.5,966.8,44.2,966.4z M55.9,966.5c-0.1-0.1-0.1-0.5,0-0.8c0.1-0.4-0.1-0.6-0.8-0.6c-0.8,0-1-0.2-0.9-1
		c0.1-0.6,0.4-1.3,0.7-1.7c0.6-0.6,0.7-0.5,1.1,0.5c0.2,0.6,0.4,1.3,0.4,1.4s0.4,0.6,0.8,0.9l0.8,0.6l-0.8,0.4
		C56.3,966.8,56.2,966.8,55.9,966.5L55.9,966.5z M38.5,965.4c-0.2-0.3-0.3-0.7-0.2-0.8c0.3-0.3,1.3,0.5,1.3,1
		C39.6,966.1,39,966,38.5,965.4L38.5,965.4z M73.4,965.6c-0.1-0.2-0.7-0.4-1.3-0.4c-1.1,0-1.1,0-0.3-0.7c0.6-0.5,0.7-0.6,0.1-0.4
		c-0.4,0.1-0.8,0.1-0.9-0.2c-0.1-0.2-0.4-0.3-0.7-0.1c-0.8,0.6-2.3,0.5-2.3-0.1c0-0.3-0.2-0.5-0.5-0.4c-0.3,0.1-0.7-0.1-0.8-0.4
		c-0.1-0.4-0.1-0.5,0.1-0.4c1.2,0.7-0.1-0.8-1.8-2.2c-0.7-0.6-0.7-0.5-0.4,0.4c0.2,0.5,0.6,1.2,1,1.5c0.6,0.4,0.6,0.5,0,0.5
		c-0.3,0-0.8,0-1,0c-0.2,0-0.1,0.3,0.2,0.7c0.9,1.1,0.9,1.2,0.6,0.4c-0.2-0.4-0.1-0.6,0.1-0.5c0.5,0.3,0.5,1.4,0,1.4
		c-0.2,0-0.5-0.2-0.6-0.4c-0.1-0.2-0.5-0.3-0.8-0.2c-0.4,0.2-0.5,0-0.4-0.4c0.1-0.4-0.1-0.7-0.6-0.9c-0.5-0.1-0.8-0.5-0.8-0.7
		s-0.1-0.3-0.3-0.2c-0.4,0.4-1.8-0.5-1.5-1c0.1-0.2,0-0.7-0.2-1c-0.3-0.3-0.3-0.6-0.1-0.6c0.2,0,0.1-0.2-0.3-0.4
		c-0.5-0.3-0.3-0.4,0.5-0.2c1,0.2,1.1,0.2,0.7-0.6c-0.6-1.2,0.5-1.1,2.2,0.2c0.7,0.5,1.7,1,2.2,1c0.6,0,0.8,0.2,0.8,0.7
		c-0.1,0.4,0.3,0.8,1.3,1.1c1.1,0.4,1.4,0.7,1.3,1.3c-0.1,0.5,0.1,0.9,0.5,0.9c0.3,0,0.5-0.2,0.4-0.4c-0.3-0.5,0.3-0.5,0.9,0
		c0.3,0.3,0.7,0.3,1,0.1c1.4-0.9,3.1-0.1,3,1.4C74.6,965.8,73.8,966.3,73.4,965.6L73.4,965.6z M5.6,963.1c0-0.2,0.2-0.3,0.4-0.2
		c0.2,0.1,0.4,0.3,0.4,0.4s-0.2,0.2-0.4,0.2S5.6,963.4,5.6,963.1z M97.3,962.8c-0.4-0.6-0.3-0.8,0.3-0.9c0.9-0.2,1.4,0.7,0.7,1.3
		C97.9,963.4,97.6,963.3,97.3,962.8z M4.1,962.2c-0.6-0.6-0.7-1-0.4-1.1c0.6-0.2-0.4-1.5-1.1-1.4c-0.3,0.1-1-0.4-1.6-1
		c-1.2-1.3-0.8-2.1,1.2-2.1c0.7,0,1.6-0.1,2.1-0.3c0.6-0.2,0.9,0,0.9,0.4c0,0.3,0.3,0.6,0.7,0.6s0.5,0.1,0.4,0.3
		c-0.5,0.5,1.4,2.1,2.1,1.9c0.4-0.1,0.5-0.1,0.3,0.1c-0.2,0.2-0.5,0.6-0.5,1c-0.2,1.2-1.2,2.8-1.5,2.4c-0.1-0.2-0.2-0.6-0.1-0.8
		s0-0.3-0.4-0.3c-0.3,0-0.5,0.1-0.4,0.3c0.1,0.2-0.1,0.3-0.4,0.3c-0.4,0-0.5,0.2-0.4,0.4C5.5,963.5,5,963.2,4.1,962.2z M8.6,961.2
		c0.1-0.2,0.4-0.3,0.6-0.2c0.6,0.3,0.5,0.6-0.3,0.6C8.6,961.6,8.5,961.4,8.6,961.2z M94.7,961.3c-0.7-0.2-1-1.3-0.3-1.3
		c0.4,0,1.4,1.2,1.2,1.3C95.5,961.4,95.1,961.3,94.7,961.3z M81.5,960.5c-0.6-0.3-1.1-0.8-1.1-1c0-0.2-0.2-0.3-0.4-0.2
		c-0.3,0.2-0.8-0.6-0.8-1.4c0-0.6,1.8-0.4,2.7,0.4c0.9,0.7,1.6,2.9,1,2.9C82.8,961.1,82.1,960.9,81.5,960.5z M55.8,959.9
		c0.2-0.3,0.1-0.4-0.3-0.2c-0.7,0.3-1.7-0.6-1.2-1c0.1-0.1,0-0.5-0.2-0.8c-0.3-0.3-0.4-0.8-0.2-1c0.1-0.2,0-0.4-0.2-0.4
		c-0.3,0-0.4-0.1,0-0.5c0.2-0.3,0.3-0.7,0.1-0.9s0-0.1,0.4,0.2c0.6,0.4,0.7,0.4,1.1-0.2c0.5-1,1.7-0.5,1.4,0.6
		c-0.1,0.6,0,0.8,0.4,0.8c0.3,0,0.7,0.2,0.9,0.4c0.1,0.2,0,0.3-0.5,0.1c-0.7-0.3-0.7-0.2-0.1,0.7c0.6,0.9,0.6,1-0.2,1.9
		C56.1,960.4,55.3,960.7,55.8,959.9L55.8,959.9z M72.6,960.1c-0.4-0.1-1.1-0.3-1.4-0.4c-0.3-0.1-0.8-0.2-1.1-0.2s-0.8-0.1-1.2-0.4
		c-0.7-0.4-0.7-0.4,0-0.2c0.5,0.1,0.7,0,0.7-0.4c0-0.3-0.5-0.7-1.2-0.8c-0.7-0.1-1.2-0.4-1.2-0.6s0.3-0.3,0.6-0.1
		c1,0.4,1.5-0.2,0.8-0.9c-0.6-0.7-0.6-0.7,0.5-1c0.6-0.2,1.7-0.3,2.3-0.4c0.7,0,1.6-0.2,2.1-0.4c0.6-0.2,0.9-0.2,0.7,0.1
		c-0.1,0.2-0.1,0.5,0.2,0.7s0.3,0.6,0.2,0.9c-0.1,0.3,0,0.8,0.3,1c0.3,0.2,0.2,0.3-0.4,0.2c-0.7-0.2-0.9-0.1-0.7,0.4
		c0.1,0.3,0,0.9-0.2,1.2s-0.3,0.8-0.2,1.1c0.1,0.3,0.2,0.6,0.1,0.6C73.4,960.3,73,960.2,72.6,960.1L72.6,960.1z M77.2,960
		c0-0.2,0.2-0.5,0.4-0.6c0.2-0.1,0.4,0,0.4,0.4s-0.2,0.6-0.4,0.6S77.2,960.2,77.2,960z M96.3,959.5c-0.4-0.2-0.9-0.9-1.3-1.6
		c-0.5-1.1-0.5-1.2,0.2-1.4c0.4-0.1,0.8-0.4,0.8-0.6c0-0.4-0.7-0.5-0.9-0.1c-0.1,0.2-0.1,0.1-0.1-0.2c0.1-0.3-0.1-0.6-0.3-0.7
		c-0.3-0.2-0.3-0.4,0.1-0.6c0.3-0.2,1.3,0.1,2.2,0.6c0.9,0.5,1.8,0.8,1.9,0.7s0.4,0.3,0.6,0.9c0.5,1.2,0.2,2.8-0.4,2.4
		c-0.5-0.3-2,0.2-1.7,0.6C97.7,960.1,97.2,960,96.3,959.5L96.3,959.5z M93.8,959.2c-0.1-0.2-0.1-0.4,0.2-0.4s0.5,0.2,0.6,0.4
		c0.1,0.2,0.1,0.4-0.2,0.4C94.2,959.6,93.9,959.4,93.8,959.2z M85.6,958.5c0-0.2,0-0.6,0-1c0-0.4-0.3-0.8-1-0.9
		c-1-0.2-1.2-0.8-1.1-2.3c0-0.4-0.3-0.7-0.7-0.9c-0.4-0.1-0.8-0.4-0.8-0.7c0-0.4,0.1-0.4,0.6,0c0.4,0.4,0.6,0.3,0.8-0.1
		c0.1-0.3,0.5-0.1,1.2,0.7c0.5,0.7,1.2,1.2,1.4,1.2c0.2,0,0.6,0.1,0.8,0.1c0.2,0,0.4,0.3,0.4,0.6s0.3,0.6,0.6,0.6s0.6,0.2,0.6,0.4
		c0,0.3,0.2,0.3,0.6-0.1c0.4-0.3,0.5-0.8,0.4-1.3c-0.2-0.6-0.1-0.7,0.1-0.3c0.2,0.3,0.7,0.4,1,0.3c0.4-0.1,0.7-0.1,0.7,0.2
		c0,0.2-0.2,0.5-0.5,0.6c-0.4,0.2-0.4,0.2,0,0.2c0.3,0,0.7,0.3,0.9,0.7c0.3,0.6,0.2,0.7-1.8,0.6c-1.6-0.1-2.4,0.1-3.2,0.7
		C86.1,958.5,85.6,958.7,85.6,958.5L85.6,958.5z M92.7,958c0.3-1.1,0.7-1.3,1.3-0.6c0.6,0.7,0.5,0.8-0.7,1.2
		C92.6,958.8,92.5,958.7,92.7,958z M8.8,957.8c-1-0.3-1.4-0.7-1.5-1.5c-0.1-0.5,0-0.8,0.1-0.5c0.3,0.7,0.9,0.6,0.9-0.1
		c0-0.3-0.4-0.6-0.8-0.6c-0.4,0-0.8-0.2-0.8-0.4s0.3-0.3,0.7-0.2c2.3,0.6,2.7,0.8,3.2,1.3c0.3,0.3,0.5,0.9,0.3,1.5
		C10.8,958.5,10.7,958.5,8.8,957.8z M76.3,956.9c0.2-1.2,0.1-1.5-0.6-1.7c-1.2-0.3-0.9-1,0.5-1.2c0.6-0.1,1.3-0.3,1.6-0.5
		c0.5-0.5,1.5-0.5,1.5,0c0,0.2-0.2,0.3-0.4,0.2c-0.4-0.2-0.4,0.1,0.2,1.6c0.5,1.3,0.5,1.8,0.2,1.6c-0.2-0.1-0.4,0-0.5,0.3
		c-0.1,0.3-0.2,0.2-0.2-0.2c0-0.4-0.2-0.7-0.4-0.7c-0.6,0-1.7,1.2-1.4,1.6c0.1,0.2,0,0.4-0.2,0.4C76.2,958.4,76.1,957.8,76.3,956.9
		L76.3,956.9z M32,956.9c0-0.3,0.2-0.5,0.4-0.4s0.3,0.4,0.2,0.6C32.2,957.7,32,957.6,32,956.9L32,956.9z M62.3,957.3
		c0-0.2,0-0.4,0-0.6c0-0.3-0.6-0.5-1.3-0.3c-0.2,0-0.3-0.4-0.3-1c0-0.6,0.2-1,0.6-1c0.9,0,2.2,0.8,2,1.2c-0.1,0.2,0,0.5,0.2,0.6
		c0.3,0.2,0.2,0.5-0.2,0.8C62.8,957.6,62.4,957.7,62.3,957.3L62.3,957.3z M80.2,956.4c-0.3-0.4,0.4-0.9,0.7-0.5
		c0.4,0.4,0.3,0.9-0.1,0.9C80.6,956.8,80.3,956.6,80.2,956.4z M49.2,952.9c0-0.5,0.1-0.6,0.2-0.2c0.1,0.3,0.1,0.6,0,0.8
		C49.3,953.6,49.2,953.4,49.2,952.9L49.2,952.9z M74,953c0-0.3,0.1-0.6,0.2-0.6s0.3,0.3,0.4,0.6c0.1,0.3,0.1,0.6-0.2,0.6
		S74,953.3,74,953z M94.7,952.7c-0.3-0.2,0.2-0.3,1-0.3c0.8,0,1.5,0.2,1.5,0.4C97.2,953.1,95.3,953.1,94.7,952.7z"/>
</g>
</svg>
