<?xml version="1.0" encoding="utf-8"?>
<!-- Generator: Adobe Illustrator 19.2.1, SVG Export Plug-In . SVG Version: 6.00 Build 0)  -->
<!DOCTYPE svg PUBLIC "-//W3C//DTD SVG 1.1//EN" "http://www.w3.org/Graphics/SVG/1.1/DTD/svg11.dtd">
<svg version="1.1"
	 id="svg2" inkscape:version="0.91 r13725" sodipodi:docname="water.svg" xmlns:cc="http://creativecommons.org/ns#" xmlns:dc="http://purl.org/dc/elements/1.1/" xmlns:inkscape="http://www.inkscape.org/namespaces/inkscape" xmlns:rdf="http://www.w3.org/1999/02/22-rdf-syntax-ns#" xmlns:sodipodi="http://sodipodi.sourceforge.net/DTD/sodipodi-0.dtd" xmlns:svg="http://www.w3.org/2000/svg"
	 xmlns="http://www.w3.org/2000/svg" xmlns:xlink="http://www.w3.org/1999/xlink" x="0px" y="0px" width="100px" height="100px"
	 viewBox="0 0 100 100" style="enable-background:new 0 0 100 100;" xml:space="preserve">
<sodipodi:namedview  bordercolor="#666666" borderopacity="1.0" id="base" inkscape:current-layer="layer1" inkscape:cx="63.935281" inkscape:cy="32.190714" inkscape:document-units="px" inkscape:pageopacity="0.0" inkscape:pageshadow="2" inkscape:window-height="1391" inkscape:window-maximized="1" inkscape:window-width="2560" inkscape:window-x="0" inkscape:window-y="0" inkscape:zoom="7.9999999" pagecolor="#ffffff" showgrid="true" units="px">
	<inkscape:grid  id="grid4133" type="xygrid"></inkscape:grid>
</sodipodi:namedview>
<g id="layer1" transform="translate(0,-952.36216)" inkscape:groupmode="layer" inkscape:label="Layer 1">
	<path id="path5145" inkscape:connector-curvature="0" d="M3.7,1051.8c-0.1-0.4,0-0.8,0.2-1.1c0.3-0.3,0.4-0.3,0.4,0
		c0,0.2,0.3,0.5,0.6,0.6c0.7,0.3,0.6-0.6-0.2-1.2c-0.5-0.4-0.5-0.5,0.3-0.5c0.6,0,0.8-0.2,0.7-0.8c-0.2-0.9,1-1.6,1.3-0.8
		c0.1,0.3,0.4,0.5,0.8,0.5c0.5,0,0.5,0.1,0,0.9c-0.3,0.5-0.8,0.8-1.1,0.8c-0.3-0.1-0.6,0.3-0.6,0.7c-0.1,1-0.1,1-1.2,1.3
		C4.2,1052.3,3.9,1052.2,3.7,1051.8L3.7,1051.8z M15.2,1051.9c0.3-0.3,0.7-0.3,1.3,0c0.8,0.4,0.8,0.4-0.5,0.5
		C15.1,1052.4,14.8,1052.3,15.2,1051.9L15.2,1051.9z M24.5,1052.1c-0.4-0.1-0.6-0.3-0.5-0.5c0.1-0.2-0.2-0.4-0.6-0.5
		c-0.4-0.1-0.7,0-0.6,0.2c0.3,0.5,0.1,0.4-1.2,0c-0.6-0.2-1-0.6-0.8-0.9c0.1-0.3-0.1-0.7-0.5-1c-0.8-0.5-0.6-1.8,0.2-1.5
		c0.2,0.1,0.8,0,1.2-0.1s1.5-0.1,2.4,0.2c0.9,0.3,1.7,0.4,1.8,0.2c0.3-0.6-0.9-1.6-2.2-1.8c-2.1-0.4-2.5-0.7-1.9-1.6
		c0.9-1.4,2.8-2.2,4.9-1.9c2.1,0.3,2.5,0.5,1.8,1.1c-0.6,0.6-0.6,1.1,0.1,0.8c0.3-0.1,0.6-0.1,0.6,0.2c0,0.5-1,1.3-1.3,1
		c-0.1-0.1-0.3,0.1-0.3,0.6c0,0.8-0.1,0.8-0.6,0.3c-0.8-0.8-0.9-0.8-0.9,0c0,0.3,0.3,0.7,0.7,0.9c1,0.4,1.9,1.3,1.2,1.3
		c-0.4,0-0.3,0.1,0,0.6c0.3,0.4,0.4,0.6,0,0.6c-0.2,0-0.4,0.2-0.4,0.5c0,0.4-2,1.9-2.4,1.8C25.3,1052.3,24.9,1052.2,24.5,1052.1
		L24.5,1052.1z M37.4,1051.4c0.4-0.5,0.8-1,1-1s0.3-0.3,0.3-0.6c0-0.4,0.4-0.6,0.9-0.6c0.5,0,1.1,0.3,1.4,0.6c0.4,0.5,0.4,0.6,0,0.6
		c-0.3,0-0.4,0.4-0.3,1c0.2,0.9,0.1,1-1.9,1h-2.1L37.4,1051.4L37.4,1051.4z M53.8,1052.1c-0.1-0.1-0.3-0.5-0.3-0.8
		c0-0.4,0.3-0.5,1-0.3c0.8,0.2,1,0.1,1-0.4c0-0.6,0-0.6,0.4,0c0.2,0.4,0.3,0.9,0.1,1C55.5,1052.1,54.1,1052.4,53.8,1052.1
		L53.8,1052.1z M64.6,1050.9c-0.1-2.2-0.3-3.6-0.7-3.9c-0.2-0.2-0.9-0.3-1.7-0.3c-0.8,0-2.2-0.2-3.1-0.4c-1-0.2-2.4-0.2-3.3-0.1
		c-0.9,0.2-2,0.3-2.4,0.2c-0.4-0.1-1.1-0.2-1.6-0.2c-0.6,0-1.1-0.5-1.5-1.3c-0.6-1.1-0.7-1.2-0.9-0.5c-0.2,0.6-0.3,0.4-0.6-1
		c-0.2-1-0.3-1.9-0.2-2.1c0.1-0.2,0.2-1.2,0.2-2.2c0.1-1.1,0.5-2.3,1-3.1c1.3-1.8,3.6-3.8,4.4-3.9c0.9,0,1.3,1.6,0.7,2.7
		c-0.2,0.4-0.3,0.8-0.2,0.8c0.1,0,0,0.3-0.2,0.6c-0.3,0.3-0.4,0.7-0.3,0.8c0.1,0.1,0.5-0.1,0.7-0.6c0.7-1,0.8-1,2.2,0.2
		c1,0.9,1,1,0.4,1.5c-0.4,0.3-0.7,1.2-0.9,2.4c-0.1,1-0.1,1.7,0,1.4c0.1-0.3,0.5-0.5,0.8-0.5c0.4,0,0.5,0.3,0.3,1.1l-0.2,1.1
		l0.7-0.9l0.7-0.9l2.3,0.8c1.3,0.4,2.6,0.8,2.9,0.8c0.3,0,0.5,0.2,0.3,0.6c-0.2,0.4,0,0.6,0.5,0.6c0.4,0,0.8,0.2,0.9,0.4
		c0.1,0.2,0.4,0.3,0.8,0.2c0.7-0.3,0.9-1,0.3-1c-0.2,0-0.4-0.2-0.4-0.6c0-0.9,3.5-0.7,4.4,0.2c0.4,0.4,0.6,0.8,0.4,0.9
		c-0.1,0.1,0,0.7,0.3,1.2c0.3,0.5,0.4,1.3,0.3,1.7c-0.2,0.6,0,0.7,1,0.6c1.3-0.2,3.4,0.5,3.4,1c0,0.2-0.5,0.6-1.1,0.9
		s-1.6,0.9-2.3,1.4c-1.4,1-3.4,1.1-4.9,0.3c-0.8-0.4-1.2-0.4-1.5-0.1s-0.4,0.3-0.4,0c0-0.3-0.2-0.5-0.4-0.5c-0.2,0-0.3,0.3-0.2,0.6
		c0.1,0.3,0,0.6-0.3,0.6C64.9,1052.4,64.6,1051.7,64.6,1050.9L64.6,1050.9z M55.6,1040c-0.3-0.1-0.7-0.1-1,0c-0.3,0.1,0,0.2,0.5,0.2
		C55.6,1040.2,55.8,1040.1,55.6,1040z M75.5,1051.6c0.3-0.4,0.6-0.7,0.7-0.7c0.1,0,0.6-0.3,1.1-0.8c0.6-0.6,1.3-0.9,2.3-0.8
		c1.3,0.1,2.4,0.7,1.2,0.7c-0.3,0-0.6,0.2-0.6,0.4c0,0.2,0.4,0.3,0.9,0.1c0.8-0.2,0.8-0.2,0.3,0.4c-0.3,0.4-0.7,0.6-0.9,0.4
		c-0.2-0.1-0.3,0.1-0.3,0.4c0,0.5-0.5,0.6-2.5,0.6C75.1,1052.4,75,1052.3,75.5,1051.6L75.5,1051.6z M84,1052.1
		c0-0.1,0.6-0.8,1.2-1.4c1.1-1,1.5-1.1,3.3-1c1.5,0.1,2.3,0.3,2.7,0.9c0.8,1,0.7,1.5-0.1,0.9c-0.6-0.5-0.6-0.5-0.4,0.1
		c0.2,0.6-0.1,0.7-3.2,0.7C85.5,1052.4,84,1052.2,84,1052.1L84,1052.1z M41.2,1051.6c-0.1-0.2-0.2-0.5-0.1-0.6
		c0.1-0.1,0.3,0.1,0.4,0.4C41.8,1052.1,41.6,1052.2,41.2,1051.6z M56.1,1049.7c-0.5-0.6-0.5-0.8-0.1-1.3c0.3-0.3,0.7-0.7,1.1-0.8
		c0.8-0.3,0.9,1.6,0.2,2.3C56.8,1050.3,56.6,1050.2,56.1,1049.7L56.1,1049.7z M11.8,1048c-0.5-0.2-1.1-0.3-1.3-0.1
		c-0.2,0.1-0.4-0.1-0.4-0.6s0.3-0.9,0.6-1c0.3-0.1,0.5-0.4,0.4-0.5c-0.2-0.3,1.5-2.1,2.8-3c0.6-0.4,1.3-0.5,2.3-0.3
		c1.2,0.2,1.4,0.4,1.1,1.1c-0.1,0.5-0.8,1.4-1.4,2.1c-0.6,0.7-1.2,1.6-1.3,2C14.4,1048.5,13.4,1048.7,11.8,1048L11.8,1048z
		 M95.7,1046.9c-0.4-0.3-0.4-0.4,0.2-0.5c0.6-0.2,0.6-0.2,0.1-0.2c-0.4,0-0.7-0.2-0.7-0.5c0-0.8,0.8-1.9,1.4-1.9
		c0.3,0,1.1-0.4,1.6-1s1.2-1,1.4-1c0.2,0,0.1,0.2-0.2,0.4c-0.4,0.3-0.4,0.4-0.1,0.4c0.3,0,0.5,0.7,0.5,2.1v2.1l-1.5,0.2
		C96.6,1047.3,96.4,1047.3,95.7,1046.9L95.7,1046.9z M0.1,1044.3l0.1-2.6l1.8-0.3c1-0.1,2.3-0.5,2.9-0.7c0.6-0.3,1.5-0.5,1.9-0.6
		c1.9-0.4,0.3-0.8-2.4-0.6c-0.5,0-1.5-0.1-2.2-0.3c-1.2-0.3-1.5-0.3-1.8,0.3c-0.3,0.5-0.4-0.2-0.4-2.2c0-2.7,0-2.8,0.9-2.8
		c0.5,0,1.1-0.2,1.4-0.5c0.4-0.4,0.6-0.4,1,0.2c0.3,0.4,0.6,0.6,0.8,0.4c0.4-0.4,0.3-0.9-0.3-0.9c-0.8,0-0.7-1.1,0.2-2.2
		c0.4-0.5,0.8-1.2,0.8-1.5c0-0.7,1.5-1,1.7-0.4c0.1,0.3,0,0.6-0.2,0.8c-0.2,0.1-0.4,0.4-0.4,0.7c0,0.3,0.1,0.3,0.5,0
		c0.3-0.3,0.7-0.3,1.2,0c0.6,0.3,0.7,0.3,0.5,0c-0.4-0.6,0.4-0.5,1.1,0.1c0.3,0.3,0.7,0.5,0.8,0.4c0.4-0.4,1.6,1.9,1.5,3
		c0,1.5-0.7,2.7-2.5,4.6c-0.8,0.9-1.5,1.7-1.5,2c0,0.2-0.1,0.4-0.3,0.5c-0.2,0.1-0.6,0.7-0.9,1.3c-0.7,1.5-3.1,3.2-3.5,2.5
		c-0.3-0.5-0.5-0.1-0.4,0.6c0,0.2-0.4,0.3-1,0.3c-0.6,0-0.9,0.2-0.8,0.4c0.1,0.2,0,0.4-0.2,0.4C0.2,1046.9,0.1,1046,0.1,1044.3
		L0.1,1044.3z M7.9,1033.3c0-0.7-0.5-1.6-0.8-1.6c-0.3,0-0.3,0.9,0,1.9C7.1,1033.8,7.9,1033.6,7.9,1033.3z M5.3,1032.5
		c0.1-0.2,0-0.3-0.4-0.2c-0.7,0.3-0.8,0.5-0.2,0.5C4.9,1032.8,5.2,1032.7,5.3,1032.5L5.3,1032.5z M7.8,1045.9
		c-0.1-0.1,0-0.8,0.3-1.6c0.3-0.7,0.5-1.3,0.3-1.3s0.1-0.3,0.4-0.6c0.4-0.4,0.9-1.1,1.2-1.6c0.5-0.7,0.7-0.8,1.2-0.5
		c0.3,0.3,0.4,0.8,0.3,1.3c-0.5,1.6-1.7,4.1-2.1,4.1c-0.2,0-0.6,0.1-0.9,0.2C8.3,1046,7.9,1046,7.8,1045.9L7.8,1045.9z M78.2,1045.8
		c-0.5-0.1-0.8-0.3-0.7-0.5c0.1-0.2-0.3-0.5-1-0.6c-0.7-0.1-1.3-0.4-1.4-0.6c-0.3-0.6-0.9-0.4-0.9,0.3c0,0.3-0.2,0.5-0.5,0.5
		c-0.3-0.1-0.5-0.6-0.5-1.2c0-0.6-0.4-1.5-0.9-2c-0.8-0.8-0.9-1.2-0.6-2.7c0.1-1,0.5-2,0.8-2.3s0.6-1.1,0.6-1.7
		c0-1.7,0.8-4.2,1.5-4.7c0.3-0.3,0.5-0.5,0.3-0.5s0.2-0.4,0.7-0.9c0.5-0.5,1-1.1,1-1.3c0-0.2,1.2-0.9,2.6-1.4
		c2.1-0.8,2.7-0.9,2.9-0.5c0.4,0.7,0.4,1-0.2,1.6c-0.3,0.3-0.9,1.3-1.4,2.2c-0.8,1.6-0.9,2.1-0.7,7.1c0.1,4.6,0.1,5.3-0.4,5.1
		c-0.4-0.1-0.5-0.1-0.3,0.2c0.2,0.3,0.5,0.5,0.8,0.5c0.3,0,0.7,0.4,1,0.8c0.3,0.6,0.3,0.8,0,0.8c-0.3,0-0.3,0.2,0,0.8
		c0.3,0.6,0.3,0.8-0.2,1C79.5,1045.9,79.1,1046,78.2,1045.8L78.2,1045.8z M36.4,1043c0.1-0.2,0.3-0.4,0.5-0.4s0.4,0.2,0.5,0.4
		c0.1,0.2-0.2,0.4-0.5,0.4S36.4,1043.2,36.4,1043z M92,1042.8c0.1-0.3,0.3-0.6,0.4-0.6c0.1,0,0.2,0.3,0.2,0.6c0,0.3-0.2,0.6-0.4,0.6
		C92,1043.4,91.9,1043.1,92,1042.8z M85.9,1042.7c-1.3-0.5-2-1.7-1.9-3.2c0.1-0.8,0-1.4-0.2-1.3c-0.2,0.1-0.3-0.1-0.3-0.4
		c0-0.3-0.4-1-1-1.5c-0.5-0.5-0.9-1-0.8-1.1c0.1-0.1-0.1-0.5-0.5-0.9c-0.5-0.5-0.5-0.7-0.1-0.7c0.4,0,0.4-0.1,0.1-0.5
		c-0.8-0.8-0.5-2.1,0.8-3.4c0.7-0.7,1.5-1.2,1.7-1.2c0.3,0,0.6-0.4,0.7-1c0.1-0.5,0.4-1,0.6-1s0.3-0.2,0.2-0.4
		c-0.7-1.2,1.4-2.2,3.6-1.7c1.1,0.2,2.4,1.6,2.5,2.8c0.1,0.4,0.3,1,0.5,1.3c0.6,0.9,0.6,6,0,7.6c-0.3,0.8-0.8,1.6-1,1.8
		c-0.3,0.2-0.4,0.3-0.2,0.4c0.4,0-0.5,1.7-1.1,2.1c-0.3,0.2-0.5,0.5-0.5,0.7c0,0.5-1.5,1.9-2.1,1.9
		C86.7,1042.9,86.2,1042.8,85.9,1042.7L85.9,1042.7z M20,1042.1c0-0.3,0.8-0.5,2-0.5c1.6-0.1,1.9,0,1.3,0.3
		C22.3,1042.5,20,1042.6,20,1042.1z M93.4,1041.8c-0.7-1.1-0.6-1.3,0.5-2.6c0.9-1.1,1-1.1,1.5-0.4c0.8,1,0.8,2.5-0.1,3.2
		C94.4,1042.8,94,1042.7,93.4,1041.8L93.4,1041.8z M33.9,1041.5c-1-0.3-1.9-0.7-1.9-0.9c0-0.2-0.3-0.3-0.6-0.2
		c-0.6,0.2-2.6-0.3-3.9-1c-0.5-0.3-1.4-0.2-3.2,0.5c-2.8,1-5.8,0.8-6.4-0.3c-0.5-0.9-0.8-4.4-0.4-4.1c0.3,0.2,0.5-0.7,0.4-1.5
		c0-0.2,0.1-0.2,0.3-0.2c0.2,0.1,0.9-0.4,1.7-1.1c1.8-1.6,4-2.7,6.7-3.3c1.2-0.3,2.4-0.7,2.5-0.9c0.3-0.5,2-0.4,2.5,0.2
		c0.3,0.4,0.7,0.5,1.3,0.2c1.5-0.6,2.5,0.4,3.9,3.7c1.4,3.5,1.5,6.2,0.3,6.5c-0.4,0.1-0.9,0.6-1.1,1c-0.4,0.7-0.3,0.8,0.4,0.8
		c0.4,0,0.8,0.2,0.8,0.3C37.1,1042,35.8,1042.1,33.9,1041.5L33.9,1041.5z M35,1039.9c-0.4-0.1-0.9,0-1.1,0.2c-0.2,0.2,0,0.3,0.7,0.2
		C35.5,1040.2,35.6,1040.1,35,1039.9L35,1039.9z M97.7,1039.5c-0.7-0.2-1.1-0.7-1.6-1.9l-0.6-1.7l1.1-0.9c0.7-0.6,1.4-0.8,2.2-0.7
		c1.1,0.2,1.2,0.2,1.2,2.7c0,1.7-0.1,2.4-0.4,2.2c-0.2-0.1-0.5-0.1-0.7,0.1C98.7,1039.6,98.2,1039.6,97.7,1039.5z M43.8,1039
		c-0.5-0.2-1.2-0.6-1.5-0.8c-0.5-0.4-0.4-0.5,0.2-0.7c0.7-0.3,0.7-0.3-0.1-0.3c-0.6,0-0.8-0.3-0.8-0.8c0.1-1.2,0.4-1.3,2-0.8
		c2.1,0.7,2.4,1.1,2,2.6C45.2,1039.6,45.2,1039.6,43.8,1039z M63.5,1039.1c-0.1-0.2-0.1-0.4,0.2-0.4c0.2,0,0.4,0.2,0.4,0.4
		s-0.1,0.4-0.2,0.4S63.6,1039.3,63.5,1039.1z M63.6,1038.3c-0.9-0.5-0.5-1.1,0.6-1.1c0.5,0,0.7,0.1,0.6,0.3s-0.1,0.5,0.2,0.8
		C65.4,1038.8,64.6,1038.9,63.6,1038.3L63.6,1038.3z M92.9,1036.8c0.1-0.8,0.2-1.7,0.4-2c0.1-0.3,0.2-1.5,0.1-2.6
		c0-1.1,0.1-2.1,0.3-2.2c0.2-0.1,0.9,0,1.6,0.2c1.3,0.4,1.6,1.4,0.6,1.8c-0.3,0.1-0.6,0.4-0.6,0.6s0.2,0.3,0.4,0.1
		c0.4-0.3,0.5,0.6,0.2,1.5c-0.1,0.3-0.4,0.5-0.6,0.4c-0.2-0.1-0.2,0.1-0.1,0.4c0.1,0.3,0.1,0.6-0.1,0.6c-0.2,0-0.3,0.4-0.3,1
		c0.1,0.7-0.1,1-0.9,1.3C92.8,1038.2,92.7,1038.2,92.9,1036.8L92.9,1036.8z M41,1032.7c-1-0.9-1.7-2.2-2.1-3.8
		c-0.3-1.2,0.1-2.8,0.6-2.5c0.2,0.1,0.6-0.1,0.9-0.4c0.3-0.3,1.2-0.6,1.9-0.6c1,0,1.2,0.1,0.7,0.4c-0.4,0.3-0.3,0.3,0.7,0.2
		c0.7-0.1,1.3-0.1,1.2,0.1c-0.1,0.7,0.1,1.3,0.4,1.2c0.5-0.3,2.2,1.1,2.3,1.8c0.1,0.9-2.2,3.4-3.2,3.4c-0.8,0-0.8,0,0,0.3
		c0.7,0.3,0.7,0.3,0.1,0.6C43.2,1033.8,42,1033.6,41,1032.7L41,1032.7z M56.5,1032.9c-0.1-0.2,0.2-0.6,0.6-1
		c0.7-0.7,0.8-0.7,0.5-0.1c-0.1,0.4-0.3,0.8-0.3,1C57.4,1033.3,56.8,1033.4,56.5,1032.9z M0.1,1031.8c0.1-1,0.3-1.1,1.4-1.3
		c1.6-0.2,1.5,0.6-0.3,1.6l-1.3,0.7L0.1,1031.8L0.1,1031.8z M98.4,1032.5c0-0.2,0.4-0.6,0.8-1c0.8-0.7,0.8-0.7,0.8,0.3
		c0,0.8-0.2,1-0.8,1C98.8,1032.8,98.4,1032.7,98.4,1032.5z M15.5,1031.8c-0.2-0.4-0.1-0.5,0.3-0.4c0.3,0.1,0.2,0-0.2-0.3
		c-0.6-0.5-1.5-5.6-1.2-6.7c0.1-0.2-0.1-0.8-0.3-1.4c-0.2-0.7-0.2-1.2,0-1.5c0.3-0.3,0.2-0.5,0-0.7c-0.6-0.3-1.6,2.1-1.6,3.8
		c0,1.1-0.1,1.2-0.4,0.6c-0.5-0.8-1.7-0.9-2.2-0.2c-0.2,0.3-0.1,0.3,0.2,0.1c0.3-0.2,0.4-0.2,0.2,0.1c-0.2,0.3-0.6,0.3-1.3,0
		c-0.6-0.2-1.6-0.3-2.2-0.2c-1.1,0.2-1.3,0-1.8-1c-1-2.3-0.8-3.3,0.8-5.4c0.9-1.1,2.2-2.3,2.9-2.8c0.7-0.4,1.3-1,1.3-1.3
		c0-0.3,0.3-0.5,0.6-0.5c0.3,0,0.7-0.3,0.8-0.6c0.1-0.3,1.2-0.8,2.5-1c2-0.4,2.2-0.5,1.8-1.1c-0.4-0.5-0.4-0.5,0-0.3
		c0.3,0.2,0.5,0.1,0.5-0.1c0-0.2,0.6-0.6,1.4-0.8c1.1-0.3,1.6-0.3,2.2,0.2c0.4,0.3,0.6,0.6,0.3,0.6c-0.8,0-0.5,0.7,0.3,1
		c0.4,0.1,0.8,0.6,0.8,0.9c0,0.4,0.2,0.9,0.5,1.1c0.4,0.4,0.3,0.5-0.3,0.5c-0.6,0-0.7,0.1-0.2,0.4c0.5,0.3,0.5,0.4,0,0.8
		c-0.5,0.3-0.5,0.4,0.1,0.4c0.5,0,0.7,0.3,0.7,1.4c0,0.8,0.2,1.7,0.4,2.1c0.3,0.6,0.3,0.8-0.2,0.8c-0.5,0-0.6,0.4-0.4,2.1
		c0.2,1.6,0.1,2.3-0.4,3.1c-0.8,1.2-0.4,2,0.4,0.8c0.3-0.4,0.7-1,0.9-1.3c0.2-0.3,0.4-1,0.4-1.7c0-0.7,0.2-1.1,0.4-1
		c0.2,0.1,0.4-0.1,0.4-0.5c0-0.4,0.2-0.9,0.4-1c0.3-0.2,0.3-0.4-0.1-0.6c-0.4-0.2-0.3-0.3,0.3-0.3c0.9,0,1.2,0.5,0.5,1
		c-0.3,0.2-0.3,0.4-0.1,0.7c0.7,0.9,0.9,2.7,0.5,3.8c-0.4,1.1-0.9,1.2-1.8,0.6c-0.3-0.2-0.6-0.1-0.7,0.1s0,0.4,0.2,0.4
		c0.3,0,0.2,0.2-0.2,0.5c-0.4,0.3-1,0.5-1.4,0.4c-0.4-0.1-0.9,0.1-1.2,0.5c-0.5,0.6-0.5,0.7,0.1,0.4c0.3-0.1-0.2,0.6-1.3,1.7
		C17.4,1032.2,15.9,1032.9,15.5,1031.8L15.5,1031.8z M16.3,1013.3c-0.1-0.2-0.4-0.4-0.6-0.4s-0.3,0.2-0.1,0.4
		c0.1,0.2,0.4,0.4,0.6,0.4S16.4,1013.5,16.3,1013.3z M95.8,1029.6c-0.9-0.4-1.7-0.9-1.7-1c0-0.1,1.1-0.5,2.4-0.7
		c1.3-0.3,2.6-0.6,2.9-0.7c0.8-0.3,0.8,2.3-0.1,3c-0.4,0.4-0.6,0.4-0.4,0c0.3-0.6,0.1-0.6-0.9-0.2
		C97.7,1030.2,96.8,1030.1,95.8,1029.6L95.8,1029.6z M1.8,1028.9c-0.1-0.2,0.2-0.4,0.8-0.4c0.5,0,1,0.2,1,0.4c0,0.2-0.3,0.4-0.8,0.4
		S2,1029.2,1.8,1028.9z M0.1,1028c0-0.5,0.2-1,0.3-1s0.3,0.4,0.1,1c-0.1,0.5-0.3,1-0.3,1S0.1,1028.5,0.1,1028z M12.4,1027.7
		c-0.7-1.4-0.7-1.5-0.3-1.5c0.3,0,1.3,2.4,1.1,2.6C13.1,1028.9,12.7,1028.4,12.4,1027.7z M3.4,1026c-0.1-0.5-0.1-1.4,0.1-1.9
		c0.3-0.9,0.3-0.9,0.8,0.3c0.3,0.6,0.5,1.5,0.5,1.9C4.8,1027.3,3.6,1027.1,3.4,1026z M91.8,1025.6c-0.7-1.1-0.7-1.5-0.3-1.8
		c0.3-0.2,0.3-0.3,0.1-0.4c-0.2,0,0.5-0.3,1.6-0.7c1.3-0.4,2-0.5,2.2-0.3c0.2,0.3,0.3,0.2,0.3-0.1c0-0.3,0.3-0.5,0.8-0.5
		c0.6,0,0.7,0.2,0.6,1.1c-0.1,0.6,0,1.2,0.2,1.3c0.6,0.4-1.8,2.2-3.2,2.5C92.7,1027,92.6,1026.9,91.8,1025.6L91.8,1025.6z
		 M56,1026.3c-0.7-0.1-0.9-0.4-0.9-1.4c0-0.7,0-1.5,0-1.8c0-0.3,0.1-1,0.2-1.6c0.2-0.7,0-1.1-0.4-1.3c-0.3-0.1-0.5-0.5-0.3-0.8
		c0.3-0.8,0.8-0.8,1,0.1c0.1,0.4,0.2,0.3,0.2-0.4c0-0.6,0.3-1.1,0.6-1.1c0.3,0,0.6-0.3,0.7-0.7c0.2-0.6,0.6-0.8,2.4-0.9
		c1.2-0.1,2.4,0,2.6,0.2c0.2,0.2,0.4,0.2,0.4-0.1c0-0.3,0.6-0.5,2.1-0.4c1.9,0.1,2.1,0.2,2.1,1c0,0.6,0.2,0.8,0.6,0.7
		c0.3-0.1,1,0.2,1.5,0.7c0.5,0.5,1.3,0.9,1.8,0.8c0.5-0.1,1.2,0.1,1.5,0.3c0.4,0.4,0.6,0.4,0.6-0.1c0-0.4,0.1-0.4,0.5,0.1
		c0.3,0.4,0.8,0.7,1.2,0.8c1.3,0.2,1.5,1.7,0.4,3c-0.9,1-1,1.1-4.9,1c-2.2,0-4.4,0.1-4.9,0.3c-1,0.4-2-0.1-1.6-0.8
		c0.2-0.3,0.1-0.4-0.2-0.2c-0.3,0.2-0.4,0.5-0.3,0.8c0.2,0.6-1.1,1-3.6,1.2c-1,0-1.8,0.3-1.9,0.5c-0.1,0.2-0.3,0.4-0.4,0.4
		C57,1026.5,56.5,1026.4,56,1026.3L56,1026.3z M57.9,1023.9c-0.1-0.6-0.2-1.2-0.3-1.2c-0.1,0-0.2,0.5-0.3,1.2
		c-0.1,0.7,0,1.2,0.3,1.2C57.9,1025,58,1024.6,57.9,1023.9L57.9,1023.9z M63.8,1017c-0.1-0.3-0.4-0.5-0.6-0.3
		c-0.2,0.1-0.2,0.4,0.1,0.6C64.1,1017.7,64.1,1017.7,63.8,1017z M60.2,1026.2c0-0.2,0.2-0.4,0.4-0.4s0.4,0.2,0.4,0.4
		c0,0.2-0.2,0.4-0.4,0.4S60.2,1026.4,60.2,1026.2z M27.4,1024.3c0-0.2,0.2-0.4,0.4-0.4s0.4,0.2,0.4,0.4c0,0.2-0.2,0.4-0.4,0.4
		C27.6,1024.6,27.4,1024.5,27.4,1024.3z M36.2,1023.2c0.1-0.4,0.1-0.6-0.1-0.4c-0.6,0.3-1.2-2.1-0.9-3.1c0.2-0.5,0.7-0.9,1.2-1.1
		s1.2-0.5,1.6-0.9c0.4-0.3,0.8-0.5,1.1-0.3c0.2,0.1,0.4,0.1,0.4-0.2c0-0.2-0.5-0.4-1.1-0.4c-0.9,0-1.1-0.1-1-0.8
		c0.1-0.4-0.1-1-0.4-1.3c-0.7-0.7-1.2-3-0.7-3c0.2,0,0.3-0.2,0.2-0.5c-0.1-0.3,0.1-0.6,0.6-0.8c1-0.3,0.8-1.3-0.3-1.1
		c-0.4,0.1-1.1,0.2-1.6,0.3c-0.7,0.1-0.9,0-0.9-0.8c0-1.1,1-2,2.1-1.8c0.4,0.1,0.7,0,0.5-0.3c-0.2-0.4,0-0.4,2-0.5
		c0.6,0,0.8-0.2,0.7-0.5c-0.1-0.4,0-0.5,0.6-0.3c0.5,0.1,0.8,0,0.8-0.4c0-0.3,0.3-0.8,0.7-1c0.4-0.2,0.5-0.4,0.4-0.4
		c-0.5,0,0.8-1.2,1.3-1.2c0.2,0,0.4-0.2,0.4-0.4c0-0.2,0.5-0.1,1.2,0.3c0.8,0.5,1.2,1,1.2,1.6c0,0.5,0.2,1.2,0.4,1.5
		c0.3,0.4,0.1,0.7-0.5,1c-0.5,0.2-1,1-1.2,1.7c-0.2,0.7-0.7,1.4-1.1,1.5c-0.8,0.2-1,0.8-0.4,1c0.2,0.1,0.4,0.6,0.5,1.1
		c0.1,0.5,0.3,1.2,0.4,1.4c0.4,0.6,0,1.7-1,2.7c-0.5,0.5-0.7,1.1-0.5,1.5c0.2,0.4,0.1,0.6-0.3,0.5c-0.4-0.1-0.5,0.2-0.6,1.2
		c-0.1,0.8,0.1,1.3,0.3,1.1c1-0.6,0.6,0.5-0.6,1.6c-0.7,0.7-1.3,1.1-1.3,1c0-0.1-0.3,0.1-0.6,0.5c-0.3,0.4-0.5,0.5-0.3,0.2
		c0.2-0.5,0.2-0.5-0.2-0.1c-0.3,0.3-1.1,0.5-1.8,0.5C36.2,1023.9,36,1023.7,36.2,1023.2L36.2,1023.2z M79.9,1021.7
		c-0.7-0.6-0.7-0.6,0-1.5c0.4-0.5,0.8-0.9,0.8-1c0.1-0.3,4.5-0.8,5.1-0.6c1,0.4,0.5,2.2-0.6,2.5c-0.5,0.1-0.8,0.3-0.6,0.3
		c0.2,0,0,0.2-0.4,0.4C82.9,1022.4,80.7,1022.3,79.9,1021.7L79.9,1021.7z M26.4,1021.3c-0.2-0.5-0.1-0.6,0.3-0.1
		c0.7,0.6,0.7,0.8,0.2,0.8C26.8,1021.9,26.6,1021.6,26.4,1021.3z M0.3,1018.1c-0.4-1.9-0.4-2,0.5-2c0.5,0,0.8,0.3,0.8,0.8
		c0,0.4-0.2,0.8-0.4,0.8s-0.4,0.4-0.5,0.9C0.7,1019.2,0.6,1019.1,0.3,1018.1z M25.3,1018.8c-0.2-0.3-0.2-0.6-0.1-0.7
		c0.3-0.3,0.7,0.2,0.5,0.7C25.6,1019.2,25.5,1019.2,25.3,1018.8L25.3,1018.8z M98,1018.4c0-0.2-0.3-0.3-0.6-0.2
		c-0.7,0.3-1.2-1-0.8-2.1c0.5-1.6,3.3-0.6,3.3,1.2c0,0.4-0.3,0.9-0.8,1.1C98.3,1018.9,98,1018.9,98,1018.4L98,1018.4z M67.2,1016.6
		c0-0.5,0.1-0.5,0.2-0.2c0.1,0.3,0.1,0.6,0,0.7C67.3,1017.2,67.2,1017,67.2,1016.6L67.2,1016.6z M34.1,1012.4
		c-0.2-0.5-0.2-1.1-0.1-1.4c0.2-0.4,0-0.5-0.5-0.3c-0.4,0.2-0.6,0.1-0.4,0c0.6-0.6,2.5-0.3,2.7,0.4c0.1,0.4,0,0.7-0.1,0.7
		c-0.2,0-0.2,0.4-0.1,0.8C35.8,1013.7,34.5,1013.6,34.1,1012.4L34.1,1012.4z M59.7,1009.1c0-1.2,0-2.5,0-2.8c0.1-0.5,0-0.5-0.3,0
		c-0.2,0.3-0.3,0.7-0.2,0.9c0.1,0.2,0,0.4-0.2,0.5c-0.4,0.3-0.8-0.6-0.7-1.6c0.1-0.5,0.4-0.7,0.9-0.7c0.5,0,0.8-0.1,0.8-0.2
		c0-0.2,0.5-0.4,1.2-0.5c0.7-0.1,1.8-0.9,2.6-1.6c1.4-1.4,1.9-1.6,2.7-1.1c0.5,0.3,1,2.5,0.5,2.2c-0.2-0.1-0.3,0-0.3,0.2
		c0,0.2-0.2,0.4-0.5,0.4c-0.3,0-1.2,0.5-2,1c-1.2,0.8-1.5,1.2-1.3,2c0.1,0.7,0.1,0.8-0.3,0.5c-0.4-0.3-0.5-0.1-0.7,0.8
		c-0.3,1.4-0.9,2.3-1.7,2.3C59.9,1011.4,59.8,1010.7,59.7,1009.1L59.7,1009.1z M91.6,1009.8c0.1-1,0-1.3-1-1.6
		c-0.6-0.2-1.1-0.5-1.1-0.7c0-0.1-0.5-0.2-1.2-0.1c-0.6,0-1.1-0.1-1-0.3c0.1-0.2,0.5-0.2,0.9-0.1c0.6,0.2,0.6,0.2,0-0.3
		c-1-0.8-1.2-1.9-0.5-2.2c0.4-0.2,0.5-0.5,0.4-1.1c-0.3-1.1,0.1-1.7,1.3-2c1.3-0.3,2.3,1,1.5,2.1c-0.3,0.4,0.3,0.1,1.2-0.6
		c1.4-1,1.8-1.2,2.4-0.8c0.4,0.3,0.7,0.7,0.7,1c0,0.5,0,0.5,0.4,0c0.3-0.5,0.4-0.3,0.4,0.5c0,0.6,0.2,1.5,0.4,1.9
		c0.4,0.7,0.3,0.8-0.4,0.6c-1-0.3-1-0.2-0.1,0.7c0.5,0.5,0.5,0.6,0.1,0.5c-0.5-0.2-1.6,0.5-1.6,1c0,0.5-1,1.3-1.8,1.4
		c-0.4,0.1-0.7,0.4-0.7,0.6c0.1,0.3-0.1,0.5-0.3,0.5S91.5,1010.4,91.6,1009.8L91.6,1009.8z M91.8,1007.3c0-0.1-0.4-0.2-0.8-0.4
		c-0.4-0.1-0.7,0-0.6,0.1C90.6,1007.4,91.8,1007.6,91.8,1007.3L91.8,1007.3z M9.9,1009.6c-0.6-0.6-0.8-1-0.5-1.2
		c0.6-0.3-0.2-1.4-1-1.4c-0.5,0-0.7-0.8-0.6-1.7c0-0.2-0.2-0.2-0.5-0.1c-0.3,0.1-0.7,0-0.8-0.2c-0.1-0.3-0.4-0.2-0.7,0.3
		c-0.6,0.7-0.6,0.7-1.6,0c-1.2-0.9-1.3-1.3-0.4-1.4c0.6,0,0.6-0.1-0.1-0.4c-0.4-0.2-1.1-0.4-1.5-0.5c-0.4-0.1-0.6-0.4-0.4-0.8
		c0.2-0.4,0.4-0.5,0.7-0.2c0.7,0.7,1,0.5,1-0.6c0-0.5,0.2-1,0.5-1s0.3-0.1,0.2-0.3c-0.1-0.1,0.1-0.5,0.5-0.8
		c1.7-1.2,3.3,1.2,1.8,2.9c-0.5,0.6-0.6,0.9-0.3,0.9c0.3,0,0.7-0.2,0.9-0.5c0.2-0.3,1.3-0.6,2.3-0.7c1.8-0.2,1.9-0.1,2.3,0.9
		c0.4,1.2,1.5,1.9,1.5,0.9c0-0.3,0.3-0.9,0.6-1.2c0.9-0.9,0.4-5-0.9-6.5c-2.4-2.8-0.1-5.8,6.5-8.8c1.6-0.7,3.3-1.6,3.7-1.8
		c1.2-0.8,1.3-0.7,1.2,1.5c-0.1,1.1-0.2,3.6-0.4,5.5l-0.2,3.5l1.3,1.2c0.7,0.7,1.2,1.5,1.1,1.8c-0.1,0.3-1.5,1.5-3.1,2.5l-3,1.9
		l-1.5-0.8c-0.8-0.5-1.7-0.7-2.1-0.6c-0.8,0.3-0.8,0.9-0.1,0.9c0.3,0,1,0.4,1.6,0.8c0.9,0.7,1,1,0.8,2c-0.1,0.7-0.3,1.4-0.3,1.7
		c0,0.3-0.3,0.5-0.5,0.5c-0.3,0-0.5,0.2-0.5,0.4c0,0.3-0.2,0.3-0.6,0c-0.4-0.4-0.6-0.4-0.6,0c0,0.3-0.2,0.4-0.4,0.2
		c-0.4-0.3-2.4,0.5-2.4,1c0,0.2-0.4,0.4-0.9,0.5c-0.5,0.1-1.1,0.3-1.5,0.4C11.1,1010.4,10.4,1010.1,9.9,1009.6L9.9,1009.6z
		 M9.2,1005.6c-0.3-0.3-1,0.4-0.7,0.8c0.2,0.3,0.4,0.2,0.6-0.1C9.2,1006,9.3,1005.7,9.2,1005.6z M80.9,1009.3
		c-0.5-0.2-0.8-0.7-0.7-0.9c0.1-0.3,0-0.5-0.3-0.5c-0.6,0-1.8-1.6-1.8-2.5c0-0.3,0.3-0.7,0.6-0.8c0.4-0.1,0.5,0,0.3,0.4
		c-0.1,0.3-0.1,0.6,0.1,0.5c0.8-0.1,1,0.1,0.5,0.6c-0.4,0.5-0.4,0.6,0.1,0.6c0.3,0,0.6-0.2,0.6-0.4c0-0.3,0.4-0.3,1-0.2
		c0.7,0.2,1,0.1,1-0.3c0-0.9,0.7-0.7,1.5,0.5c1.1,1.6,1.1,2.5-0.1,2.2c-0.7-0.2-0.8-0.2-0.4,0.2c0.6,0.6,0.6,1.1,0.1,1.1
		c-0.2,0-0.3-0.2-0.2-0.4c0.1-0.2,0.1-0.4-0.1-0.4s-0.5,0.2-0.6,0.4C82.3,1009.9,82.1,1009.9,80.9,1009.3L80.9,1009.3z M63.5,1009
		c0.1-0.2,0.3-0.4,0.4-0.4c0.1,0,0.2,0.2,0.2,0.4c0,0.2-0.2,0.4-0.4,0.4S63.4,1009.2,63.5,1009z M23.4,1008.4
		c-1.2-0.2-1.6-1.2-0.8-2.2c0.3-0.4,0.6-1.2,0.6-1.8c0.1-1.3,0.5-2.2,1-1.9c0.2,0.1,0.7-0.3,1.1-0.8c0.4-0.6,0.8-0.8,0.8-0.6
		s0.2,0.4,0.4,0.4s0.4-0.1,0.3-0.3c-0.2-1.2,1-2.1,3.5-2.6c1.4-0.3,1.5-0.2,0.9,0.9c-0.3,0.6-0.3,0.8,0.1,0.8c0.3,0,0,0.5-0.7,1.1
		c-1,0.9-1,1.1-0.5,1.2c0.4,0.1,0.7,0.3,0.7,0.5c0,0.2,0.4,0.4,0.9,0.4c0.5,0,1.6-0.8,2.8-2c1.3-1.3,2.1-1.9,2.6-1.8
		c0.4,0.1,0.9-0.1,1.2-0.4c0.4-0.5,1.3-0.4,1,0.2c-0.1,0.2,0.2,0.3,0.7,0.3c0.5,0,0.8,0.2,0.8,0.5c-0.1,0.3,0.1,0.5,0.3,0.5
		s0.5,0.3,0.6,0.6c0.2,0.4,0.1,0.6-0.3,0.4c-0.3-0.1-0.5,0-0.5,0.3c0,0.3,0.2,0.4,0.4,0.3s0,0.2-0.6,0.6c-0.5,0.4-1.4,0.9-2,1.1
		s-1.3,0.5-1.8,0.8c-0.5,0.3-1.7,0.6-2.8,0.6c-1.8,0.1-2,0.2-1.8,0.9c0.1,0.4,0.1,0.6-0.1,0.5c-0.2-0.2-0.6,0-0.9,0.3
		c-0.4,0.3-1,0.6-1.4,0.7c-0.4,0.1-1,0.3-1.2,0.4c-0.3,0.2-0.5,0.1-0.5-0.1c0-0.2-0.2-0.3-0.5-0.1
		C27.1,1008.5,24.9,1008.6,23.4,1008.4L23.4,1008.4z M54.1,1007.1c-0.1-0.2-0.1-0.4,0.2-0.4c0.2,0,0.4,0.2,0.4,0.4
		c0,0.2-0.1,0.4-0.2,0.4S54.2,1007.3,54.1,1007.1z M64.3,1006.7c-0.1-0.2-0.1-0.5,0.1-0.6c0.2-0.1,0.5-0.1,0.6,0.1
		c0.1,0.2,0.1,0.5-0.1,0.6C64.7,1007,64.4,1006.9,64.3,1006.7L64.3,1006.7z M55.1,1006.1c0-0.2-0.5-0.7-1-0.9
		c-1.1-0.6-1.3-1.2-0.5-1.2c0.7,0,1.9,1.4,1.7,2C55.2,1006.3,55.1,1006.3,55.1,1006.1L55.1,1006.1z M76.9,1005.3
		c-0.3-0.3-0.3-0.6-0.1-0.6c0.2,0,0.5,0.3,0.6,0.6c0.1,0.3,0.2,0.6,0.1,0.6S77.2,1005.6,76.9,1005.3z M59.6,1004.2
		c1.3-0.8,3.3-1.4,3.3-1c0,0.2-0.5,0.5-1.2,0.6c-0.6,0.1-1.3,0.4-1.4,0.6c-0.1,0.2-0.5,0.3-0.9,0.3
		C58.9,1004.7,58.9,1004.6,59.6,1004.2z M76.9,1004c0-0.2-0.5-0.4-1.1-0.5c-1.1-0.2-1.1-0.2-0.1-0.2c0.5,0,1.3,0.2,1.8,0.5
		c0.7,0.5,0.7,0.6,0.1,0.6C77.3,1004.3,76.9,1004.2,76.9,1004L76.9,1004z M52,1002.5c0-0.5,0.1-0.5,0.6-0.2c0.8,0.6,1.4,0.2,1.1-0.8
		c-0.2-0.7-0.1-0.8,0.8-0.6c1.2,0.3,1.3,0.2,0.5-0.6c-0.5-0.5-0.4-0.7,0.5-1.5c1.9-1.7,3.4-1.2,2.2,0.7c-0.6,0.9-0.7,1-1.4,0.3
		c-0.4-0.4-0.8-0.5-0.8-0.2c0,0.2,0.2,0.5,0.4,0.5c0.7,0,0.1,1.6-0.8,2.3C53.9,1003.3,52,1003.4,52,1002.5z M74.3,1001.8
		c-0.1-0.4-0.5-0.5-1-0.4c-0.9,0.2-2.6-0.5-2.6-1.1c0-0.2-0.5-0.8-1-1.3c-0.8-0.7-1-1.1-0.8-1.9c0.4-1.4,1.3-2.9,1.8-2.6
		c0.2,0.1,0.4,0,0.4-0.2c0-0.2,0-0.5,0-0.7s-0.9-0.2-2.1-0.2c-1.7,0-2.4,0.2-3.4,1c-1.1,0.8-1.8,1-4,1.1l-2.7,0.1l-0.3-1.5
		c-0.4-1.8,0.3-2.8,2.8-4c0.8-0.4,1.4-0.9,1.3-1.1c-0.1-0.2,0-0.2,0.2-0.1c0.2,0.2,0.8,0.1,1.3-0.2c0.6-0.3,1-0.3,1.2,0
		c0.2,0.2,0.6,0.3,0.9,0.2c0.3-0.1,0.5,0.1,0.5,0.5c0,0.6,0.2,0.6,1.1-0.3c1.4-1.3,3.7-1.6,6.1-1c1,0.3,2,0.4,2.2,0.3
		c0.2-0.1,0.9-0.2,1.5-0.2s1.4,0.1,1.8,0.1c0.8,0,0.9,0.8,0.1,0.8c-0.3,0-0.5,0.2-0.4,0.4s0,0.4-0.3,0.4c-0.3,0-0.7,0.2-0.8,0.5
		c-0.1,0.4-0.3,0.3-0.6-0.1c-0.4-0.5-0.5-0.5-0.8,0s-0.4,0.5-0.4,0c0-0.3,0-0.7,0-0.9c0.1-0.7-0.8-0.2-1.1,0.6
		c-0.2,0.5-0.8,1-1.4,1.2c-1.4,0.3-1,1.2,0.5,1.3c0.7,0.1,1.2,0.3,1,0.5s0,0.4,0.2,0.6c0.2,0.1,0.6-0.1,0.9-0.5
		c0.3-0.4,0.7-0.7,1-0.6s0.8-0.1,1.2-0.5c0.7-0.7,0.7-0.7,0.8,0c0.1,0.4-0.1,0.8-0.3,0.9c-1,0.3-1.5,1.2-1.3,2.4
		c0.1,0.7,0.4,1.3,0.6,1.5c0.3,0.2,0.3-0.1,0.1-0.8c-0.2-0.8-0.1-1,0.2-0.9c0.6,0.2,0.5,2.3-0.2,2.7c-0.4,0.3-0.4,0.4,0.1,0.7
		c0.5,0.3,0.5,0.4-0.1,0.4c-0.6,0-0.6,0.1-0.3,0.5c0.3,0.4,0.3,0.6-0.2,0.8c-0.4,0.1-0.5,0.4-0.4,0.5c0.3,0.3-1.7,1.7-2.4,1.7
		C74.8,1002.4,74.5,1002.1,74.3,1001.8L74.3,1001.8z M72.7,992.6c0-0.2-0.2-0.4-0.4-0.4s-0.4,0.2-0.4,0.4s0.2,0.4,0.4,0.4
		S72.7,992.8,72.7,992.6z M90.2,1000.3c-0.1-0.1-0.7-0.2-1.3-0.3c-0.6-0.1-1.9-0.4-2.9-0.6c-1.4-0.4-1.7-0.6-1.6-1.3
		c0.1-0.5-0.1-0.8-0.4-0.8c-0.3,0.1-0.4-0.2-0.2-0.6c0.2-0.4,0.1-0.5-0.2-0.4c-0.2,0.1-0.5-0.1-0.6-0.6c-0.2-0.6,0.1-1.1,0.9-1.8
		c1.3-1.1,1.4-1.6,0.5-1.6c-0.4,0-0.5,0.1-0.4,0.3c0.3,0.3-0.4,1.3-1,1.3c-0.5,0-0.4-1.1,0.1-1.3c0.4-0.2,0.4-0.2,0-0.2
		c-0.7,0-0.6-1.2,0.2-1.5c0.4-0.1,0.8-0.4,1-0.7c0.3-0.4,3.6-0.4,4.2,0c0.5,0.3,1.4,2.1,1.7,3.5c0.2,1.1,0.2,1.1-0.4,0.4
		c-0.6-0.7-0.6-0.7-0.4-0.1c0.1,0.4,0.4,1.1,0.5,1.7c0.3,1,0.7,1.2,1.1,0.5c0.2-0.3,0.5-0.2,1,0.2c0.4,0.4,0.9,0.6,1.1,0.4
		s0.3,0.2,0.3,0.6c0,0.5-0.4,1-0.9,1.1c-0.8,0.3-1,0.8-0.9,1.6C91.8,1000.4,90.5,1000.6,90.2,1000.3L90.2,1000.3z M88.7,996.4
		c0-0.1-0.3-0.3-0.6-0.4c-0.3-0.1-0.5-0.1-0.4,0.2C87.9,996.5,88.7,996.7,88.7,996.4z M64.5,998.9c-0.3-0.4-0.8-0.8-1.3-0.8
		s-0.8-0.2-0.8-0.4c0-0.6,0.6-0.5,1.6,0.3c0.5,0.4,1.1,0.7,1.4,0.6c0.2-0.1,0.5,0.1,0.7,0.4s0.1,0.6-0.1,0.6c-0.2,0-0.4-0.2-0.4-0.5
		c0-0.4-0.1-0.4-0.3,0C65.1,999.5,64.9,999.4,64.5,998.9L64.5,998.9z M66.6,998.9c-0.2-0.3-0.2-0.6-0.1-0.7c0.3-0.3,0.7,0.2,0.5,0.7
		C67,999.3,66.9,999.3,66.6,998.9L66.6,998.9z M6.1,998.5c-0.3-0.4,0.3-0.9,0.7-0.5c0.4,0.4,0.3,0.9-0.1,0.9
		C6.5,998.9,6.3,998.7,6.1,998.5z M42.7,998c-0.7-0.7-0.6-1.4,0.3-1.4c0.4,0,0.7,0.2,0.6,0.3c-0.1,0.2,0,0.4,0.2,0.5
		c0.4,0.3,0.2,1-0.3,1C43.3,998.5,42.9,998.3,42.7,998z M65,997.7c-0.1-0.2,0-0.4,0.4-0.4c0.3,0,0.6,0.2,0.6,0.4s-0.2,0.4-0.4,0.4
		C65.5,998.1,65.2,997.9,65,997.7z M45.5,996.4c0.3-2,0.6-2.6,1.7-2.6c0.5,0,0.9-0.1,0.7-0.3c-0.2-0.2,1.2-1.7,1.6-1.7
		c0.1,0,1.5-0.3,3-0.6c5.6-1.3,5.5-1.2,5.5-0.6c0,0.3-0.5,1.3-1,2.2s-1,1.8-0.9,2c0.1,0.3-0.3,0.6-0.9,0.8c-1.3,0.3-2.2,0.2-2.6-0.4
		c-0.2-0.3-0.2-0.2-0.1,0.2c0.2,0.5,0,0.7-0.6,0.7c-0.4,0-1.1,0.2-1.5,0.3c-1.1,0.6-3.4,1.2-4.3,1.2
		C45.4,997.7,45.3,997.5,45.5,996.4L45.5,996.4z M61.3,996.9c0-0.8,0.9-1,2.7-0.4c0.9,0.3,0.8,0.3-0.5,0.4c-0.8,0-1.5,0.2-1.5,0.4
		s-0.2,0.4-0.4,0.4S61.3,997.3,61.3,996.9z M96.4,997.5c-0.2-0.2,0.3-1.4,1.2-2.6c0.5-0.6,0.7-1.4,0.8-2.4c0-0.2,0.3-0.2,0.6-0.1
		s0.5,0.1,0.4-0.1c-0.1-0.2,0-0.5,0.2-0.6c0.3-0.2,0.4,0.7,0.4,2.5v2.8h-1.1c-0.6,0-1.3,0.2-1.4,0.4
		C97.2,997.8,96.7,997.8,96.4,997.5L96.4,997.5z M0.1,994.3c0-2.6,0.1-2.8,0.8-2.8c0.4,0,1.8-0.3,3.1-0.6s2.4-0.6,2.5-0.4
		c0.3,0.3,0.7,2,0.6,3c-0.1,2.3-1.4,3.1-4.5,3c-1.1,0-2.1,0.1-2.2,0.4C0.2,996.9,0.1,995.8,0.1,994.3L0.1,994.3z M27.8,995.9
		c-0.9-0.6-1.3-3.2-0.8-5c0.3-1.2,0.3-1.5-0.3-1.8c-0.6-0.3-0.6-0.6-0.1-2.2c0.6-2.3,1.3-3.1,3.4-4c2.7-1.2,3.1-1.3,4.2-0.4
		c1.4,1.1,1.4,2.5,0,3.1c-1.4,0.6-2.3,1.9-1.5,2.2c0.3,0.1,0.9,0,1.4-0.2c0.8-0.4,1.1-0.2,3.5,2.3c3.2,3.3,3.6,4.5,1.3,4.6
		c-1.7,0.1-2.8,0.5-3.1,1.2c-0.1,0.3-0.4,0.5-0.5,0.4s-1.8-0.1-3.6,0.1C29.4,996.3,28.3,996.2,27.8,995.9L27.8,995.9z M32.1,988.2
		c0-0.1-0.2-0.3-0.4-0.4s-0.4-0.1-0.4,0.2c0,0.2,0.2,0.4,0.4,0.4S32.1,988.3,32.1,988.2z M9,994.3c0.2-0.4,0.6-0.9,0.9-1.1
		c0.3-0.2,0.3,0,0,0.5c-0.2,0.4-0.6,0.9-0.9,1.1C8.7,995,8.7,994.8,9,994.3z M43.9,991.8c-0.3-0.3-0.5-0.8-0.5-1.2
		c0-0.5-0.2-0.7-0.5-0.5c-0.4,0.1-0.5-0.2-0.5-1c0-0.6-0.2-1.3-0.5-1.5c-0.3-0.2-0.5-0.9-0.5-1.6c-0.1-2.8-0.2-2.9-1.9-2.9
		c-1.4,0-2.3-0.5-2.3-1.4c0-1.1,8.1-2.1,8.8-1.1c0.2,0.4,0.2,0.4-0.2,0.2c-0.4-0.3-0.4-0.2,0,0.4c0.4,0.6,0.5,0.8,0.1,0.9
		c-0.3,0.1-0.5,0.5-0.5,0.9s0.2,0.7,0.4,0.5c0.7-0.4,0.4,0.4-0.4,1.5c-0.9,1.2-1,2.1-0.3,3.2c0.9,1.2,1.1,3.3,0.4,3.3
		c-0.3,0-0.6,0.2-0.6,0.4C44.9,992.4,44.4,992.3,43.9,991.8z M43,987c0-0.1-0.3-0.4-0.7-0.7c-0.6-0.5-0.6-0.5-0.1,0.1
		C42.7,987.1,43,987.3,43,987z M40.1,990.7c-0.1-0.2-0.1-0.6,0-0.8c0.2-0.3,0.1-0.3-0.2-0.2c-0.2,0.2-0.5,0.1-0.5-0.1
		s-0.5-0.6-1.2-1c-1.4-0.8-1.5-1.2-0.2-1.3c0.7-0.1,1.1,0.2,1.4,0.8c0.3,0.5,0.7,1,1,1.2c0.6,0.4,0.7,1.3,0.2,1.6
		C40.5,991,40.2,990.9,40.1,990.7L40.1,990.7z M0.1,987.9c0-2.6,0.1-3.1,0.8-3.4c0.4-0.2,1-0.3,1.2-0.1c0.3,0.2,0.3,0.1,0.2-0.1
		c-0.3-0.5,1.4-2.5,2.1-2.5c0.2,0,0.3,0.2,0.2,0.4c-0.3,0.5,0.7,1.6,1.5,1.6c0.3,0,0.8,0.3,1,0.8c0.5,1,0.5,1.4-0.1,0.9
		c-0.3-0.2-0.8-0.3-1.1-0.3c-0.3,0-0.8-0.2-1-0.5c-0.4-0.5-0.6-0.5-1.3,0c-0.8,0.5-0.8,0.5,0.5,1.8c2.4,2.2,1.4,4.4-1.9,3.9
		c-1.1-0.2-1.7-0.1-1.9,0.3C0.2,990.7,0.1,989.7,0.1,987.9L0.1,987.9z M94,990.4c-0.1-0.1-0.1-0.9,0-1.8c0.2-1.3,0.1-1.5-0.5-1.5
		c-1.5,0-1.8-0.6-1.2-1.8c0.3-0.6,0.5-1.5,0.4-2c-0.2-0.6-0.1-0.8,0.3-0.7c0.3,0.1,0.5-0.1,0.5-0.4c0-0.3,0.4-0.8,0.8-1.1
		c0.4-0.3,0.8-0.8,0.8-1s0.4-0.6,0.8-0.7c1.1-0.4,1.7,0.8,0.7,1.4c-0.3,0.2-0.9,1.2-1.3,2.1s-0.9,1.5-1,1.3
		c-0.4-0.4,0.1,1.3,0.8,2.9c0.3,0.7,0.5,1.4,0.3,1.7c-0.1,0.2,0,0.4,0.3,0.4c0.3,0,0.1,0.2-0.4,0.5s-0.8,0.6-0.6,0.8
		c0.1,0.1,0.1,0.3-0.1,0.3C94.4,990.7,94.1,990.6,94,990.4L94,990.4z M98.5,990.5c0.1-0.2,0.1-0.7-0.1-1.1c-0.2-0.5-0.1-1.3,0.2-2.1
		c0.9-2.1,1.4-1.9,1.4,0.3c0,1.7-0.1,2.2-0.9,2.6C98.6,990.5,98.3,990.6,98.5,990.5L98.5,990.5z M47.7,989.5
		c-0.7-0.2-1.1-0.7-1.6-1.9l-0.6-1.7l1.2-0.9c0.6-0.5,1.2-0.8,1.3-0.6s1.1,0.2,2.3,0c2.4-0.3,3-0.2,2.6,0.4
		c-0.1,0.2-0.4,0.3-0.6,0.1c-0.2-0.1-0.4,0-0.4,0.2c0,0.4,0.2,0.5,2.1,0.6c1.4,0.1,1.9,0.9,1.3,1.9c-0.7,1.2-1.1,1.4-3,1.4
		c-1,0-2.1,0.1-2.4,0.2c-0.5,0.2-0.7,0.1-0.7-0.2c0-0.4-0.1-0.4-0.3,0.1C48.7,989.6,48.4,989.7,47.7,989.5L47.7,989.5z M8.7,987.2
		c-1.1-0.9-1.1-1.1,0.1-1.3c0.7-0.1,1.3,0.1,1.8,0.5c0.4,0.4,0.7,0.5,0.7,0.3c0-0.3,0.1-0.4,0.4,0C13.1,987.9,10.2,988.4,8.7,987.2z
		 M84,986.4c0-0.2,0.3-0.4,0.6-0.4s0.5,0.2,0.4,0.4s-0.4,0.4-0.6,0.4C84.1,986.8,84,986.6,84,986.4z M61.9,984.3
		c-0.1-0.4-0.3-0.6-0.4-0.5c-0.1,0.1-0.5-0.2-0.9-0.7c-1-1.2-0.6-3.7,0.6-4.2c2.2-0.8,6.7-1.1,8.5-0.4c0.6,0.2,0.8,0.7,0.9,1.6
		c0.1,1.4-0.8,2.9-1.5,2.5c-0.2-0.1-0.3,0.1-0.2,0.5c0.2,0.9-2.3,1.8-4.9,1.9C62.5,985,62.1,984.9,61.9,984.3L61.9,984.3z
		 M11.9,983.7c-0.7-0.4-1.3-1-1.3-1.2c0-0.4,0.7-0.4,3.8,0.3c0.7,0.1,1.3,0.4,1.3,0.6s0.3,0.3,0.7,0.3c1.3,0,0.1,0.5-1.5,0.7
		C13.6,984.4,12.8,984.2,11.9,983.7z M73.5,984.1c-1.1-0.2-2.1-2.1-1.3-2.4c0.3-0.1,0.4-0.3,0.3-0.5c-0.1-0.2,0.1-0.2,0.4-0.1
		c0.3,0.1,0.6,0,0.6-0.2c0-0.2,0.4-0.5,0.9-0.7c1.3-0.4,2.2-1.4,2.2-2.2c0-0.4-0.7-1.4-1.5-2.2l-1.5-1.4l1-1.5
		c0.8-1.2,1.2-1.4,1.9-1.2c0.5,0.1,0.9,0.1,0.9-0.1c0-0.4,2.9-0.3,4.3,0.1c0.8,0.2,1,0.8,0.8,2.3c-0.1,0.5,0,0.7,0.3,0.4
		c0.6-0.6,0.1-4.5-0.6-4.5c-0.3,0-0.5-0.3-0.5-0.6s-0.3-0.6-0.7-0.6c-0.5,0-0.8-0.4-1-1c-0.1-0.5-0.4-0.9-0.6-0.8
		c-0.4,0.3-1.4-1.7-1.7-3.5c-0.2-1.2,0.9-3.5,2.1-4.4c1.1-0.8,1.8-0.1,1.2,1.1c-0.3,0.7,0,0.5,1.1-0.6c1.4-1.4,1.8-1.5,1.7-0.5
		c0,0.2,0.2,0.2,0.5,0.1c0.4-0.1,0.8,0.4,1.3,1.9c0.8,2.1,0.8,2.1,0.7,0.6c0-0.8-0.2-1.5-0.4-1.5s-0.3-0.2-0.2-0.5
		c0.1-0.3-0.1-0.7-0.4-1c-0.4-0.4-0.4-0.6-0.1-0.8c0.2-0.2,0.5-0.4,0.5-0.6c0-0.2,0.3-0.3,0.6-0.3c0.3,0,0.5-0.1,0.5-0.2
		c0-0.2,0.6-0.3,1.3-0.3c2.6,0,3.2-0.1,2.7-0.4c-0.4-0.3-0.4-0.4,0.1-0.6c0.3-0.1,0.6-0.5,0.6-0.8s0.2-0.6,0.4-0.6s0.5-0.4,0.6-0.8
		c0.2-0.7,0.5-0.8,1.7-0.6c0.8,0.1,1.6,0.2,1.7,0.2s0.3,0.5,0.3,1s0.2,1.3,0.4,1.7c0.3,0.6,0.1,0.7-2.3,0.6c-2.3,0-2.6,0.1-2.2,0.5
		c0.3,0.3,1.1,0.8,2,1.1c1.2,0.5,1.4,0.7,1,1.1c-0.3,0.3-0.3,0.7-0.1,1c0.5,0.7,0.3,6.9-0.3,7.6c0,0.1-0.1,0.3-0.1,0.5
		c0,0.2-0.4,0.7-0.8,1c-0.6,0.4-0.6,0.7-0.3,1c0.3,0.3,0.2,0.6-0.3,1.2c-1,1-0.9,1.2,0.1,1.7c0.8,0.4,0.8,0.4,0.1,0.5
		c-0.8,0-0.8,0,0,0.6c0.4,0.3,0.5,0.6,0.3,0.6s-0.5,0.2-0.5,0.4c0,0.2,0.2,0.3,0.4,0.2s0.4,0,0.4,0.4c0,0.4-0.2,0.5-0.6,0.4
		c-0.3-0.1-0.6,0-0.6,0.2s-0.2,0.4-0.4,0.4c-0.2,0-0.7,0.2-1,0.5c-0.3,0.3-1.1,0.5-2.1,0.4c-1-0.1-1.5,0-1.4,0.2
		c0.2,0.4-0.1,0.4-2,0.5c-0.6,0-0.8,0.3-0.8,1.2c0,0.6-0.2,1.2-0.5,1.3c-0.3,0.1-0.5,0.5-0.5,0.9c0,0.5-0.2,0.7-0.5,0.6
		c-0.3-0.1-0.7,0.1-1,0.6c-0.6,0.9-1.2,0.6-1-0.4c0.1-0.4,0-0.9-0.3-1c-0.5-0.3-2,1.2-2,2C79.3,984.3,76.2,984.7,73.5,984.1
		L73.5,984.1z M84,980.1c0-0.2-0.1-0.4-0.2-0.4c-0.1,0-0.3,0.2-0.4,0.4s-0.1,0.4,0.2,0.4C83.8,980.5,84,980.3,84,980.1z M84.5,978.4
		c0.1-0.3,0.1-0.6-0.2-0.6c-0.2,0-0.4,0.3-0.4,0.6s0.1,0.6,0.2,0.6C84.2,979,84.4,978.7,84.5,978.4z M84.8,975.7
		c-0.3-0.3-0.4-0.2-0.4,0.4c0,1,0.5,1.6,0.7,0.7C85.2,976.4,85,976,84.8,975.7z M91.8,973.7c0-0.1-0.2-0.3-0.4-0.4s-0.4-0.1-0.4,0.2
		c0,0.2,0.2,0.4,0.4,0.4S91.8,973.8,91.8,973.7z M90.7,969.4c-0.1-0.3-0.3-0.5-0.4-0.4s-0.1,0.4,0.1,0.6
		C90.8,970.2,91,970.1,90.7,969.4z M89.1,969.3c-0.3-0.1-0.4-0.4-0.3-0.6c0.1-0.2-0.1-0.5-0.5-0.6c-0.4-0.1-0.9-0.5-1.1-0.8
		c-0.3-0.4-0.5-0.4-1.1,0.3c-0.9,0.9-0.8,1.1,0.7,1.3c0.6,0.1,1.2,0.3,1.3,0.4s0.6,0.3,0.9,0.2C89.4,969.5,89.5,969.5,89.1,969.3
		L89.1,969.3z M22.4,983.7c-0.6-0.1-0.8-0.4-0.8-0.9c0-0.5,0.3-0.7,0.6-0.6c0.3,0.1,0.5,0.1,0.5-0.1c0-0.2,0.6-0.6,1.3-1
		c0.8-0.4,1.1-0.8,0.8-0.9c-0.4-0.1-0.4-0.4,0.1-1.1c0.3-0.5,0.6-1.5,0.5-2.2c-0.1-1-0.3-1.3-1.2-1.4c-1.7-0.2-2.1-1-1.3-2.8
		c0.4-0.8,1-1.9,1.4-2.3c0.4-0.4,0.6-0.8,0.3-0.8s-0.7,0.4-1.1,0.8c-2.2,2.5-2.9,3.1-4.7,3.3c-1,0.1-2,0.4-2.2,0.5
		c-0.4,0.3-3.4,1.2-4.6,1.5c-1.2,0.2-0.8-1.1,0.8-2.6c1.5-1.4,4.1-2.6,4.9-2.1c0.2,0.1,0.3,0.1,0.2-0.1c-0.3-0.4,5.5-3.5,7.2-3.9
		c0.8-0.2,1.1-0.1,1.3,0.5c0.1,0.4,1.2,1.3,2.4,1.9c1.3,0.7,2.3,1.5,2.7,2.2c0.3,0.6,0.4,1.1,0.2,1.1c-0.2,0-0.4,0.5-0.4,1.1
		c0,0.6-0.1,2-0.1,3.2c-0.1,1.2,0,2.3,0.2,2.6c0.4,0.5,0,1.8-0.5,1.5c-0.2-0.1-0.3-0.1-0.3,0.2c0,0.2-0.3,0.5-0.7,0.6
		c-0.4,0.1-0.9,0.3-1.2,0.5c-0.7,0.3-0.6-0.4,0.3-1.3c0.4-0.5,0.6-0.9,0.4-0.9c-0.6,0-2.4,1-2.2,1.3c0.1,0.1-0.5,0.5-1.4,0.9
		c-0.9,0.4-1.6,0.8-1.6,1C24.3,983.7,23.4,983.9,22.4,983.7L22.4,983.7z M26,970c0.1-0.2,0.1-0.4-0.2-0.4c-0.2,0-0.4,0.2-0.4,0.4
		s0.1,0.4,0.2,0.4C25.7,970.4,25.9,970.2,26,970z M28,970c0.1-0.2,0.1-0.4-0.1-0.4c-0.2,0-0.5,0.2-0.6,0.4s-0.1,0.4,0.1,0.4
		C27.6,970.4,27.8,970.2,28,970z M35.7,982.8c-0.5-0.5-0.6-1.1-0.1-1.1c0.4,0,0.9,1.2,0.7,1.4C36.2,983.2,35.9,983,35.7,982.8z
		 M5.6,982.6c-0.5-0.2-0.7-0.9-0.2-0.9c0.2,0,0.7,0.3,1.1,0.6c0.6,0.4,0.6,0.6,0.2,0.6C6.4,982.8,5.9,982.7,5.6,982.6L5.6,982.6z
		 M48.5,982.5c0-0.6,2-2,3-2c1.4,0,1.5,0.7,0.1,1.6C50.2,982.9,48.5,983.1,48.5,982.5z M8.3,980.7c0-1,0.7-1.4,2-1.1
		c0.5,0.1,0.8,0.1,0.6-0.1c-0.1-0.2-0.1-0.6,0.1-0.9c0.3-0.4,0.4-0.2,0.4,0.9c0,1.5-0.4,1.9-2.2,2.1C8.4,981.6,8.3,981.4,8.3,980.7
		L8.3,980.7z M10.1,980.5c-0.1-0.2-0.3-0.4-0.5-0.4c-0.2,0-0.4,0.2-0.5,0.4c-0.1,0.2,0.2,0.4,0.5,0.4
		C10,980.9,10.2,980.7,10.1,980.5z M46,979.6c-0.9-0.4-1.4-0.9-1.2-1.1c0.3-0.3,4.7-1.6,5.5-1.6c0.7,0,0.1,2.1-0.8,2.9
		c-0.4,0.4-0.7,0.6-0.5,0.3c0.3-0.6,0-0.6-0.9-0.2C47.7,980.3,46.9,980.1,46,979.6z M18.8,979.5c-0.4-0.5-0.3-0.8,0.8-1.9
		c1.3-1.4,3.2-1.8,3.7-0.9c0.2,0.3,0.4,0.3,0.6-0.1c0.2-0.3,0.3,0,0.3,1c-0.1,1.3-0.3,1.6-1.4,2C21.1,980.3,19.4,980.3,18.8,979.5
		L18.8,979.5z M51.8,979c-0.1-0.2,0.1-0.4,0.6-0.4c0.4,0,0.8,0.2,0.8,0.4s-0.3,0.4-0.6,0.4C52.3,979.4,51.9,979.2,51.8,979z
		 M8.3,978.6c0-0.2,0.3-0.3,0.6-0.3s0.5,0.1,0.4,0.3c-0.1,0.2-0.4,0.3-0.6,0.3C8.4,979,8.3,978.8,8.3,978.6z M6.1,977.9
		c-0.4-1.1,0.2-2.4,1-2.2c0.4,0.1,1.2,0,1.9-0.2c1.1-0.4,1.1-0.4,0.7,0.5c-0.2,0.5-1.1,1.3-1.9,1.7C6.6,978.4,6.3,978.4,6.1,977.9z
		 M73,977.6c0-0.5,0.2-1,0.3-1.2c0.4-0.2,0.8,0.9,0.5,1.6C73.6,978.9,73,978.6,73,977.6L73,977.6z M39.7,976.9
		c-0.8-0.4-0.8-0.4,0-0.7c0.9-0.3,2.1,0,2.1,0.5c0,0.2-0.3,0.3-0.6,0.2c-0.3-0.1-0.6-0.1-0.7,0.1C40.5,977.2,40.1,977.2,39.7,976.9
		L39.7,976.9z M42.5,976.7c0.3-0.1,0.6-0.1,0.7,0c0.1,0.1-0.1,0.2-0.5,0.2C42.3,977,42.2,976.9,42.5,976.7L42.5,976.7z M53.5,976
		c-0.3-0.8-0.3-1.4,0-2.3c0.2-0.6,0.4-1.8,0.4-2.6c0-1.8,1.1-3.3,3.1-4.2c2.4-1.2,6.8-2.5,7.8-2.2c0.9,0.2,3.5,2.8,3.4,3.3
		c0,0.1-0.2,0.5-0.3,0.9c-0.2,0.5,0.1,0.8,1.3,1.3c1.5,0.6,3,2.5,2,2.5c-0.2,0-0.3,0.1-0.2,0.2c0.4,0.4-2,2.5-2.9,2.5
		c-0.5,0-1.2,0.1-1.6,0.3c-0.5,0.2-0.7,0.2-0.5-0.1c0.2-0.3,0-0.3-0.6-0.2c-0.5,0.1-0.7,0.1-0.6-0.2c0.4-0.6-4.2,0.1-5.9,0.9
		c-0.8,0.4-2.2,0.8-3.1,0.9C54.1,977.1,53.9,977,53.5,976L53.5,976z M4.8,975.7c-0.2-0.5-0.2-1.3,0-1.8c0.4-1.2,0.1-2.7-0.7-3.3
		c-0.5-0.4-0.5-0.6-0.2-1.3c0.5-0.9,4.7-4.8,5.2-4.8c0.2,0,1.2-0.5,2.4-1.2c2.5-1.5,4.8-2.3,5.6-2c0.3,0.1,0.7,0.6,0.8,1.1
		s0.4,1.2,0.7,1.7c0.8,1.7-0.1,2.4-4.2,3.1c-1.7,0.3-2,0.5-2.4,1.5l-0.5,1.2l1.4-0.3c2-0.4,2.9-0.8,3.8-1.6c0.5-0.5,1.1-0.6,1.9-0.5
		c2,0.4,1.2,1.2-2.2,2.5c-1.6,0.6-3,1.5-4.2,2.7c-1,1-2,1.9-2.1,1.9s-0.6,0.1-1.1,0.3s-1.3,0-1.7-0.2c-0.7-0.4-0.8-0.3-1,0.7
		C5.8,976.8,5.2,977,4.8,975.7L4.8,975.7z M42.7,974.9c-0.4-0.8-0.3-0.9,0.2-0.7c0.5,0.2,0.6,0,0.3-1.1c-0.3-1.2-0.2-1.3,0.3-0.6
		c0.4,0.5,0.6,0.6,0.8,0.3c0.2-0.2,0.2-0.6,0-0.8s0-0.4,0.2-0.4c0.3,0,0.4,0.3,0.2,0.9c-0.1,0.5-0.2,1.2-0.2,1.5
		c0,0.5-0.2,0.6-0.6,0.4c-0.5-0.2-0.6-0.1-0.4,0.6C43.9,976.2,43.2,976.1,42.7,974.9z M39.5,975.1c0-0.2,0.2-0.4,0.4-0.4
		c0.2,0,0.4-0.3,0.5-0.7c0.1-0.6,0.2-0.6,0.4,0c0.2,0.5,0,0.8-0.5,1.1C39.7,975.3,39.5,975.3,39.5,975.1z M45.5,975.1
		c-0.5-0.3-0.4-1.6,0.2-2.1c0.2-0.2,0.3-0.8,0.2-1.3c-0.2-1.2-1.8-1.3-2.9-0.3c-0.8,0.7-0.8,0.7-0.2-0.3c0.3-0.5,0.8-1.1,1.1-1.3
		c0.5-0.3,0.5-0.4,0-0.7c-0.4-0.2-0.4-0.4-0.1-0.6c0.8-0.6,1.3-2,1.3-3.8c0-1.5,0.1-1.8,0.8-1.8c0.4,0,0.8,0.2,0.8,0.5
		c0,0.6,2.9,1.9,3.1,1.4c0.1-0.2-0.3-0.8-0.9-1.3c-0.6-0.5-1-1.3-1-1.7s-0.2-0.9-0.5-1.2s-0.5-0.8-0.6-1.2c-0.3-1.9,3.4-1.8,4.4,0
		c0.5,0.9,0.8,1.1,1.4,0.9c1.1-0.3,0.9-0.1,1.2-2c0.2-1,0.1-1.6-0.1-1.5c-0.2,0.1-0.5,0-0.6-0.4c-0.2-0.6-0.1-0.7,1.2-0.3
		c0.6,0.2,0.9,0.5,0.8,0.9c-0.1,0.9,1.5,2.7,2.2,2.5c1.1-0.4,1,0.8-0.3,2.1c-1,1-1.1,1.3-0.5,1.1c0.4-0.2,1.1-0.3,1.6-0.4
		c0.4-0.1,1-0.2,1.2-0.2c0.2-0.1,0.7-0.1,1,0c0.5,0,0.4,0.2-0.2,0.6c-0.4,0.3-0.5,0.6-0.3,0.6c1,0,0.4,0.7-1.1,1.2
		c-0.9,0.3-1.8,0.8-2.2,1.2c-0.4,0.4-0.8,0.6-1,0.5c-0.2-0.1-0.3,0-0.3,0.2c0,0.4-1.8,1.7-2.5,1.8c-0.3,0-0.8,0.4-1.2,0.8
		c-0.5,0.5-1,0.6-1.6,0.5c-0.6-0.2-1.2,0-1.6,0.5c-0.4,0.4-1,0.8-1.3,1c-0.6,0.2-0.5,1.8,0.1,1.8c0.1,0,0.2,0.5,0.2,1
		C47,974.8,46.2,975.6,45.5,975.1L45.5,975.1z M47.2,969.7c-0.1-0.1-0.5-0.1-0.7,0c-0.3,0.1-0.2,0.2,0.2,0.2
		C47.1,970,47.3,969.9,47.2,969.7L47.2,969.7z M38.1,973.1c0.2-1,0.1-1.1-0.4-0.9c-0.4,0.1-0.7,0-0.9-0.4c-0.1-0.3-0.4-0.6-0.6-0.6
		c-0.2,0-0.1,0.5,0.3,1.1l0.7,1.1l-0.9-0.8c-0.7-0.6-0.8-0.7-0.6-0.1c0.1,0.4,0.1,0.7-0.1,0.7c-0.6,0-0.9-2-0.6-3.3
		c0.3-1.3,1.7-1.4,1.7-0.2c0,0.7,0.1,0.7,0.6,0.3c0.3-0.3,0.6-0.7,0.6-1c0-0.3,0.2-0.5,0.5-0.5s0.7-0.4,1-0.9c0.7-1.2,2.4-2,3-1.4
		c0.6,0.6-0.8,3.8-1.6,3.8c-0.3,0-0.6,0.4-0.6,0.8c0,0.9-1.6,3.5-2.1,3.5C38,974.3,38,973.7,38.1,973.1z M38.3,971.2
		c0-0.2-0.2-0.4-0.4-0.4s-0.4,0.2-0.4,0.4s0.2,0.4,0.4,0.4S38.3,971.4,38.3,971.2z M30.2,967.6c-1-0.6-1.2-0.9-0.9-1.2
		c0.2-0.2,0.4-0.6,0.4-0.9c0-0.2-0.2-0.2-0.4,0.2c-0.2,0.3-0.5,0.5-0.6,0.4c-0.1-0.1-0.1-0.4,0.1-0.7c0.4-0.6,1.6-0.2,1.6,0.5
		c0,0.3,0.2,0.7,0.5,0.8c0.6,0.4,1.2,1.7,0.7,1.7C31.6,968.4,30.9,968.1,30.2,967.6L30.2,967.6z M70.9,968c0.1-0.2,0.4-0.4,0.6-0.4
		s0.3,0.2,0.1,0.4s-0.4,0.4-0.6,0.4C70.8,968.4,70.8,968.2,70.9,968z M69.3,965.6c0.1-0.4,0-0.8-0.4-0.9c-0.3-0.1-0.5-0.4-0.4-0.6
		c0.1-0.2,0-0.3-0.3-0.1c-0.3,0.1-0.8-0.2-1.1-0.8c-0.5-0.9-0.5-1.1,0.4-1.7c1.4-1,2.3-1.3,2.6-0.8c0.2,0.3,0.1,0.3-0.2,0.2
		c-0.2-0.2-0.5-0.1-0.5,0.1s0.3,0.4,0.6,0.4c0.5,0,0.5,0.1,0.2,0.6c-0.3,0.3-0.4,0.9-0.2,1.4c0.2,0.5,0.1,0.8-0.2,0.8
		c-0.3,0-0.4,0.2-0.3,0.5s0,0.8-0.2,1.1C69.2,966.2,69.1,966.1,69.3,965.6L69.3,965.6z M73.3,964.7c-0.1-0.8-0.2-1.5-0.1-1.6
		s0.3,0.4,0.5,1.2c0.1,0.8,0.2,1.5,0.1,1.6C73.6,966,73.4,965.5,73.3,964.7z M33.5,964.9c0.2-0.3,0-0.3-0.6-0.2
		c-0.7,0.2-0.8,0.2-0.6-0.3c0.2-0.6-0.1-0.8-1-0.7c-0.2,0-0.3-0.4-0.2-0.9c0-0.5,0.3-0.9,0.5-0.9c0.6,0.1,1.8-0.5,1.8-0.9
		c0-0.2-0.2-0.3-0.5-0.3s-1-0.5-1.6-1c-1-1-1.1-1.1-0.4-1.7c0.6-0.7,0.6-0.8,0-1.4c-0.8-0.8-0.8-1,0.2-0.8c0.4,0.1,0.8,0,0.8-0.2
		s0.2-0.3,0.4-0.2c0.2,0.1,0.5,0,0.6-0.2c0.3-0.5,1.7,0.7,1.7,1.4c0,0.3,0.3,0.5,0.6,0.5s0.6,0.3,0.6,0.7s0.3,1,0.6,1.5
		c0.5,0.7,0.6,0.6,0.3-1l-0.2-1.8l1.7-0.7c0.9-0.4,2.2-1,2.7-1.4c0.6-0.4,1.2-0.6,1.4-0.5c0.2,0.2,0.2,0.1,0.1-0.2
		c-0.4-0.8,0.8-1.4,2.4-1.2c0.8,0.1,1.5,0.2,1.6,0.2c0.1,0,0.1,0.7,0,1.5c-0.1,1.6-1.8,4.9-2.3,4.6c-0.2-0.1-0.5,0.5-0.6,1.5
		s-0.3,1.5-0.4,1.2c-0.1-0.4-0.3-0.3-0.8,0.2c-0.7,0.8-3.3,2.2-3,1.6c0.1-0.2-0.1-0.3-0.4-0.1c-0.3,0.1-0.6,0.6-0.6,1
		c0,0.4-0.2,0.7-0.4,0.7c-0.2,0-0.3-0.2-0.2-0.4s0-0.5-0.2-0.6c-0.2-0.1-0.4,0-0.4,0.3c0,0.7-0.8,1-2.4,1
		C33.6,965.3,33.3,965.1,33.5,964.9L33.5,964.9z M64.1,962.5c0.2-0.4,0.5-0.7,0.6-0.6c0.3,0.3-0.3,1.5-0.7,1.5
		C63.8,963.3,63.8,963,64.1,962.5z M7.4,962.9c-0.2-0.6-0.2-2.6,0.1-3.2c0.3-0.7,0.3-0.7,0.6-0.1c0.2,0.6,0.4,0.6,0.9,0.2
		c0.5-0.4,0.6-0.4,0.3,0c-0.2,0.4-0.2,0.5,0.2,0.4c0.3-0.1,0.5-1,0.5-2.2c0.1-1.6-0.1-2-0.5-1.8c-0.3,0.1-0.6,0.2-0.7,0.2
		s-0.1,0.2,0.1,0.4c0.1,0.2,0,0.3-0.3,0.2c-0.3-0.1-0.5-0.5-0.4-0.7c0.2-0.6,1.2-1.1,1.7-0.8c0.2,0.1,0.4,0.1,0.4-0.1
		c0-0.2,0.5-0.5,1.1-0.6c0.6-0.1,1.6-0.7,2.2-1.2c1.5-1.4,3.6-1.4,3.9,0c0.2,1.1,0,1.3-1.3,1.6c-0.5,0.1-1.3,0.4-1.8,0.8l-1,0.6l1,1
		c0.6,0.5,1.3,0.9,1.6,0.8c0.4-0.1,0.6,0,0.6,0.5c0,0.7-4.6,3.2-5.9,3.2c-0.3,0-0.9,0.3-1.3,0.6C8.6,962.9,7.5,963.2,7.4,962.9
		L7.4,962.9z M71.7,962.4c-0.1-0.3-0.1-0.7,0.2-0.8c0.2-0.1,0.4,0.1,0.4,0.6C72.3,963.1,72,963.2,71.7,962.4z M4.7,962.2
		c0-0.2,0.2-0.8,0.4-1.4c0.3-0.7,0.3-1.3,0-1.8c-0.2-0.4-0.3-0.8-0.2-0.8s0.4,0.5,0.7,1.1c0.4,0.8,0.4,1.3,0.2,2.1
		C5.5,962.5,4.7,963,4.7,962.2L4.7,962.2z M17,959.1c0.2-0.4,0.4-1,0.5-1.4c0.1-0.4,0.4-0.7,0.6-0.7s0.2,0.2,0.1,0.4
		c-0.1,0.2,0,0.6,0.2,0.8c0.4,0.3,0.4,0.4,0,0.9C17.7,960.1,16.7,960,17,959.1L17,959.1z M59.5,957c-1.9-1.4-2-1.8-0.8-1.9
		c0.5,0,0.7-0.1,0.4-0.2c-0.3-0.1-0.5-0.4-0.5-0.7c0-0.3,0.2-0.4,0.5-0.3c0.3,0.1,0.7,0,0.8-0.2c0.3-0.5,2-0.5,2.4,0
		c0.4,0.6,1,0.5,1-0.2c0-1.4,2.5-1.3,4.5,0.1c1.4,0.9,1.6,1.2,1.3,2c-0.2,0.5-0.2,0.9-0.1,0.9s0,0.3-0.3,0.6
		c-0.4,0.5-0.9,0.6-2.1,0.4c-1.2-0.2-1.7-0.1-2.1,0.4C63.6,958.7,61.3,958.4,59.5,957L59.5,957z M61.7,954.4
		c0.3-0.2,0.4-0.4,0.2-0.4c-0.2,0-0.7,0.2-1,0.4s-0.4,0.4-0.2,0.4C61,954.7,61.4,954.6,61.7,954.4z M72.3,957.5
		c0-0.4,0.2-0.9,0.5-1.2c0.3-0.3,0.5-1,0.4-1.8c-0.1-0.7,0.1-1.5,0.3-1.7c0.6-0.5,7-0.3,7.2,0.3c0.2,0.7,1.9,0.6,2.6-0.1
		c0.8-0.8,6.3-0.9,5.9-0.1c-0.2,0.4-0.2,0.4,0.3,0.1c0.3-0.2,0.9-0.4,1.3-0.4c0.6,0,0.6,0.1-0.2,0.7c-1.1,0.9-3.4,1.5-5.1,1.5
		c-0.8,0-1.6,0.2-1.8,0.5c-0.2,0.3-0.8,0.5-1.2,0.3c-0.5-0.1-1.4,0.2-2.3,0.8c-1,0.6-1.6,0.8-1.6,0.5c0-0.4-0.1-0.4-0.3,0
		c-0.5,0.7-2.3,1.3-4.2,1.3C72.6,958.3,72.3,958.1,72.3,957.5L72.3,957.5z M79.8,957.7c0.4-0.3,0.9-0.4,1.1-0.3
		c0.6,0.4,0.3,0.7-0.7,0.8C79.2,958.2,79.2,958.2,79.8,957.7L79.8,957.7z M4.5,957.4c-0.9-0.3-1.3-0.6-1.3-1.1
		c0-0.6,0.2-0.7,0.7-0.5c0.7,0.2,0.7,0.2,0-0.5c-0.4-0.4-0.7-0.9-0.7-1c0-0.5,1.1-0.2,1.8,0.5c0.4,0.4,1,0.8,1.3,0.8
		c0.3,0,0.5,0.2,0.3,0.6c-0.1,0.3-0.1,0.6,0.1,0.6s0.4,0.3,0.6,0.6C7.5,958,6.5,958,4.5,957.4L4.5,957.4z M5.8,956.6
		c-0.1-0.3-0.2-0.2-0.2,0.2c0,0.4,0.1,0.6,0.2,0.5C5.9,957.3,5.9,956.9,5.8,956.6L5.8,956.6z M29.3,957.5c0-0.2,0.3-0.4,0.6-0.4
		s0.6,0.2,0.6,0.4s-0.3,0.4-0.6,0.4S29.3,957.7,29.3,957.5z M47.1,957.1c-0.4-0.6,0.7-0.8,1.3-0.2c0.4,0.4,0.4,0.5-0.3,0.5
		C47.7,957.5,47.2,957.3,47.1,957.1z M81.4,956.7c0.1-0.6,0.8-0.5,1,0.1c0.1,0.4,0.1,0.4-0.2,0c-0.3-0.4-0.4-0.4-0.6-0.1
		C81.4,957,81.3,957,81.4,956.7z M27.9,955.9c-0.9-0.4-1.6-1.2-1-1.2c0.2,0,0.5,0.2,0.8,0.5c0.3,0.3,0.5,0.3,0.5,0
		c0-0.2,0.3-0.5,0.6-0.6c0.4-0.2,0.5,0,0.3,0.4c-0.2,0.4-0.1,0.5,0.2,0.3c0.3-0.2,0.5,0,0.5,0.3C29.7,956.4,29.2,956.4,27.9,955.9z
		 M36.9,954.9c0.6-0.7,0.6-1,0.3-1.6c-0.4-0.8-0.4-0.8,1.9-0.7c1.3,0.1,2.2,0.2,2.1,0.4c-0.2,0.3-3.2,2-3.6,2
		c-0.1,0-0.5,0.2-0.8,0.4C36.4,955.5,36.4,955.4,36.9,954.9z M54.2,955c-1.1-0.4-1.4-1.1-0.5-1.1c0.3,0,0.8,0.4,1.2,0.8
		c0.4,0.4,0.6,0.8,0.5,0.7C55.4,955.5,54.8,955.3,54.2,955z M9.8,954.2c0.2-0.3,0.8-0.6,1.3-0.7s1.2-0.3,1.6-0.5
		c0.5-0.2,0.7-0.2,0.4,0.1C12.5,953.8,9.3,954.8,9.8,954.2L9.8,954.2z M5.1,953c0-0.3,0.2-0.6,0.4-0.6c0.2,0,0.4,0.2,0.4,0.4
		c0,0.2-0.2,0.5-0.4,0.6C5.3,953.5,5.1,953.4,5.1,953L5.1,953z M25.5,953.3c0.4-0.1,1-0.1,1.4,0c0.4,0.1,0.1,0.2-0.7,0.2
		C25.5,953.5,25.2,953.4,25.5,953.3z M54.8,953.3c0.2-0.3-0.3-0.3-1.4-0.2c-0.9,0.1-1.5,0.1-1.3-0.1c0.5-0.6,3.9-0.6,3.7-0.1
		c-0.1,0.3-0.4,0.5-0.7,0.6C54.8,953.6,54.7,953.5,54.8,953.3z M2.1,952.9c0.4-0.4,2.6-0.5,2.6-0.1c0,0.2-0.6,0.4-1.4,0.4
		S2,953.1,2.1,952.9z M69.1,952.8c-0.4-0.3-0.2-0.4,1-0.4c1.2,0,1.4,0.1,0.8,0.4C69.9,953.2,69.8,953.2,69.1,952.8z"/>
</g>
</svg>
